Lemon-Regular.otf.ufo
<glyph name="exclam" format="1">
  <advance width="458"/>
  <unicode hex="0021"/>
  <outline>
    <contour>
      <point x="199" y="279" type="curve" name="hr00"/>
      <point x="227" y="279"/>
      <point x="272" y="292"/>
      <point x="301" y="317" type="curve"/>
      <point x="331" y="396" smooth="yes"/>
      <point x="405" y="570" smooth="yes"/>
      <point x="405" y="672" type="curve" smooth="yes"/>
      <point x="405" y="732" smooth="yes"/>
      <point x="376" y="775" smooth="yes"/>
      <point x="297" y="775" type="curve" smooth="yes"/>
      <point x="229" y="775"/>
      <point x="167" y="753"/>
      <point x="123" y="708" type="curve"/>
      <point x="142" y="690" smooth="yes"/>
      <point x="148" y="656" smooth="yes"/>
      <point x="148" y="631" type="curve" smooth="yes"/>
      <point x="148" y="566" smooth="yes"/>
      <point x="129" y="411" smooth="yes"/>
      <point x="129" y="364" type="curve" smooth="yes"/>
      <point x="129" y="314" smooth="yes"/>
      <point x="144" y="279" smooth="yes"/>
    </contour>
    <component  base="period" xOffset="10"/>
  </outline>
</glyph>
<glyph name="quotedbl" format="1">
  <advance width="516"/>
  <unicode hex="0022"/>
  <outline>
    <contour>
      <point x="359" y="446" type="curve" smooth="yes"/>
      <point x="314" y="446" smooth="yes"/>
      <point x="300" y="467" smooth="yes"/>
      <point x="300" y="496" type="curve" smooth="yes"/>
      <point x="300" y="560" smooth="yes"/>
      <point x="352" y="637" smooth="yes"/>
      <point x="352" y="716" type="curve" smooth="yes"/>
      <point x="352" y="731"/>
      <point x="350" y="745"/>
      <point x="345" y="759" type="curve" name="hr01"/>
      <point x="375" y="773" smooth="yes"/>
      <point x="410" y="780" smooth="yes"/>
      <point x="437" y="780" type="curve" smooth="yes"/>
      <point x="482" y="780" smooth="yes"/>
      <point x="496" y="759" smooth="yes"/>
      <point x="496" y="730" type="curve" smooth="yes"/>
      <point x="496" y="664" smooth="yes"/>
      <point x="444" y="587" smooth="yes"/>
      <point x="444" y="510" type="curve" smooth="yes"/>
      <point x="444" y="495"/>
      <point x="446" y="481"/>
      <point x="451" y="467" type="curve" name="hr02"/>
      <point x="421" y="453" smooth="yes"/>
      <point x="386" y="446" smooth="yes"/>
    </contour>
    <contour>
      <point x="129" y="446" type="curve" smooth="yes"/>
      <point x="84" y="446" smooth="yes"/>
      <point x="70" y="467" smooth="yes"/>
      <point x="70" y="496" type="curve" smooth="yes"/>
      <point x="70" y="560" smooth="yes"/>
      <point x="122" y="637" smooth="yes"/>
      <point x="122" y="716" type="curve" smooth="yes"/>
      <point x="122" y="731"/>
      <point x="120" y="745"/>
      <point x="115" y="759" type="curve" name="hr03"/>
      <point x="145" y="773" smooth="yes"/>
      <point x="180" y="780" smooth="yes"/>
      <point x="207" y="780" type="curve" smooth="yes"/>
      <point x="252" y="780" smooth="yes"/>
      <point x="266" y="759" smooth="yes"/>
      <point x="266" y="730" type="curve" smooth="yes"/>
      <point x="266" y="664" smooth="yes"/>
      <point x="214" y="587" smooth="yes"/>
      <point x="214" y="510" type="curve" smooth="yes"/>
      <point x="214" y="495"/>
      <point x="216" y="481"/>
      <point x="221" y="467" type="curve" name="hr04"/>
      <point x="191" y="453" smooth="yes"/>
      <point x="156" y="446" smooth="yes"/>
    </contour>
  </outline>
</glyph>
<glyph name="dollar" format="1">
  <advance width="724"/>
  <unicode hex="0024"/>
  <outline>
    <contour>
      <point x="62" y="138" type="curve" smooth="yes" name="hr00"/>
      <point x="62" y="65"/>
      <point x="107" y="8"/>
      <point x="271" y="-1" type="curve"/>
      <point x="256" y="-51" smooth="yes"/>
      <point x="246" y="-98" smooth="yes"/>
      <point x="246" y="-140" type="curve" smooth="yes"/>
      <point x="246" y="-176" smooth="yes"/>
      <point x="256" y="-194" smooth="yes"/>
      <point x="278" y="-194" type="curve" smooth="yes"/>
      <point x="300" y="-194"/>
      <point x="329" y="-177"/>
      <point x="362" y="-142" type="curve"/>
      <point x="359" y="-131" smooth="yes"/>
      <point x="358" y="-116" smooth="yes"/>
      <point x="358" y="-102" type="curve" smooth="yes"/>
      <point x="358" y="-71"/>
      <point x="363" y="-36"/>
      <point x="371" y="-1" type="curve"/>
      <point x="516" y="11" smooth="yes"/>
      <point x="663" y="77" smooth="yes"/>
      <point x="663" y="209" type="curve" smooth="yes"/>
      <point x="663" y="349"/>
      <point x="543" y="394"/>
      <point x="339" y="433" type="curve"/>
      <point x="343" y="478" smooth="yes"/>
      <point x="388" y="496" smooth="yes"/>
      <point x="445" y="496" type="curve" smooth="yes"/>
      <point x="511" y="496"/>
      <point x="590" y="485"/>
      <point x="636" y="455" type="curve"/>
      <point x="652" y="483" smooth="yes"/>
      <point x="661" y="526" smooth="yes"/>
      <point x="661" y="556" type="curve" smooth="yes"/>
      <point x="661" y="653"/>
      <point x="535" y="670"/>
      <point x="452" y="673" type="curve"/>
      <point x="469" y="722" smooth="yes"/>
      <point x="479" y="769" smooth="yes"/>
      <point x="479" y="808" type="curve" smooth="yes"/>
      <point x="479" y="838" smooth="yes"/>
      <point x="470" y="853" smooth="yes"/>
      <point x="450" y="853" type="curve" smooth="yes"/>
      <point x="428" y="853"/>
      <point x="400" y="835"/>
      <point x="364" y="799" type="curve"/>
      <point x="365" y="791" smooth="yes"/>
      <point x="366" y="780" smooth="yes"/>
      <point x="366" y="768" type="curve" smooth="yes"/>
      <point x="366" y="737"/>
      <point x="361" y="704"/>
      <point x="353" y="670" type="curve"/>
      <point x="227" y="656" smooth="yes"/>
      <point x="103" y="599" smooth="yes"/>
      <point x="103" y="448" type="curve" smooth="yes"/>
      <point x="103" y="396"/>
      <point x="131" y="262"/>
      <point x="406" y="222" type="curve"/>
      <point x="393" y="185" smooth="yes"/>
      <point x="362" y="167" smooth="yes"/>
      <point x="304" y="167" type="curve" smooth="yes"/>
      <point x="226" y="167"/>
      <point x="137" y="208"/>
      <point x="91" y="258" type="curve"/>
      <point x="72" y="220" smooth="yes"/>
      <point x="62" y="174" smooth="yes"/>
    </contour>
  </outline>
</glyph>
<glyph name="ampersand" format="1">
  <advance width="758"/>
  <unicode hex="0026"/>
  <outline>
    <contour>
      <point x="404" y="642" type="curve"/>
      <point x="430" y="586" smooth="yes"/>
      <point x="480" y="560" smooth="yes"/>
      <point x="520" y="560" type="curve" smooth="yes"/>
      <point x="578" y="560" smooth="yes"/>
      <point x="633" y="594" smooth="yes"/>
      <point x="633" y="658" type="curve" smooth="yes"/>
      <point x="633" y="725" smooth="yes"/>
      <point x="565" y="775" smooth="yes"/>
      <point x="447" y="775" type="curve" smooth="yes"/>
      <point x="211" y="775" smooth="yes"/>
      <point x="80" y="639" smooth="yes"/>
      <point x="80" y="512" type="curve" smooth="yes"/>
      <point x="80" y="447"/>
      <point x="112" y="383"/>
      <point x="178" y="343" type="curve"/>
      <point x="70" y="279" smooth="yes"/>
      <point x="15" y="178" smooth="yes"/>
      <point x="15" y="87" type="curve" smooth="yes" name="hr01"/>
      <point x="15" y="-20" smooth="yes"/>
      <point x="91" y="-112" smooth="yes"/>
      <point x="247" y="-112" type="curve" smooth="yes"/>
      <point x="434" y="-112"/>
      <point x="632" y="20"/>
      <point x="632" y="317" type="curve"/>
      <point x="663" y="323" smooth="yes"/>
      <point x="692" y="325" smooth="yes"/>
      <point x="716" y="325" type="curve" smooth="yes"/>
      <point x="739" y="325"/>
      <point x="755" y="322"/>
      <point x="769" y="319" type="curve"/>
      <point x="782" y="351" smooth="yes"/>
      <point x="788" y="395" smooth="yes"/>
      <point x="788" y="421" type="curve" smooth="yes"/>
      <point x="788" y="462" smooth="yes"/>
      <point x="771" y="475" smooth="yes"/>
      <point x="746" y="475" type="curve" smooth="yes"/>
      <point x="660" y="475" smooth="yes"/>
      <point x="506" y="419" smooth="yes"/>
      <point x="400" y="419" type="curve" smooth="yes" name="hr02"/>
      <point x="323" y="419" smooth="yes"/>
      <point x="283" y="465" smooth="yes"/>
      <point x="283" y="516" type="curve" smooth="yes"/>
      <point x="283" y="567"/>
      <point x="323" y="623"/>
    </contour>
    <contour>
      <point x="333" y="91" type="curve" smooth="yes"/>
      <point x="282" y="91" smooth="yes"/>
      <point x="244" y="121" smooth="yes"/>
      <point x="244" y="173" type="curve" smooth="yes" name="hr03"/>
      <point x="244" y="209"/>
      <point x="262" y="256"/>
      <point x="304" y="301" type="curve"/>
      <point x="323" y="298" smooth="yes"/>
      <point x="343" y="297" smooth="yes"/>
      <point x="364" y="297" type="curve" smooth="yes"/>
      <point x="415" y="297"/>
      <point x="470" y="303"/>
      <point x="526" y="309" type="curve"/>
      <point x="510" y="155" smooth="yes"/>
      <point x="398" y="91" smooth="yes"/>
    </contour>
  </outline>
</glyph>
<glyph name="quotesingle" format="1">
  <advance width="286"/>
  <unicode hex="0027"/>
  <outline>
    <contour>
      <point x="129" y="446" type="curve" smooth="yes"/>
      <point x="84" y="446" smooth="yes"/>
      <point x="70" y="467" smooth="yes"/>
      <point x="70" y="496" type="curve" smooth="yes"/>
      <point x="70" y="560" smooth="yes"/>
      <point x="122" y="637" smooth="yes"/>
      <point x="122" y="716" type="curve" smooth="yes"/>
      <point x="122" y="731"/>
      <point x="120" y="745"/>
      <point x="115" y="759" type="curve" name="hr01"/>
      <point x="145" y="773" smooth="yes"/>
      <point x="180" y="780" smooth="yes"/>
      <point x="207" y="780" type="curve" smooth="yes"/>
      <point x="252" y="780" smooth="yes"/>
      <point x="266" y="759" smooth="yes"/>
      <point x="266" y="730" type="curve" smooth="yes"/>
      <point x="266" y="664" smooth="yes"/>
      <point x="214" y="587" smooth="yes"/>
      <point x="214" y="510" type="curve" smooth="yes"/>
      <point x="214" y="495"/>
      <point x="216" y="481"/>
      <point x="221" y="467" type="curve" name="hr02"/>
      <point x="191" y="453" smooth="yes"/>
      <point x="156" y="446" smooth="yes"/>
    </contour>
  </outline>
</glyph>
<glyph name="parenleft" format="1">
  <advance width="415"/>
  <unicode hex="0028"/>
  <outline>
    <contour>
      <point x="70" y="151" type="curve" smooth="yes" name="hr00"/>
      <point x="70" y="-32" smooth="yes"/>
      <point x="120" y="-156" smooth="yes"/>
      <point x="225" y="-156" type="curve" smooth="yes"/>
      <point x="264" y="-156"/>
      <point x="308" y="-142"/>
      <point x="357" y="-108" type="curve"/>
      <point x="262" y="-14" smooth="yes"/>
      <point x="239" y="102" smooth="yes"/>
      <point x="239" y="231" type="curve" smooth="yes"/>
      <point x="239" y="370"/>
      <point x="287" y="634"/>
      <point x="425" y="758" type="curve"/>
      <point x="400" y="790" smooth="yes"/>
      <point x="368" y="801" smooth="yes"/>
      <point x="331" y="801" type="curve" smooth="yes"/>
      <point x="200" y="801" smooth="yes"/>
      <point x="70" y="421" smooth="yes"/>
    </contour>
  </outline>
</glyph>
<glyph name="parenright" format="1">
  <advance width="415"/>
  <unicode hex="0029"/>
  <outline>
    <contour>
      <point x="345" y="494" type="curve" smooth="yes" name="hr00"/>
      <point x="345" y="676" smooth="yes"/>
      <point x="295" y="801" smooth="yes"/>
      <point x="190" y="801" type="curve" smooth="yes"/>
      <point x="151" y="801"/>
      <point x="107" y="787"/>
      <point x="58" y="753" type="curve"/>
      <point x="153" y="659" smooth="yes"/>
      <point x="176" y="543" smooth="yes"/>
      <point x="176" y="414" type="curve" smooth="yes"/>
      <point x="176" y="275"/>
      <point x="128" y="11"/>
      <point x="-10" y="-113" type="curve"/>
      <point x="15" y="-145" smooth="yes"/>
      <point x="47" y="-156" smooth="yes"/>
      <point x="84" y="-156" type="curve" smooth="yes"/>
      <point x="215" y="-156" smooth="yes"/>
      <point x="345" y="224" smooth="yes"/>
    </contour>
  </outline>
</glyph>
<glyph name="asterisk" format="1">
  <advance width="592"/>
  <unicode hex="002A"/>
  <outline>
    <contour>
      <point x="313" y="433" type="curve" name="hr00"/>
      <point x="328" y="392" smooth="yes"/>
      <point x="365" y="296" smooth="yes"/>
      <point x="408" y="296" type="curve" smooth="yes"/>
      <point x="438" y="296"/>
      <point x="488" y="344"/>
      <point x="509" y="399" type="curve"/>
      <point x="485" y="417"/>
      <point x="472" y="429"/>
      <point x="415" y="506" type="curve"/>
      <point x="503" y="513" smooth="yes"/>
      <point x="577" y="520" smooth="yes"/>
      <point x="577" y="567" type="curve" smooth="yes"/>
      <point x="577" y="595"/>
      <point x="547" y="648"/>
      <point x="509" y="681" type="curve"/>
      <point x="490" y="664"/>
      <point x="468" y="654"/>
      <point x="378" y="625" type="curve"/>
      <point x="390" y="669" smooth="yes"/>
      <point x="400" y="710" smooth="yes"/>
      <point x="400" y="741" type="curve" smooth="yes"/>
      <point x="400" y="781" smooth="yes"/>
      <point x="388" y="800" smooth="yes"/>
      <point x="342" y="800" type="curve" smooth="yes"/>
      <point x="315" y="800"/>
      <point x="273" y="788"/>
      <point x="239" y="768" type="curve"/>
      <point x="249" y="741"/>
      <point x="253" y="720"/>
      <point x="254" y="627" type="curve"/>
      <point x="192" y="664" smooth="yes"/>
      <point x="148" y="689" smooth="yes"/>
      <point x="120" y="689" type="curve" smooth="yes"/>
      <point x="90" y="689" smooth="yes"/>
      <point x="67" y="656" smooth="yes"/>
      <point x="67" y="589" type="curve" smooth="yes"/>
      <point x="67" y="573"/>
      <point x="69" y="556"/>
      <point x="74" y="537" type="curve"/>
      <point x="127" y="536"/>
      <point x="169" y="523"/>
      <point x="212" y="508" type="curve"/>
      <point x="154" y="458" smooth="yes"/>
      <point x="110" y="419" smooth="yes"/>
      <point x="110" y="388" type="curve" smooth="yes"/>
      <point x="110" y="356"/>
      <point x="176" y="315"/>
      <point x="243" y="310" type="curve"/>
      <point x="250" y="339"/>
      <point x="262" y="361"/>
    </contour>
    <contour>
      <point x="314" y="461" type="curve"/>
      <point x="305" y="476"/>
      <point x="276" y="499"/>
      <point x="235" y="514" type="curve"/>
      <point x="249" y="533"/>
      <point x="264" y="567"/>
      <point x="269" y="609" type="curve"/>
      <point x="289" y="606" smooth="yes"/>
      <point x="304" y="604" smooth="yes"/>
      <point x="320" y="604" type="curve" smooth="yes"/>
      <point x="328" y="604"/>
      <point x="347" y="606"/>
      <point x="370" y="609" type="curve"/>
      <point x="370" y="587"/>
      <point x="378" y="554"/>
      <point x="401" y="513" type="curve"/>
      <point x="380" y="504"/>
      <point x="346" y="493"/>
    </contour>
  </outline>
</glyph>
<glyph name="plus" format="1">
  <advance width="733"/>
  <unicode hex="002B"/>
  <outline>
    <contour>
      <point x="139" y="283" type="curve" smooth="yes"/>
      <point x="191" y="283"/>
      <point x="243" y="287"/>
      <point x="296" y="292" type="curve"/>
      <point x="296" y="262" type="line" smooth="yes"/>
      <point x="296" y="227"/>
      <point x="291" y="172"/>
      <point x="279" y="134" type="curve"/>
      <point x="310" y="113" smooth="yes"/>
      <point x="351" y="103" smooth="yes"/>
      <point x="395" y="103" type="curve" smooth="yes"/>
      <point x="439" y="103" smooth="yes"/>
      <point x="453" y="121" smooth="yes"/>
      <point x="453" y="142" type="curve" smooth="yes"/>
      <point x="453" y="196"/>
      <point x="448" y="250"/>
      <point x="443" y="305" type="curve"/>
      <point x="463" y="306" smooth="yes"/>
      <point x="484" y="307" smooth="yes"/>
      <point x="505" y="307" type="curve" smooth="yes"/>
      <point x="549" y="307"/>
      <point x="588" y="302"/>
      <point x="615" y="291" type="curve"/>
      <point x="628" y="316" smooth="yes"/>
      <point x="633" y="345" smooth="yes"/>
      <point x="633" y="370" type="curve" smooth="yes"/>
      <point x="633" y="426" smooth="yes"/>
      <point x="604" y="446" smooth="yes"/>
      <point x="554" y="446" type="curve" smooth="yes"/>
      <point x="513" y="446"/>
      <point x="472" y="445"/>
      <point x="431" y="443" type="curve"/>
      <point x="429" y="465" smooth="yes"/>
      <point x="429" y="486" smooth="yes"/>
      <point x="429" y="508" type="curve" smooth="yes" name="hr01"/>
      <point x="429" y="552"/>
      <point x="434" y="591"/>
      <point x="445" y="618" type="curve"/>
      <point x="420" y="631" smooth="yes"/>
      <point x="391" y="636" smooth="yes"/>
      <point x="366" y="636" type="curve" smooth="yes"/>
      <point x="310" y="636" smooth="yes"/>
      <point x="290" y="607" smooth="yes"/>
      <point x="290" y="557" type="curve" smooth="yes"/>
      <point x="290" y="518"/>
      <point x="291" y="479"/>
      <point x="292" y="440" type="curve"/>
      <point x="259" y="440" type="line" smooth="yes"/>
      <point x="224" y="440"/>
      <point x="169" y="445"/>
      <point x="131" y="457" type="curve"/>
      <point x="110" y="426" smooth="yes"/>
      <point x="100" y="385" smooth="yes"/>
      <point x="100" y="341" type="curve" smooth="yes"/>
      <point x="100" y="297" smooth="yes"/>
      <point x="118" y="283" smooth="yes"/>
    </contour>
  </outline>
</glyph>
<glyph name="comma" format="1">
  <advance width="333"/>
  <unicode hex="002C"/>
  <outline>
    <contour>
      <point x="118" y="-2" type="line"/>
      <point x="118" y="-51"/>
      <point x="78" y="-121"/>
      <point x="12" y="-152" type="curve"/>
      <point x="27" y="-196" type="line"/>
      <point x="185" y="-163" smooth="yes"/>
      <point x="284" y="-44" smooth="yes"/>
      <point x="284" y="93" type="curve" smooth="yes"/>
      <point x="284" y="153" smooth="yes"/>
      <point x="245" y="208" smooth="yes"/>
      <point x="177" y="208" type="curve" smooth="yes" name="hr01"/>
      <point x="109" y="208"/>
      <point x="51" y="152"/>
      <point x="48" y="88" type="curve"/>
    </contour>
  </outline>
</glyph>
<glyph name="hyphen" format="1">
  <advance width="528"/>
  <unicode hex="002D"/>
  <outline>
    <contour>
      <point x="118" y="183" type="curve" smooth="yes" name="hr00"/>
      <point x="81" y="183" smooth="yes"/>
      <point x="55" y="200" smooth="yes"/>
      <point x="55" y="256" type="curve" smooth="yes"/>
      <point x="55" y="289"/>
      <point x="65" y="331"/>
      <point x="83" y="370" type="curve"/>
      <point x="101" y="364" smooth="yes"/>
      <point x="116" y="363" smooth="yes"/>
      <point x="135" y="363" type="curve" smooth="yes"/>
      <point x="234" y="363" smooth="yes"/>
      <point x="316" y="427" smooth="yes"/>
      <point x="410" y="427" type="curve" smooth="yes"/>
      <point x="447" y="427" smooth="yes"/>
      <point x="473" y="410" smooth="yes"/>
      <point x="473" y="354" type="curve" smooth="yes"/>
      <point x="473" y="321"/>
      <point x="463" y="279"/>
      <point x="445" y="240" type="curve"/>
      <point x="427" y="246" smooth="yes"/>
      <point x="412" y="247" smooth="yes"/>
      <point x="393" y="247" type="curve" smooth="yes"/>
      <point x="294" y="247" smooth="yes"/>
      <point x="212" y="183" smooth="yes"/>
    </contour>
  </outline>
</glyph>
<glyph name="period" format="1">
  <advance width="333"/>
  <unicode hex="002E"/>
  <outline>
    <contour>
      <point x="50" y="80" type="curve" name="hr00"/>
      <point x="50" y="21" smooth="yes"/>
      <point x="96" y="-25" smooth="yes"/>
      <point x="157" y="-25" type="curve" smooth="yes"/>
      <point x="227" y="-25" smooth="yes"/>
      <point x="283" y="35" smooth="yes"/>
      <point x="283" y="102" type="curve" smooth="yes"/>
      <point x="283" y="161" smooth="yes"/>
      <point x="237" y="207" smooth="yes"/>
      <point x="176" y="207" type="curve" smooth="yes"/>
      <point x="106" y="207" smooth="yes"/>
      <point x="50" y="147" smooth="yes"/>
    </contour>
  </outline>
</glyph>
<glyph name="slash" format="1">
  <advance width="397"/>
  <unicode hex="002F"/>
  <outline>
    <contour>
      <point x="181" y="23" type="curve" smooth="yes" name="hr00"/>
      <point x="242" y="241" smooth="yes"/>
      <point x="274" y="383" smooth="yes"/>
      <point x="333" y="589" type="curve" smooth="yes"/>
      <point x="349" y="646"/>
      <point x="382" y="737"/>
      <point x="417" y="789" type="curve"/>
      <point x="385" y="818" smooth="yes"/>
      <point x="346" y="836" smooth="yes"/>
      <point x="301" y="836" type="curve" smooth="yes"/>
      <point x="253" y="836" smooth="yes"/>
      <point x="231" y="809" smooth="yes"/>
      <point x="222" y="772" type="curve" smooth="yes"/>
      <point x="185" y="627" smooth="yes"/>
      <point x="135" y="384" smooth="yes"/>
      <point x="64" y="133" type="curve" smooth="yes"/>
      <point x="41" y="53"/>
      <point x="13" y="-23"/>
      <point x="-20" y="-53" type="curve"/>
      <point x="12" y="-78" smooth="yes"/>
      <point x="42" y="-85" smooth="yes"/>
      <point x="70" y="-85" type="curve" smooth="yes"/>
      <point x="129" y="-85" smooth="yes"/>
      <point x="162" y="-45" smooth="yes"/>
    </contour>
  </outline>
</glyph>
<glyph name="zero" format="1">
  <advance width="758"/>
  <unicode hex="0030"/>
  <outline>
    <contour>
      <point x="55" y="295" type="curve" name="hr00"/>
      <point x="55" y="538" smooth="yes"/>
      <point x="217" y="700" smooth="yes"/>
      <point x="452" y="700" type="curve" smooth="yes"/>
      <point x="478" y="700"/>
      <point x="515" y="694"/>
      <point x="533" y="685" type="curve"/>
      <point x="540" y="677"/>
      <point x="543" y="659"/>
      <point x="545" y="637" type="curve"/>
      <point x="657" y="610" smooth="yes"/>
      <point x="703" y="509" smooth="yes"/>
      <point x="703" y="380" type="curve" smooth="yes"/>
      <point x="703" y="137" smooth="yes"/>
      <point x="535" y="-25" smooth="yes"/>
      <point x="346" y="-25" type="curve" smooth="yes"/>
      <point x="161" y="-25" smooth="yes"/>
      <point x="55" y="107" smooth="yes"/>
    </contour>
    <contour>
      <point x="353" y="117" type="curve" smooth="yes"/>
      <point x="429" y="117" smooth="yes"/>
      <point x="499" y="247" smooth="yes"/>
      <point x="499" y="380" type="curve" smooth="yes"/>
      <point x="499" y="458" smooth="yes"/>
      <point x="475" y="524" smooth="yes"/>
      <point x="379" y="524" type="curve" smooth="yes"/>
      <point x="364" y="524"/>
      <point x="349" y="522"/>
      <point x="332" y="519" type="curve"/>
      <point x="277" y="448" smooth="yes"/>
      <point x="251" y="356" smooth="yes"/>
      <point x="251" y="280" type="curve" smooth="yes"/>
      <point x="251" y="188" smooth="yes"/>
      <point x="286" y="117" smooth="yes"/>
    </contour>
  </outline>
</glyph>
<glyph name="one" format="1">
  <advance width="569"/>
  <unicode hex="0031"/>
  <outline>
    <contour>
      <point x="180" y="145" type="curve" smooth="yes" name="hr00"/>
      <point x="180" y="46" smooth="yes"/>
      <point x="213" y="-25" smooth="yes"/>
      <point x="304" y="-25" type="curve" smooth="yes"/>
      <point x="345" y="-25"/>
      <point x="387" y="-13"/>
      <point x="432" y="12" type="curve"/>
      <point x="413" y="44" smooth="yes"/>
      <point x="403" y="87" smooth="yes"/>
      <point x="403" y="133" type="curve" smooth="yes"/>
      <point x="403" y="284" smooth="yes"/>
      <point x="481" y="511" smooth="yes"/>
      <point x="481" y="620" type="curve" smooth="yes"/>
      <point x="481" y="662" smooth="yes"/>
      <point x="466" y="700" smooth="yes"/>
      <point x="410" y="700" type="curve" smooth="yes"/>
      <point x="315" y="700"/>
      <point x="241" y="611"/>
      <point x="47" y="573" type="curve"/>
      <point x="61" y="459"/>
      <point x="140" y="417"/>
      <point x="222" y="417" type="curve"/>
      <point x="195" y="282" smooth="yes"/>
      <point x="180" y="209" smooth="yes"/>
    </contour>
  </outline>
</glyph>
<glyph name="two" format="1">
  <advance width="715"/>
  <unicode hex="0032"/>
  <outline>
    <contour>
      <point x="115" y="-19" type="curve" smooth="yes"/>
      <point x="148" y="-19"/>
      <point x="196" y="-5"/>
      <point x="244" y="32" type="curve"/>
      <point x="339" y="-2" smooth="yes"/>
      <point x="410" y="-25" smooth="yes"/>
      <point x="494" y="-25" type="curve" smooth="yes" name="hr01"/>
      <point x="581" y="-25" smooth="yes"/>
      <point x="654" y="23" smooth="yes"/>
      <point x="654" y="138" type="curve" smooth="yes"/>
      <point x="654" y="165"/>
      <point x="649" y="197"/>
      <point x="643" y="222" type="curve"/>
      <point x="526" y="177" type="line"/>
      <point x="488" y="177"/>
      <point x="446" y="182"/>
      <point x="391" y="191" type="curve"/>
      <point x="522" y="294" smooth="yes"/>
      <point x="628" y="405" smooth="yes"/>
      <point x="628" y="510" type="curve" smooth="yes"/>
      <point x="628" y="596" smooth="yes"/>
      <point x="562" y="700" smooth="yes"/>
      <point x="386" y="700" type="curve" smooth="yes"/>
      <point x="172" y="700" smooth="yes"/>
      <point x="93" y="600" smooth="yes"/>
      <point x="93" y="513" type="curve" smooth="yes"/>
      <point x="93" y="464"/>
      <point x="122" y="424"/>
      <point x="184" y="417" type="curve"/>
      <point x="222" y="525" smooth="yes"/>
      <point x="272" y="535" smooth="yes"/>
      <point x="308" y="535" type="curve" smooth="yes"/>
      <point x="356" y="535" smooth="yes"/>
      <point x="387" y="504" smooth="yes"/>
      <point x="387" y="459" type="curve" smooth="yes"/>
      <point x="387" y="396"/>
      <point x="323" y="325"/>
      <point x="218" y="236" type="curve"/>
      <point x="209" y="238" smooth="yes"/>
      <point x="192" y="241" smooth="yes"/>
      <point x="173" y="241" type="curve" smooth="yes"/>
      <point x="68" y="241" smooth="yes"/>
      <point x="12" y="164" smooth="yes"/>
      <point x="12" y="95" type="curve" smooth="yes"/>
      <point x="12" y="35" smooth="yes"/>
      <point x="47" y="-19" smooth="yes"/>
    </contour>
  </outline>
</glyph>
<glyph name="three" format="1">
  <advance width="653"/>
  <unicode hex="0033"/>
  <outline>
    <contour>
      <point x="-10" y="-42" type="curve" smooth="yes" name="hr00"/>
      <point x="-10" y="-115" smooth="yes"/>
      <point x="66" y="-156" smooth="yes"/>
      <point x="197" y="-156" type="curve" smooth="yes"/>
      <point x="435" y="-156" smooth="yes"/>
      <point x="583" y="-34" smooth="yes"/>
      <point x="583" y="103" type="curve" smooth="yes"/>
      <point x="583" y="183"/>
      <point x="540" y="242"/>
      <point x="454" y="283" type="curve"/>
      <point x="535" y="360" smooth="yes"/>
      <point x="582" y="440" smooth="yes"/>
      <point x="582" y="523" type="curve" smooth="yes"/>
      <point x="582" y="598" smooth="yes"/>
      <point x="534" y="700" smooth="yes"/>
      <point x="347" y="700" type="curve" smooth="yes"/>
      <point x="140" y="700" smooth="yes"/>
      <point x="59" y="600" smooth="yes"/>
      <point x="59" y="513" type="curve" smooth="yes"/>
      <point x="59" y="461"/>
      <point x="92" y="420"/>
      <point x="168" y="416" type="curve"/>
      <point x="194" y="507" smooth="yes"/>
      <point x="255" y="533" smooth="yes"/>
      <point x="284" y="533" type="curve" smooth="yes"/>
      <point x="343" y="533" smooth="yes"/>
      <point x="368" y="495" smooth="yes"/>
      <point x="368" y="450" type="curve" smooth="yes"/>
      <point x="368" y="407"/>
      <point x="346" y="359"/>
      <point x="310" y="331" type="curve"/>
      <point x="295" y="333" smooth="yes"/>
      <point x="281" y="333" smooth="yes"/>
      <point x="268" y="333" type="curve" smooth="yes"/>
      <point x="162" y="333" smooth="yes"/>
      <point x="118" y="286" smooth="yes"/>
      <point x="118" y="234" type="curve" smooth="yes"/>
      <point x="118" y="178" smooth="yes"/>
      <point x="154" y="160" smooth="yes"/>
      <point x="198" y="160" type="curve" smooth="yes"/>
      <point x="243" y="160"/>
      <point x="295" y="179"/>
      <point x="323" y="195" type="curve"/>
      <point x="349" y="170" smooth="yes"/>
      <point x="360" y="142" smooth="yes"/>
      <point x="360" y="114" type="curve" smooth="yes"/>
      <point x="360" y="49"/>
      <point x="298" y="-13"/>
      <point x="238" y="-29" type="curve"/>
      <point x="204" y="29" smooth="yes"/>
      <point x="149" y="56" smooth="yes"/>
      <point x="105" y="56" type="curve" smooth="yes"/>
      <point x="46" y="56" smooth="yes"/>
      <point x="-10" y="21" smooth="yes"/>
    </contour>
  </outline>
</glyph>
<glyph name="four" format="1">
  <advance width="707"/>
  <unicode hex="0034"/>
  <outline>
    <contour>
      <point x="364" y="-32" type="curve" smooth="yes"/>
      <point x="364" y="-106" smooth="yes"/>
      <point x="398" y="-170" smooth="yes"/>
      <point x="498" y="-170" type="curve" smooth="yes"/>
      <point x="540" y="-170"/>
      <point x="587" y="-157"/>
      <point x="632" y="-134" type="curve"/>
      <point x="616" y="-110" smooth="yes"/>
      <point x="608" y="-76" smooth="yes"/>
      <point x="608" y="-41" type="curve" smooth="yes"/>
      <point x="608" y="122" smooth="yes"/>
      <point x="677" y="299" smooth="yes"/>
      <point x="677" y="351" type="curve" smooth="yes"/>
      <point x="677" y="370" smooth="yes"/>
      <point x="672" y="377" smooth="yes"/>
      <point x="652" y="377" type="curve" smooth="yes"/>
      <point x="584" y="377"/>
      <point x="494" y="339"/>
      <point x="460" y="304" type="curve"/>
      <point x="437" y="257"/>
      <point x="412" y="193"/>
      <point x="394" y="130" type="curve"/>
      <point x="186" y="130" type="line"/>
      <point x="356" y="298" smooth="yes"/>
      <point x="445" y="442" smooth="yes"/>
      <point x="445" y="566" type="curve" smooth="yes" name="hr01"/>
      <point x="445" y="666" smooth="yes"/>
      <point x="390" y="700" smooth="yes"/>
      <point x="310" y="700" type="curve" smooth="yes"/>
      <point x="277" y="700"/>
      <point x="240" y="691"/>
      <point x="203" y="677" type="curve"/>
      <point x="208" y="663" smooth="yes"/>
      <point x="211" y="648" smooth="yes"/>
      <point x="211" y="630" type="curve" smooth="yes"/>
      <point x="211" y="467" smooth="yes"/>
      <point x="19" y="229" smooth="yes"/>
      <point x="19" y="115" type="curve" smooth="yes"/>
      <point x="19" y="25" smooth="yes"/>
      <point x="109" y="0" smooth="yes"/>
      <point x="205" y="0" type="curve" smooth="yes"/>
      <point x="257" y="0"/>
      <point x="322" y="7"/>
      <point x="368" y="16" type="curve"/>
      <point x="365" y="-1" smooth="yes"/>
      <point x="364" y="-18" smooth="yes"/>
    </contour>
  </outline>
</glyph>
<glyph name="five" format="1">
  <advance width="635"/>
  <unicode hex="0035"/>
  <outline>
    <contour>
      <point x="7" y="-42" type="curve" smooth="yes" name="hr00"/>
      <point x="7" y="-115" smooth="yes"/>
      <point x="83" y="-156" smooth="yes"/>
      <point x="210" y="-156" type="curve" smooth="yes"/>
      <point x="438" y="-156" smooth="yes"/>
      <point x="588" y="-34" smooth="yes"/>
      <point x="588" y="114" type="curve" smooth="yes"/>
      <point x="588" y="275"/>
      <point x="433" y="341"/>
      <point x="290" y="348" type="curve"/>
      <point x="301" y="462" type="line"/>
      <point x="383" y="457" smooth="yes"/>
      <point x="401" y="456" smooth="yes"/>
      <point x="409" y="456" type="curve" smooth="yes"/>
      <point x="546" y="456" smooth="yes"/>
      <point x="600" y="520" smooth="yes"/>
      <point x="600" y="628" type="curve" smooth="yes"/>
      <point x="600" y="644"/>
      <point x="599" y="668"/>
      <point x="594" y="693" type="curve"/>
      <point x="496" y="657"/>
      <point x="365" y="630"/>
      <point x="298" y="630" type="curve"/>
      <point x="269" y="679" smooth="yes"/>
      <point x="229" y="700" smooth="yes"/>
      <point x="188" y="700" type="curve" smooth="yes"/>
      <point x="129" y="700" smooth="yes"/>
      <point x="98" y="661" smooth="yes"/>
      <point x="98" y="617" type="curve" smooth="yes"/>
      <point x="98" y="584"/>
      <point x="111" y="554"/>
      <point x="135" y="527" type="curve"/>
      <point x="98" y="231" type="line"/>
      <point x="98" y="219"/>
      <point x="109" y="209"/>
      <point x="127" y="208" type="curve"/>
      <point x="159" y="215" smooth="yes"/>
      <point x="187" y="218" smooth="yes"/>
      <point x="209" y="218" type="curve" smooth="yes"/>
      <point x="311" y="218" smooth="yes"/>
      <point x="353" y="159" smooth="yes"/>
      <point x="353" y="99" type="curve" smooth="yes"/>
      <point x="353" y="43"/>
      <point x="309" y="-15"/>
      <point x="239" y="-26" type="curve"/>
      <point x="209" y="30" smooth="yes"/>
      <point x="160" y="56" smooth="yes"/>
      <point x="122" y="56" type="curve" smooth="yes"/>
      <point x="63" y="56" smooth="yes"/>
      <point x="7" y="21" smooth="yes"/>
    </contour>
  </outline>
</glyph>
<glyph name="six" format="1">
  <advance width="674"/>
  <unicode hex="0036"/>
  <outline>
    <contour>
      <point x="656" y="306" type="curve" smooth="yes" name="hr00"/>
      <point x="656" y="427" smooth="yes"/>
      <point x="569" y="519" smooth="yes"/>
      <point x="408" y="519" type="curve" smooth="yes"/>
      <point x="387" y="519"/>
      <point x="365" y="516"/>
      <point x="343" y="511" type="curve"/>
      <point x="416" y="624"/>
      <point x="511" y="684"/>
      <point x="638" y="727" type="curve"/>
      <point x="610" y="795" smooth="yes"/>
      <point x="575" y="827" smooth="yes"/>
      <point x="489" y="827" type="curve" smooth="yes"/>
      <point x="300" y="827" smooth="yes"/>
      <point x="37" y="557" smooth="yes"/>
      <point x="37" y="250" type="curve" smooth="yes"/>
      <point x="37" y="66" smooth="yes"/>
      <point x="142" y="-25" smooth="yes"/>
      <point x="288" y="-25" type="curve" smooth="yes"/>
      <point x="483" y="-25" smooth="yes"/>
      <point x="656" y="116" smooth="yes"/>
    </contour>
    <contour>
      <point x="327" y="108" type="curve" smooth="yes"/>
      <point x="267" y="108" smooth="yes"/>
      <point x="247" y="170" smooth="yes"/>
      <point x="247" y="230" type="curve" smooth="yes"/>
      <point x="247" y="342" smooth="yes"/>
      <point x="310" y="398" smooth="yes"/>
      <point x="354" y="398" type="curve" smooth="yes"/>
      <point x="415" y="398" smooth="yes"/>
      <point x="433" y="339" smooth="yes"/>
      <point x="433" y="283" type="curve" smooth="yes"/>
      <point x="433" y="164" smooth="yes"/>
      <point x="371" y="108" smooth="yes"/>
    </contour>
  </outline>
</glyph>
<glyph name="seven" format="1">
  <advance width="612"/>
  <unicode hex="0037"/>
  <outline>
    <contour>
      <point x="137" y="0" type="curve" smooth="yes" name="hr00"/>
      <point x="137" y="-87" smooth="yes"/>
      <point x="191" y="-121" smooth="yes"/>
      <point x="273" y="-121" type="curve" smooth="yes"/>
      <point x="307" y="-121"/>
      <point x="341" y="-115"/>
      <point x="380" y="-98" type="curve"/>
      <point x="372" y="-83" smooth="yes"/>
      <point x="371" y="-70" smooth="yes"/>
      <point x="371" y="-51" type="curve" smooth="yes"/>
      <point x="371" y="85"/>
      <point x="494" y="371"/>
      <point x="569" y="516" type="curve"/>
      <point x="610" y="541" smooth="yes"/>
      <point x="637" y="576" smooth="yes"/>
      <point x="637" y="626" type="curve" smooth="yes"/>
      <point x="637" y="670" smooth="yes"/>
      <point x="608" y="709" smooth="yes"/>
      <point x="552" y="709" type="curve" smooth="yes"/>
      <point x="513" y="709"/>
      <point x="475" y="688"/>
      <point x="446" y="639" type="curve"/>
      <point x="359" y="639"/>
      <point x="175" y="664"/>
      <point x="65" y="700" type="curve"/>
      <point x="62" y="677" smooth="yes"/>
      <point x="61" y="656" smooth="yes"/>
      <point x="61" y="637" type="curve" smooth="yes"/>
      <point x="61" y="528" smooth="yes"/>
      <point x="137" y="459" smooth="yes"/>
      <point x="272" y="459" type="curve" smooth="yes"/>
      <point x="299" y="459"/>
      <point x="330" y="460"/>
      <point x="363" y="462" type="curve"/>
      <point x="228" y="290" smooth="yes"/>
      <point x="137" y="113" smooth="yes"/>
    </contour>
  </outline>
</glyph>
<glyph name="eight" format="1">
  <advance width="675"/>
  <unicode hex="0038"/>
  <outline>
    <contour>
      <point x="51" y="164" type="curve" smooth="yes"/>
      <point x="51" y="88" smooth="yes"/>
      <point x="94" y="-26" smooth="yes"/>
      <point x="316" y="-26" type="curve" smooth="yes"/>
      <point x="504" y="-26" smooth="yes"/>
      <point x="648" y="62" smooth="yes"/>
      <point x="648" y="197" type="curve" smooth="yes"/>
      <point x="648" y="274"/>
      <point x="583" y="349"/>
      <point x="509" y="400" type="curve"/>
      <point x="579" y="443" smooth="yes"/>
      <point x="636" y="509" smooth="yes"/>
      <point x="636" y="587" type="curve" smooth="yes" name="hr01"/>
      <point x="636" y="661" smooth="yes"/>
      <point x="594" y="773" smooth="yes"/>
      <point x="386" y="773" type="curve" smooth="yes"/>
      <point x="209" y="773" smooth="yes"/>
      <point x="95" y="686" smooth="yes"/>
      <point x="95" y="556" type="curve" smooth="yes"/>
      <point x="95" y="482"/>
      <point x="150" y="428"/>
      <point x="203" y="378" type="curve"/>
      <point x="114" y="325" smooth="yes"/>
      <point x="51" y="247" smooth="yes"/>
    </contour>
    <contour>
      <point x="344" y="261" type="line" smooth="yes"/>
      <point x="393" y="220" smooth="yes"/>
      <point x="415" y="202" smooth="yes"/>
      <point x="415" y="165" type="curve" smooth="yes"/>
      <point x="415" y="119" smooth="yes"/>
      <point x="372" y="87" smooth="yes"/>
      <point x="326" y="87" type="curve" smooth="yes"/>
      <point x="268" y="87" smooth="yes"/>
      <point x="233" y="139" smooth="yes"/>
      <point x="233" y="196" type="curve" smooth="yes"/>
      <point x="233" y="236"/>
      <point x="250" y="279"/>
      <point x="287" y="308" type="curve"/>
    </contour>
    <contour>
      <point x="384" y="662" type="curve" smooth="yes"/>
      <point x="441" y="661" smooth="yes"/>
      <point x="465" y="617" smooth="yes"/>
      <point x="465" y="568" type="curve" smooth="yes" name="hr03"/>
      <point x="465" y="528"/>
      <point x="449" y="485"/>
      <point x="422" y="460" type="curve"/>
      <point x="340" y="531" type="line" smooth="yes"/>
      <point x="316" y="552" smooth="yes"/>
      <point x="306" y="573" smooth="yes"/>
      <point x="306" y="594" type="curve" smooth="yes"/>
      <point x="306" y="631" smooth="yes"/>
      <point x="341" y="662" smooth="yes"/>
    </contour>
  </outline>
</glyph>
<glyph name="nine" format="1">
  <advance width="746"/>
  <unicode hex="0039"/>
  <outline>
    <contour>
      <point x="62" y="378" type="curve" smooth="yes" name="hr00"/>
      <point x="62" y="276" smooth="yes"/>
      <point x="129" y="171" smooth="yes"/>
      <point x="290" y="171" type="curve" smooth="yes"/>
      <point x="319" y="171"/>
      <point x="351" y="174"/>
      <point x="386" y="182" type="curve"/>
      <point x="314" y="70"/>
      <point x="207" y="-8"/>
      <point x="81" y="-43" type="curve"/>
      <point x="99" y="-107" smooth="yes"/>
      <point x="143" y="-143" smooth="yes"/>
      <point x="229" y="-143" type="curve" smooth="yes"/>
      <point x="429" y="-143" smooth="yes"/>
      <point x="681" y="152" smooth="yes"/>
      <point x="681" y="457" type="curve" smooth="yes"/>
      <point x="681" y="618" smooth="yes"/>
      <point x="576" y="700" smooth="yes"/>
      <point x="429" y="700" type="curve" smooth="yes"/>
      <point x="235" y="700" smooth="yes"/>
      <point x="62" y="569" smooth="yes"/>
    </contour>
    <contour>
      <point x="391" y="576" type="curve" smooth="yes"/>
      <point x="451" y="576" smooth="yes"/>
      <point x="471" y="515" smooth="yes"/>
      <point x="471" y="455" type="curve" smooth="yes"/>
      <point x="471" y="343" smooth="yes"/>
      <point x="408" y="287" smooth="yes"/>
      <point x="364" y="287" type="curve" smooth="yes"/>
      <point x="303" y="287" smooth="yes"/>
      <point x="285" y="345" smooth="yes"/>
      <point x="285" y="402" type="curve" smooth="yes"/>
      <point x="285" y="520" smooth="yes"/>
      <point x="347" y="576" smooth="yes"/>
    </contour>
  </outline>
</glyph>
<glyph name="less" format="1">
  <advance width="733"/>
  <unicode hex="003C"/>
  <outline>
    <contour>
      <point x="610" y="502" type="curve" name="hr00"/>
      <point x="499" y="490"/>
      <point x="384" y="412"/>
      <point x="281" y="369" type="curve"/>
      <point x="404" y="302" smooth="yes"/>
      <point x="625" y="258" smooth="yes"/>
      <point x="625" y="214" type="curve" smooth="yes"/>
      <point x="625" y="170"/>
      <point x="568" y="114"/>
      <point x="523" y="91" type="curve"/>
      <point x="498" y="118" smooth="yes"/>
      <point x="451" y="146" smooth="yes"/>
      <point x="420" y="162" type="curve" smooth="yes"/>
      <point x="334" y="208" smooth="yes"/>
      <point x="246" y="244" smooth="yes"/>
      <point x="162" y="289" type="curve" smooth="yes"/>
      <point x="112" y="316"/>
      <point x="104" y="371"/>
      <point x="103" y="429" type="curve"/>
      <point x="241" y="438" smooth="yes"/>
      <point x="466" y="656" smooth="yes"/>
      <point x="537" y="656" type="curve" smooth="yes"/>
      <point x="578" y="656"/>
      <point x="610" y="573"/>
    </contour>
  </outline>
</glyph>
<glyph name="greater" format="1">
  <advance width="733"/>
  <unicode hex="003E"/>
  <outline>
    <contour>
      <point x="118" y="241" type="curve" name="hr00"/>
      <point x="229" y="253"/>
      <point x="344" y="331"/>
      <point x="447" y="374" type="curve"/>
      <point x="324" y="441" smooth="yes"/>
      <point x="103" y="485" smooth="yes"/>
      <point x="103" y="529" type="curve" smooth="yes"/>
      <point x="103" y="573"/>
      <point x="160" y="629"/>
      <point x="205" y="652" type="curve"/>
      <point x="230" y="625" smooth="yes"/>
      <point x="277" y="597" smooth="yes"/>
      <point x="308" y="581" type="curve" smooth="yes"/>
      <point x="394" y="535" smooth="yes"/>
      <point x="482" y="499" smooth="yes"/>
      <point x="566" y="454" type="curve" smooth="yes"/>
      <point x="616" y="427"/>
      <point x="624" y="372"/>
      <point x="625" y="314" type="curve"/>
      <point x="487" y="305" smooth="yes"/>
      <point x="262" y="87" smooth="yes"/>
      <point x="191" y="87" type="curve" smooth="yes"/>
      <point x="150" y="87"/>
      <point x="118" y="170"/>
    </contour>
  </outline>
</glyph>
<glyph name="question" format="1">
  <advance width="602"/>
  <unicode hex="003F"/>
  <outline>
    <contour>
      <point x="214" y="381" type="curve"/>
      <point x="214" y="312" smooth="yes"/>
      <point x="262" y="263" smooth="yes"/>
      <point x="328" y="263" type="curve" smooth="yes"/>
      <point x="443" y="263" smooth="yes"/>
      <point x="559" y="380" smooth="yes"/>
      <point x="559" y="549" type="curve" smooth="yes"/>
      <point x="559" y="661" smooth="yes"/>
      <point x="486" y="775" smooth="yes"/>
      <point x="291" y="775" type="curve" smooth="yes"/>
      <point x="126" y="775" smooth="yes"/>
      <point x="47" y="675" smooth="yes"/>
      <point x="47" y="589" type="curve" smooth="yes"/>
      <point x="47" y="536"/>
      <point x="79" y="489"/>
      <point x="144" y="482" type="curve"/>
      <point x="173" y="572" smooth="yes"/>
      <point x="221" y="600" smooth="yes"/>
      <point x="268" y="600" type="curve" smooth="yes"/>
      <point x="325" y="600" smooth="yes"/>
      <point x="345" y="560" smooth="yes"/>
      <point x="345" y="519" type="curve" smooth="yes"/>
      <point x="345" y="461"/>
      <point x="294" y="401"/>
    </contour>
    <contour>
      <point x="125" y="80" type="curve" smooth="yes"/>
      <point x="125" y="147" smooth="yes"/>
      <point x="181" y="207" smooth="yes"/>
      <point x="251" y="207" type="curve" smooth="yes"/>
      <point x="312" y="207" smooth="yes"/>
      <point x="358" y="161" smooth="yes"/>
      <point x="358" y="102" type="curve" smooth="yes" name="hr01"/>
      <point x="358" y="35" smooth="yes"/>
      <point x="302" y="-25" smooth="yes"/>
      <point x="232" y="-25" type="curve" smooth="yes"/>
      <point x="171" y="-25" smooth="yes"/>
      <point x="125" y="21" smooth="yes"/>
    </contour>
  </outline>
</glyph>
<glyph name="at" format="1">
  <advance width="1090"/>
  <unicode hex="0040"/>
  <outline>
    <contour>
      <point x="293" y="288" type="curve" smooth="yes" name="hr00"/>
      <point x="293" y="160" smooth="yes"/>
      <point x="361" y="100" smooth="yes"/>
      <point x="436" y="100" type="curve" smooth="yes"/>
      <point x="494" y="100"/>
      <point x="556" y="135"/>
      <point x="594" y="203" type="curve"/>
      <point x="602" y="199" type="line"/>
      <point x="610" y="135" smooth="yes"/>
      <point x="651" y="77" smooth="yes"/>
      <point x="743" y="77" type="curve" smooth="yes"/>
      <point x="947" y="77" smooth="yes"/>
      <point x="1050" y="252" smooth="yes"/>
      <point x="1050" y="420" type="curve" smooth="yes"/>
      <point x="1050" y="610" smooth="yes"/>
      <point x="900" y="800" smooth="yes"/>
      <point x="610" y="800" type="curve" smooth="yes"/>
      <point x="243" y="800" smooth="yes"/>
      <point x="60" y="518" smooth="yes"/>
      <point x="60" y="249" type="curve" smooth="yes"/>
      <point x="60" y="-104" smooth="yes"/>
      <point x="309" y="-235" smooth="yes"/>
      <point x="538" y="-235" type="curve" smooth="yes"/>
      <point x="745" y="-235" smooth="yes"/>
      <point x="937" y="-150" smooth="yes"/>
      <point x="937" y="-21" type="curve" smooth="yes"/>
      <point x="937" y="6"/>
      <point x="930" y="34"/>
      <point x="917" y="65" type="curve"/>
      <point x="814" y="-38" smooth="yes"/>
      <point x="682" y="-74" smooth="yes"/>
      <point x="558" y="-74" type="curve" smooth="yes"/>
      <point x="343" y="-74" smooth="yes"/>
      <point x="171" y="21" smooth="yes"/>
      <point x="171" y="288" type="curve" smooth="yes"/>
      <point x="171" y="494" smooth="yes"/>
      <point x="322" y="710" smooth="yes"/>
      <point x="593" y="710" type="curve" smooth="yes"/>
      <point x="860" y="710" smooth="yes"/>
      <point x="953" y="558" smooth="yes"/>
      <point x="953" y="413" type="curve" smooth="yes"/>
      <point x="953" y="278" smooth="yes"/>
      <point x="893" y="198" smooth="yes"/>
      <point x="816" y="198" type="curve" smooth="yes"/>
      <point x="778" y="198" smooth="yes"/>
      <point x="765" y="230" smooth="yes"/>
      <point x="765" y="278" type="curve" smooth="yes"/>
      <point x="765" y="380" smooth="yes"/>
      <point x="810" y="476" smooth="yes"/>
      <point x="810" y="544" type="curve" smooth="yes"/>
      <point x="810" y="579" smooth="yes"/>
      <point x="791" y="592" smooth="yes"/>
      <point x="759" y="592" type="curve" smooth="yes"/>
      <point x="720" y="592"/>
      <point x="678" y="578"/>
      <point x="651" y="560" type="curve"/>
      <point x="651" y="572"/>
      <point x="647" y="587"/>
      <point x="645" y="594" type="curve"/>
      <point x="624" y="600" smooth="yes"/>
      <point x="588" y="600" smooth="yes"/>
      <point x="569" y="600" type="curve" smooth="yes"/>
      <point x="380" y="600" smooth="yes"/>
      <point x="293" y="430" smooth="yes"/>
    </contour>
    <contour>
      <point x="603" y="287" type="curve"/>
      <point x="580" y="266" smooth="yes"/>
      <point x="555" y="261" smooth="yes"/>
      <point x="540" y="261" type="curve" smooth="yes"/>
      <point x="489" y="261" smooth="yes"/>
      <point x="464" y="300" smooth="yes"/>
      <point x="464" y="348" type="curve" smooth="yes"/>
      <point x="464" y="429"/>
      <point x="523" y="500"/>
      <point x="643" y="511" type="curve"/>
      <point x="622" y="434"/>
      <point x="609" y="345"/>
    </contour>
  </outline>
</glyph>
<glyph name="A" format="1">
  <advance width="729"/>
  <unicode hex="0041"/>
  <outline>
    <contour>
      <point x="-6" y="82" type="curve" smooth="yes" name="hr00"/>
      <point x="-6" y="17" smooth="yes"/>
      <point x="18" y="-26" smooth="yes"/>
      <point x="83" y="-26" type="curve" smooth="yes"/>
      <point x="124" y="-26"/>
      <point x="166" y="-10"/>
      <point x="215" y="21" type="curve"/>
      <point x="209" y="37" smooth="yes"/>
      <point x="207" y="52" smooth="yes"/>
      <point x="207" y="74" type="curve" smooth="yes"/>
      <point x="207" y="100"/>
      <point x="214" y="135"/>
      <point x="226" y="176" type="curve"/>
      <point x="430" y="176" type="line"/>
      <point x="446" y="63" smooth="yes"/>
      <point x="486" y="-26" smooth="yes"/>
      <point x="584" y="-26" type="curve" smooth="yes"/>
      <point x="641" y="-26"/>
      <point x="679" y="-11"/>
      <point x="724" y="17" type="curve"/>
      <point x="642" y="64" smooth="yes"/>
      <point x="627" y="202" smooth="yes"/>
      <point x="627" y="340" type="curve" smooth="yes"/>
      <point x="627" y="427" smooth="yes"/>
      <point x="635" y="502" smooth="yes"/>
      <point x="635" y="578" type="curve" smooth="yes"/>
      <point x="635" y="651" smooth="yes"/>
      <point x="625" y="725" smooth="yes"/>
      <point x="550" y="725" type="curve" smooth="yes"/>
      <point x="513" y="725"/>
      <point x="480" y="715"/>
      <point x="446" y="700" type="curve"/>
      <point x="433" y="715" smooth="yes"/>
      <point x="409" y="725" smooth="yes"/>
      <point x="374" y="725" type="curve" smooth="yes"/>
      <point x="282" y="725"/>
      <point x="222" y="693"/>
      <point x="162" y="652" type="curve"/>
      <point x="170" y="618"/>
      <point x="180" y="579"/>
      <point x="187" y="546" type="curve"/>
      <point x="131" y="419" smooth="yes"/>
      <point x="-6" y="204" smooth="yes"/>
    </contour>
    <contour>
      <point x="434" y="555" type="line"/>
      <point x="428" y="465"/>
      <point x="423" y="392"/>
      <point x="423" y="281" type="curve"/>
      <point x="268" y="281" type="line"/>
      <point x="305" y="365"/>
      <point x="356" y="466"/>
      <point x="402" y="555" type="curve"/>
    </contour>
  </outline>
</glyph>
<glyph name="B" format="1">
  <advance width="757"/>
  <unicode hex="0042"/>
  <outline>
    <contour>
      <point x="60" y="129" type="curve" smooth="yes"/>
      <point x="60" y="25" smooth="yes"/>
      <point x="92" y="-26" smooth="yes"/>
      <point x="182" y="-26" type="curve" smooth="yes"/>
      <point x="224" y="-26"/>
      <point x="263" y="-12"/>
      <point x="303" y="17" type="curve"/>
      <point x="338" y="-7" smooth="yes"/>
      <point x="389" y="-25" smooth="yes"/>
      <point x="464" y="-25" type="curve" smooth="yes" name="hr01"/>
      <point x="587" y="-25" smooth="yes"/>
      <point x="727" y="49" smooth="yes"/>
      <point x="727" y="189" type="curve" smooth="yes"/>
      <point x="727" y="305"/>
      <point x="653" y="353"/>
      <point x="567" y="368" type="curve"/>
      <point x="670" y="410" smooth="yes"/>
      <point x="724" y="482" smooth="yes"/>
      <point x="724" y="574" type="curve" smooth="yes"/>
      <point x="724" y="694" smooth="yes"/>
      <point x="629" y="725" smooth="yes"/>
      <point x="552" y="725" type="curve" smooth="yes"/>
      <point x="479" y="725"/>
      <point x="411" y="701"/>
      <point x="350" y="666" type="curve"/>
      <point x="343" y="700" smooth="yes"/>
      <point x="323" y="726" smooth="yes"/>
      <point x="276" y="726" type="curve" smooth="yes" name="hr02"/>
      <point x="205" y="726"/>
      <point x="132" y="693"/>
      <point x="70" y="653" type="curve"/>
      <point x="123" y="546" type="line"/>
      <point x="83" y="325" smooth="yes"/>
      <point x="60" y="196" smooth="yes"/>
    </contour>
    <contour>
      <point x="397" y="302" type="curve" smooth="yes"/>
      <point x="451" y="302" smooth="yes"/>
      <point x="496" y="277" smooth="yes"/>
      <point x="496" y="213" type="curve" smooth="yes"/>
      <point x="496" y="146" smooth="yes"/>
      <point x="443" y="115" smooth="yes"/>
      <point x="383" y="115" type="curve" smooth="yes"/>
      <point x="346" y="115"/>
      <point x="306" y="124"/>
      <point x="276" y="138" type="curve"/>
      <point x="276" y="164" type="line" smooth="yes"/>
      <point x="276" y="186"/>
      <point x="282" y="230"/>
      <point x="292" y="283" type="curve"/>
      <point x="325" y="294" smooth="yes"/>
      <point x="363" y="302" smooth="yes"/>
    </contour>
    <contour>
      <point x="431" y="593" type="curve" smooth="yes" name="hr03"/>
      <point x="482" y="593" smooth="yes"/>
      <point x="509" y="568" smooth="yes"/>
      <point x="509" y="518" type="curve" smooth="yes"/>
      <point x="509" y="424"/>
      <point x="407" y="385"/>
      <point x="310" y="378" type="curve"/>
      <point x="324" y="451"/>
      <point x="339" y="527"/>
      <point x="347" y="578" type="curve"/>
      <point x="374" y="587" smooth="yes"/>
      <point x="401" y="593" smooth="yes"/>
    </contour>
  </outline>
</glyph>
<glyph name="C" format="1">
  <advance width="683"/>
  <unicode hex="0043"/>
  <outline>
    <contour>
      <point x="30" y="307" type="curve" name="hr00"/>
      <point x="30" y="80" smooth="yes"/>
      <point x="161" y="-25" smooth="yes"/>
      <point x="333" y="-25" type="curve" smooth="yes"/>
      <point x="526" y="-25" smooth="yes"/>
      <point x="649" y="103" smooth="yes"/>
      <point x="649" y="204" type="curve" smooth="yes"/>
      <point x="649" y="280"/>
      <point x="582" y="289"/>
      <point x="461" y="289" type="curve"/>
      <point x="461" y="199" smooth="yes"/>
      <point x="403" y="129" smooth="yes"/>
      <point x="347" y="129" type="curve" smooth="yes"/>
      <point x="278" y="129" smooth="yes"/>
      <point x="248" y="203" smooth="yes"/>
      <point x="248" y="285" type="curve" smooth="yes"/>
      <point x="248" y="401"/>
      <point x="309" y="515"/>
      <point x="380" y="549" type="curve"/>
      <point x="414" y="492" smooth="yes"/>
      <point x="475" y="462" smooth="yes"/>
      <point x="534" y="462" type="curve" smooth="yes"/>
      <point x="607" y="462" smooth="yes"/>
      <point x="673" y="506" smooth="yes"/>
      <point x="673" y="592" type="curve" smooth="yes"/>
      <point x="673" y="679" smooth="yes"/>
      <point x="590" y="725" smooth="yes"/>
      <point x="482" y="725" type="curve" smooth="yes"/>
      <point x="188" y="725" smooth="yes"/>
      <point x="30" y="489" smooth="yes"/>
    </contour>
  </outline>
</glyph>
<glyph name="D" format="1">
  <advance width="776"/>
  <unicode hex="0044"/>
  <outline>
    <contour>
      <point x="60" y="163" type="curve" smooth="yes"/>
      <point x="60" y="37" smooth="yes"/>
      <point x="154" y="-25" smooth="yes"/>
      <point x="283" y="-25" type="curve" smooth="yes"/>
      <point x="613" y="-25" smooth="yes"/>
      <point x="776" y="220" smooth="yes"/>
      <point x="776" y="429" type="curve" smooth="yes"/>
      <point x="776" y="587" smooth="yes"/>
      <point x="684" y="724" smooth="yes"/>
      <point x="502" y="724" type="curve" smooth="yes"/>
      <point x="457" y="724"/>
      <point x="406" y="715"/>
      <point x="349" y="695" type="curve"/>
      <point x="336" y="713" smooth="yes"/>
      <point x="315" y="725" smooth="yes"/>
      <point x="283" y="725" type="curve" smooth="yes" name="hr01"/>
      <point x="207" y="725"/>
      <point x="141" y="695"/>
      <point x="67" y="653" type="curve"/>
      <point x="120" y="546" type="line"/>
      <point x="94" y="394" smooth="yes"/>
      <point x="60" y="239" smooth="yes"/>
    </contour>
    <contour>
      <point x="272" y="125" type="curve"/>
      <point x="289" y="246"/>
      <point x="332" y="486"/>
      <point x="347" y="592" type="curve"/>
      <point x="361" y="594" smooth="yes"/>
      <point x="375" y="596" smooth="yes"/>
      <point x="387" y="596" type="curve" smooth="yes" name="hr02"/>
      <point x="495" y="596" smooth="yes"/>
      <point x="550" y="513" smooth="yes"/>
      <point x="550" y="393" type="curve" smooth="yes"/>
      <point x="550" y="248" smooth="yes"/>
      <point x="471" y="121" smooth="yes"/>
      <point x="319" y="121" type="curve" smooth="yes"/>
      <point x="304" y="121"/>
      <point x="288" y="122"/>
    </contour>
  </outline>
</glyph>
<glyph name="E" format="1">
  <advance width="619"/>
  <unicode hex="0045"/>
  <outline>
    <contour>
      <point x="60" y="129" type="curve" smooth="yes"/>
      <point x="60" y="25" smooth="yes"/>
      <point x="92" y="-26" smooth="yes"/>
      <point x="182" y="-26" type="curve" smooth="yes"/>
      <point x="217" y="-26"/>
      <point x="249" y="-17"/>
      <point x="282" y="3" type="curve"/>
      <point x="317" y="-1" smooth="yes"/>
      <point x="345" y="-7" smooth="yes"/>
      <point x="370" y="-12" type="curve" smooth="yes"/>
      <point x="405" y="-19" smooth="yes"/>
      <point x="436" y="-25" smooth="yes"/>
      <point x="467" y="-25" type="curve" smooth="yes" name="hr01"/>
      <point x="555" y="-25" smooth="yes"/>
      <point x="597" y="56" smooth="yes"/>
      <point x="597" y="126" type="curve" smooth="yes"/>
      <point x="597" y="145"/>
      <point x="596" y="160"/>
      <point x="591" y="175" type="curve"/>
      <point x="539" y="156"/>
      <point x="487" y="143"/>
      <point x="438" y="136" type="curve"/>
      <point x="276" y="136" type="line"/>
      <point x="276" y="182"/>
      <point x="280" y="215"/>
      <point x="287" y="255" type="curve"/>
      <point x="309" y="250" smooth="yes"/>
      <point x="331" y="246" smooth="yes"/>
      <point x="357" y="246" type="curve" smooth="yes"/>
      <point x="416" y="246" smooth="yes"/>
      <point x="466" y="274" smooth="yes"/>
      <point x="466" y="338" type="curve" smooth="yes"/>
      <point x="466" y="348"/>
      <point x="466" y="369"/>
      <point x="461" y="386" type="curve"/>
      <point x="435" y="378"/>
      <point x="397" y="368"/>
      <point x="371" y="363" type="curve"/>
      <point x="349" y="363"/>
      <point x="329" y="366"/>
      <point x="308" y="370" type="curve"/>
      <point x="318" y="421"/>
      <point x="328" y="472"/>
      <point x="336" y="517" type="curve"/>
      <point x="373" y="501" smooth="yes"/>
      <point x="412" y="493" smooth="yes"/>
      <point x="448" y="493" type="curve" smooth="yes"/>
      <point x="552" y="493" smooth="yes"/>
      <point x="639" y="542" smooth="yes"/>
      <point x="639" y="656" type="curve" smooth="yes"/>
      <point x="639" y="675"/>
      <point x="637" y="696"/>
      <point x="631" y="721" type="curve"/>
      <point x="532" y="693"/>
      <point x="418" y="672"/>
      <point x="349" y="670" type="curve"/>
      <point x="341" y="702" smooth="yes"/>
      <point x="321" y="726" smooth="yes"/>
      <point x="276" y="726" type="curve" smooth="yes"/>
      <point x="205" y="726"/>
      <point x="132" y="693"/>
      <point x="70" y="653" type="curve"/>
      <point x="123" y="546" type="line"/>
      <point x="83" y="325" smooth="yes"/>
      <point x="60" y="196" smooth="yes"/>
    </contour>
  </outline>
</glyph>
<glyph name="F" format="1">
  <advance width="589"/>
  <unicode hex="0046"/>
  <outline>
    <contour>
      <point x="60" y="129" type="curve" smooth="yes" name="hr00"/>
      <point x="60" y="25" smooth="yes"/>
      <point x="92" y="-26" smooth="yes"/>
      <point x="182" y="-26" type="curve" smooth="yes"/>
      <point x="225" y="-26"/>
      <point x="265" y="-12"/>
      <point x="306" y="19" type="curve"/>
      <point x="286" y="51" smooth="yes"/>
      <point x="276" y="96" smooth="yes"/>
      <point x="276" y="164" type="curve" smooth="yes"/>
      <point x="276" y="182"/>
      <point x="280" y="215"/>
      <point x="287" y="255" type="curve"/>
      <point x="309" y="250" smooth="yes"/>
      <point x="331" y="246" smooth="yes"/>
      <point x="358" y="246" type="curve" smooth="yes"/>
      <point x="417" y="246" smooth="yes"/>
      <point x="467" y="274" smooth="yes"/>
      <point x="467" y="338" type="curve" smooth="yes"/>
      <point x="467" y="348"/>
      <point x="467" y="369"/>
      <point x="462" y="386" type="curve"/>
      <point x="436" y="378"/>
      <point x="398" y="368"/>
      <point x="372" y="363" type="curve"/>
      <point x="350" y="363"/>
      <point x="329" y="366"/>
      <point x="308" y="371" type="curve"/>
      <point x="319" y="429"/>
      <point x="332" y="490"/>
      <point x="340" y="539" type="curve"/>
      <point x="381" y="519" smooth="yes"/>
      <point x="418" y="508" smooth="yes"/>
      <point x="459" y="508" type="curve" smooth="yes"/>
      <point x="552" y="508" smooth="yes"/>
      <point x="629" y="556" smooth="yes"/>
      <point x="629" y="645" type="curve" smooth="yes"/>
      <point x="629" y="666"/>
      <point x="626" y="693"/>
      <point x="621" y="721" type="curve"/>
      <point x="522" y="693"/>
      <point x="416" y="672"/>
      <point x="349" y="670" type="curve"/>
      <point x="341" y="702" smooth="yes"/>
      <point x="321" y="726" smooth="yes"/>
      <point x="276" y="726" type="curve" smooth="yes"/>
      <point x="205" y="726"/>
      <point x="132" y="693"/>
      <point x="70" y="653" type="curve"/>
      <point x="123" y="546" type="line"/>
      <point x="83" y="325" smooth="yes"/>
      <point x="60" y="196" smooth="yes"/>
    </contour>
  </outline>
</glyph>
<glyph name="G" format="1">
  <advance width="722"/>
  <unicode hex="0047"/>
  <outline>
    <contour>
      <point x="559" y="-166" type="curve" smooth="yes" name="hr00"/>
      <point x="594" y="-166"/>
      <point x="637" y="-152"/>
      <point x="674" y="-125" type="curve"/>
      <point x="656" y="-105" smooth="yes"/>
      <point x="647" y="-72" smooth="yes"/>
      <point x="647" y="-34" type="curve" smooth="yes"/>
      <point x="647" y="79" smooth="yes"/>
      <point x="702" y="228" smooth="yes"/>
      <point x="702" y="287" type="curve" smooth="yes"/>
      <point x="702" y="334" smooth="yes"/>
      <point x="687" y="368" smooth="yes"/>
      <point x="630" y="368" type="curve" smooth="yes"/>
      <point x="564" y="368"/>
      <point x="494" y="335"/>
      <point x="437" y="297" type="curve"/>
      <point x="453" y="262"/>
      <point x="472" y="226"/>
      <point x="488" y="192" type="curve"/>
      <point x="452" y="146" smooth="yes"/>
      <point x="404" y="122" smooth="yes"/>
      <point x="362" y="122" type="curve" smooth="yes"/>
      <point x="301" y="122" smooth="yes"/>
      <point x="248" y="173" smooth="yes"/>
      <point x="248" y="285" type="curve" smooth="yes"/>
      <point x="248" y="401"/>
      <point x="309" y="515"/>
      <point x="380" y="549" type="curve"/>
      <point x="414" y="492" smooth="yes"/>
      <point x="475" y="462" smooth="yes"/>
      <point x="534" y="462" type="curve" smooth="yes"/>
      <point x="607" y="462" smooth="yes"/>
      <point x="673" y="506" smooth="yes"/>
      <point x="673" y="592" type="curve" smooth="yes"/>
      <point x="673" y="679" smooth="yes"/>
      <point x="590" y="725" smooth="yes"/>
      <point x="482" y="725" type="curve" smooth="yes"/>
      <point x="188" y="725" smooth="yes"/>
      <point x="30" y="489" smooth="yes"/>
      <point x="30" y="307" type="curve" smooth="yes"/>
      <point x="30" y="80" smooth="yes"/>
      <point x="161" y="-25" smooth="yes"/>
      <point x="333" y="-25" type="curve" smooth="yes"/>
      <point x="374" y="-25"/>
      <point x="411" y="-19"/>
      <point x="445" y="-9" type="curve"/>
      <point x="445" y="-104" smooth="yes"/>
      <point x="471" y="-166" smooth="yes"/>
    </contour>
  </outline>
</glyph>
<glyph name="H" format="1">
  <advance width="824"/>
  <unicode hex="0048"/>
  <outline>
    <contour>
      <point x="501" y="129" type="curve" smooth="yes" name="hr00"/>
      <point x="501" y="25" smooth="yes"/>
      <point x="533" y="-26" smooth="yes"/>
      <point x="623" y="-26" type="curve" smooth="yes"/>
      <point x="666" y="-26"/>
      <point x="706" y="-12"/>
      <point x="747" y="19" type="curve"/>
      <point x="727" y="51" smooth="yes"/>
      <point x="717" y="96" smooth="yes"/>
      <point x="717" y="164" type="curve" smooth="yes"/>
      <point x="717" y="238" smooth="yes"/>
      <point x="794" y="567" smooth="yes"/>
      <point x="794" y="632" type="curve" smooth="yes"/>
      <point x="794" y="682" smooth="yes"/>
      <point x="779" y="726" smooth="yes"/>
      <point x="717" y="726" type="curve" smooth="yes"/>
      <point x="646" y="726"/>
      <point x="573" y="693"/>
      <point x="511" y="653" type="curve"/>
      <point x="564" y="546" type="line"/>
      <point x="553" y="486"/>
      <point x="543" y="433"/>
      <point x="535" y="386" type="curve"/>
      <point x="311" y="386" type="line"/>
      <point x="331" y="490" smooth="yes"/>
      <point x="353" y="598" smooth="yes"/>
      <point x="353" y="632" type="curve" smooth="yes"/>
      <point x="353" y="682" smooth="yes"/>
      <point x="338" y="726" smooth="yes"/>
      <point x="276" y="726" type="curve" smooth="yes"/>
      <point x="205" y="726"/>
      <point x="132" y="693"/>
      <point x="70" y="653" type="curve"/>
      <point x="123" y="546" type="line"/>
      <point x="83" y="325" smooth="yes"/>
      <point x="60" y="196" smooth="yes"/>
      <point x="60" y="129" type="curve" smooth="yes"/>
      <point x="60" y="25" smooth="yes"/>
      <point x="92" y="-26" smooth="yes"/>
      <point x="182" y="-26" type="curve" smooth="yes"/>
      <point x="225" y="-26"/>
      <point x="265" y="-12"/>
      <point x="306" y="19" type="curve"/>
      <point x="286" y="51" smooth="yes"/>
      <point x="276" y="96" smooth="yes"/>
      <point x="276" y="164" type="curve" smooth="yes"/>
      <point x="276" y="183"/>
      <point x="281" y="221"/>
      <point x="289" y="267" type="curve"/>
      <point x="515" y="267" type="line"/>
      <point x="506" y="205" smooth="yes"/>
      <point x="501" y="160" smooth="yes"/>
    </contour>
  </outline>
</glyph>
<glyph name="I" format="1">
  <advance width="388"/>
  <unicode hex="0049"/>
  <outline>
    <contour>
      <point x="65" y="129" type="curve" smooth="yes" name="hr00"/>
      <point x="65" y="25" smooth="yes"/>
      <point x="97" y="-26" smooth="yes"/>
      <point x="187" y="-26" type="curve" smooth="yes"/>
      <point x="230" y="-26"/>
      <point x="270" y="-12"/>
      <point x="311" y="19" type="curve"/>
      <point x="291" y="51" smooth="yes"/>
      <point x="281" y="96" smooth="yes"/>
      <point x="281" y="164" type="curve" smooth="yes"/>
      <point x="281" y="238" smooth="yes"/>
      <point x="358" y="567" smooth="yes"/>
      <point x="358" y="632" type="curve" smooth="yes"/>
      <point x="358" y="682" smooth="yes"/>
      <point x="343" y="726" smooth="yes"/>
      <point x="281" y="726" type="curve" smooth="yes"/>
      <point x="210" y="726"/>
      <point x="137" y="693"/>
      <point x="75" y="653" type="curve"/>
      <point x="128" y="546" type="line"/>
      <point x="88" y="325" smooth="yes"/>
      <point x="65" y="196" smooth="yes"/>
    </contour>
  </outline>
</glyph>
<glyph name="J" format="1">
  <advance width="553"/>
  <unicode hex="004A"/>
  <outline>
    <contour>
      <point x="302" y="489" type="curve" name="hr00"/>
      <point x="268" y="365" smooth="yes"/>
      <point x="249" y="233" smooth="yes"/>
      <point x="249" y="228" type="curve" smooth="yes"/>
      <point x="249" y="193"/>
      <point x="258" y="158"/>
      <point x="276" y="108" type="curve"/>
      <point x="251" y="88" type="line"/>
      <point x="223" y="175" smooth="yes"/>
      <point x="166" y="212" smooth="yes"/>
      <point x="111" y="212" type="curve" smooth="yes"/>
      <point x="53" y="212" smooth="yes"/>
      <point x="0" y="167" smooth="yes"/>
      <point x="0" y="95" type="curve" smooth="yes"/>
      <point x="0" y="14" smooth="yes"/>
      <point x="80" y="-45" smooth="yes"/>
      <point x="193" y="-45" type="curve" smooth="yes"/>
      <point x="311" y="-45" smooth="yes"/>
      <point x="459" y="44" smooth="yes"/>
      <point x="485" y="260" type="curve" smooth="yes"/>
      <point x="520" y="547" type="line"/>
      <point x="538" y="567" smooth="yes"/>
      <point x="553" y="594" smooth="yes"/>
      <point x="553" y="629" type="curve" smooth="yes"/>
      <point x="553" y="679" smooth="yes"/>
      <point x="521" y="724" smooth="yes"/>
      <point x="460" y="724" type="curve" smooth="yes"/>
      <point x="419" y="724"/>
      <point x="382" y="704"/>
      <point x="355" y="657" type="curve"/>
      <point x="296" y="657"/>
      <point x="143" y="678"/>
      <point x="42" y="721" type="curve"/>
      <point x="36" y="688" smooth="yes"/>
      <point x="32" y="658" smooth="yes"/>
      <point x="32" y="636" type="curve" smooth="yes"/>
      <point x="32" y="517" smooth="yes"/>
      <point x="125" y="489" smooth="yes"/>
    </contour>
  </outline>
</glyph>
<glyph name="K" format="1">
  <advance width="720"/>
  <unicode hex="004B"/>
  <outline>
    <contour>
      <point x="60" y="129" type="curve" smooth="yes"/>
      <point x="60" y="25" smooth="yes"/>
      <point x="92" y="-26" smooth="yes"/>
      <point x="182" y="-26" type="curve" smooth="yes"/>
      <point x="225" y="-26"/>
      <point x="265" y="-12"/>
      <point x="306" y="19" type="curve"/>
      <point x="286" y="51" smooth="yes"/>
      <point x="276" y="96" smooth="yes"/>
      <point x="276" y="164" type="curve" smooth="yes"/>
      <point x="276" y="184"/>
      <point x="282" y="222"/>
      <point x="290" y="269" type="curve"/>
      <point x="352" y="302" type="line"/>
      <point x="410" y="139" type="line" smooth="yes"/>
      <point x="456" y="9" smooth="yes"/>
      <point x="506" y="-25" smooth="yes"/>
      <point x="593" y="-25" type="curve" smooth="yes" name="hr01"/>
      <point x="638" y="-25"/>
      <point x="707" y="1"/>
      <point x="736" y="30" type="curve"/>
      <point x="652" y="84"/>
      <point x="580" y="253"/>
      <point x="535" y="398" type="curve"/>
      <point x="679" y="481" smooth="yes"/>
      <point x="734" y="560" smooth="yes"/>
      <point x="734" y="625" type="curve" smooth="yes"/>
      <point x="734" y="685" smooth="yes"/>
      <point x="707" y="725" smooth="yes"/>
      <point x="636" y="725" type="curve" smooth="yes"/>
      <point x="592" y="725"/>
      <point x="545" y="710"/>
      <point x="496" y="680" type="curve"/>
      <point x="501" y="667" smooth="yes"/>
      <point x="504" y="652" smooth="yes"/>
      <point x="504" y="633" type="curve" smooth="yes"/>
      <point x="504" y="563" smooth="yes"/>
      <point x="438" y="492" smooth="yes"/>
      <point x="358" y="425" type="curve" smooth="yes"/>
      <point x="311" y="386" type="line"/>
      <point x="331" y="490" smooth="yes"/>
      <point x="353" y="598" smooth="yes"/>
      <point x="353" y="632" type="curve" smooth="yes"/>
      <point x="353" y="682" smooth="yes"/>
      <point x="338" y="726" smooth="yes"/>
      <point x="276" y="726" type="curve" smooth="yes" name="hr02"/>
      <point x="205" y="726"/>
      <point x="132" y="693"/>
      <point x="70" y="653" type="curve"/>
      <point x="123" y="546" type="line"/>
      <point x="83" y="325" smooth="yes"/>
      <point x="60" y="196" smooth="yes"/>
    </contour>
  </outline>
</glyph>
<glyph name="L" format="1">
  <advance width="549"/>
  <unicode hex="004C"/>
  <outline>
    <contour>
      <point x="60" y="129" type="curve" smooth="yes"/>
      <point x="60" y="25" smooth="yes"/>
      <point x="92" y="-26" smooth="yes"/>
      <point x="182" y="-26" type="curve" smooth="yes"/>
      <point x="212" y="-26"/>
      <point x="242" y="-19"/>
      <point x="271" y="-3" type="curve"/>
      <point x="317" y="-13" smooth="yes"/>
      <point x="356" y="-25" smooth="yes"/>
      <point x="413" y="-25" type="curve" smooth="yes" name="hr01"/>
      <point x="501" y="-25" smooth="yes"/>
      <point x="543" y="56" smooth="yes"/>
      <point x="543" y="126" type="curve" smooth="yes"/>
      <point x="543" y="145"/>
      <point x="542" y="160"/>
      <point x="537" y="175" type="curve"/>
      <point x="485" y="156"/>
      <point x="433" y="143"/>
      <point x="384" y="136" type="curve"/>
      <point x="276" y="136" type="line"/>
      <point x="276" y="238" smooth="yes"/>
      <point x="353" y="567" smooth="yes"/>
      <point x="353" y="632" type="curve" smooth="yes"/>
      <point x="353" y="682" smooth="yes"/>
      <point x="338" y="726" smooth="yes"/>
      <point x="276" y="726" type="curve" smooth="yes"/>
      <point x="205" y="726"/>
      <point x="132" y="693"/>
      <point x="70" y="653" type="curve"/>
      <point x="123" y="546" type="line"/>
      <point x="83" y="325" smooth="yes"/>
      <point x="60" y="196" smooth="yes"/>
    </contour>
  </outline>
</glyph>
<glyph name="M" format="1">
  <advance width="1036"/>
  <unicode hex="004D"/>
  <outline>
    <contour>
      <point x="710" y="129" type="curve" smooth="yes"/>
      <point x="710" y="25" smooth="yes"/>
      <point x="742" y="-26" smooth="yes"/>
      <point x="832" y="-26" type="curve" smooth="yes"/>
      <point x="875" y="-26"/>
      <point x="915" y="-12"/>
      <point x="956" y="19" type="curve"/>
      <point x="936" y="51" smooth="yes"/>
      <point x="926" y="96" smooth="yes"/>
      <point x="926" y="164" type="curve" smooth="yes"/>
      <point x="926" y="238" smooth="yes"/>
      <point x="1003" y="567" smooth="yes"/>
      <point x="1003" y="632" type="curve" smooth="yes"/>
      <point x="1003" y="682" smooth="yes"/>
      <point x="988" y="725" smooth="yes"/>
      <point x="926" y="725" type="curve" smooth="yes"/>
      <point x="699" y="725"/>
      <point x="576" y="520"/>
      <point x="512" y="335" type="curve"/>
      <point x="500" y="335" type="line"/>
      <point x="469" y="671" smooth="yes"/>
      <point x="403" y="726" smooth="yes"/>
      <point x="276" y="726" type="curve" smooth="yes" name="hr01"/>
      <point x="205" y="726"/>
      <point x="132" y="693"/>
      <point x="70" y="653" type="curve"/>
      <point x="123" y="546" type="line"/>
      <point x="83" y="325" smooth="yes"/>
      <point x="60" y="196" smooth="yes"/>
      <point x="60" y="129" type="curve" smooth="yes"/>
      <point x="60" y="25" smooth="yes"/>
      <point x="92" y="-26" smooth="yes"/>
      <point x="182" y="-26" type="curve" smooth="yes"/>
      <point x="225" y="-26"/>
      <point x="265" y="-12"/>
      <point x="306" y="19" type="curve"/>
      <point x="286" y="51" smooth="yes"/>
      <point x="276" y="96" smooth="yes"/>
      <point x="276" y="164" type="curve" smooth="yes"/>
      <point x="276" y="208"/>
      <point x="299" y="344"/>
      <point x="325" y="458" type="curve"/>
      <point x="341" y="458" type="line"/>
      <point x="363" y="99" smooth="yes"/>
      <point x="415" y="21" smooth="yes"/>
      <point x="478" y="21" type="curve" smooth="yes"/>
      <point x="516" y="21"/>
      <point x="558" y="36"/>
      <point x="591" y="67" type="curve"/>
      <point x="602" y="174"/>
      <point x="654" y="344"/>
      <point x="741" y="458" type="curve"/>
      <point x="757" y="458" type="line"/>
      <point x="727" y="290" smooth="yes"/>
      <point x="710" y="186" smooth="yes"/>
    </contour>
  </outline>
</glyph>
<glyph name="N" format="1">
  <advance width="870"/>
  <unicode hex="004E"/>
  <outline>
    <contour>
      <point x="578" y="157" type="line"/>
      <point x="430" y="440" smooth="yes"/>
      <point x="558" y="725" smooth="yes"/>
      <point x="271" y="725" type="curve" smooth="yes"/>
      <point x="200" y="725"/>
      <point x="127" y="693"/>
      <point x="65" y="653" type="curve"/>
      <point x="118" y="546" type="line"/>
      <point x="78" y="325" smooth="yes"/>
      <point x="55" y="196" smooth="yes"/>
      <point x="55" y="129" type="curve" smooth="yes"/>
      <point x="55" y="25" smooth="yes"/>
      <point x="87" y="-26" smooth="yes"/>
      <point x="177" y="-26" type="curve" smooth="yes"/>
      <point x="220" y="-26"/>
      <point x="260" y="-12"/>
      <point x="301" y="19" type="curve"/>
      <point x="281" y="51" smooth="yes"/>
      <point x="271" y="96" smooth="yes"/>
      <point x="271" y="164" type="curve" smooth="yes"/>
      <point x="271" y="206"/>
      <point x="292" y="328"/>
      <point x="317" y="441" type="curve"/>
      <point x="333" y="441" type="line"/>
      <point x="346" y="190" smooth="yes"/>
      <point x="407" y="-25" smooth="yes"/>
      <point x="616" y="-25" type="curve" smooth="yes" name="hr01"/>
      <point x="692" y="-25"/>
      <point x="732" y="-12"/>
      <point x="790" y="26" type="curve"/>
      <point x="769" y="57" smooth="yes"/>
      <point x="758" y="99" smooth="yes"/>
      <point x="758" y="168" type="curve" smooth="yes"/>
      <point x="758" y="228"/>
      <point x="819" y="527"/>
      <point x="850" y="706" type="curve"/>
      <point x="824" y="719" smooth="yes"/>
      <point x="787" y="725" smooth="yes"/>
      <point x="757" y="725" type="curve" smooth="yes"/>
      <point x="610" y="725" smooth="yes"/>
      <point x="537" y="592" smooth="yes"/>
      <point x="537" y="447" type="curve" smooth="yes"/>
      <point x="537" y="349"/>
      <point x="564" y="246"/>
      <point x="602" y="173" type="curve"/>
    </contour>
  </outline>
</glyph>
<glyph name="O" format="1">
  <advance width="774"/>
  <unicode hex="004F"/>
  <outline>
    <contour>
      <point x="25" y="306" type="curve" smooth="yes" name="hr00"/>
      <point x="25" y="111" smooth="yes"/>
      <point x="155" y="-25" smooth="yes"/>
      <point x="371" y="-25" type="curve" smooth="yes"/>
      <point x="567" y="-25" smooth="yes"/>
      <point x="759" y="135" smooth="yes"/>
      <point x="759" y="421" type="curve" smooth="yes"/>
      <point x="759" y="565" smooth="yes"/>
      <point x="685" y="632" smooth="yes"/>
      <point x="611" y="632" type="curve" smooth="yes"/>
      <point x="582" y="632"/>
      <point x="554" y="622"/>
      <point x="529" y="602" type="curve"/>
      <point x="530" y="612" smooth="yes"/>
      <point x="531" y="620" smooth="yes"/>
      <point x="531" y="629" type="curve" smooth="yes"/>
      <point x="531" y="692" smooth="yes"/>
      <point x="501" y="725" smooth="yes"/>
      <point x="421" y="725" type="curve" smooth="yes"/>
      <point x="173" y="725" smooth="yes"/>
      <point x="25" y="557" smooth="yes"/>
    </contour>
    <contour>
      <point x="460" y="432" type="curve" smooth="yes"/>
      <point x="460" y="375"/>
      <point x="477" y="316"/>
      <point x="524" y="259" type="curve"/>
      <point x="504" y="177" smooth="yes"/>
      <point x="444" y="121" smooth="yes"/>
      <point x="379" y="121" type="curve" smooth="yes"/>
      <point x="290" y="121" smooth="yes"/>
      <point x="243" y="207" smooth="yes"/>
      <point x="243" y="310" type="curve" smooth="yes"/>
      <point x="243" y="429" smooth="yes"/>
      <point x="314" y="575" smooth="yes"/>
      <point x="464" y="575" type="curve" smooth="yes"/>
      <point x="476" y="575"/>
      <point x="488" y="574"/>
      <point x="500" y="572" type="curve"/>
      <point x="476" y="539" smooth="yes"/>
      <point x="460" y="492" smooth="yes"/>
    </contour>
  </outline>
</glyph>
<glyph name="P" format="1">
  <advance width="717"/>
  <unicode hex="0050"/>
  <outline>
    <contour>
      <point x="282" y="219" type="curve"/>
      <point x="315" y="209" smooth="yes"/>
      <point x="349" y="205" smooth="yes"/>
      <point x="383" y="205" type="curve" smooth="yes"/>
      <point x="612" y="205" smooth="yes"/>
      <point x="717" y="360" smooth="yes"/>
      <point x="717" y="500" type="curve" smooth="yes"/>
      <point x="717" y="617" smooth="yes"/>
      <point x="645" y="724" smooth="yes"/>
      <point x="514" y="724" type="curve" smooth="yes"/>
      <point x="474" y="724"/>
      <point x="428" y="715"/>
      <point x="377" y="695" type="curve"/>
      <point x="360" y="710" smooth="yes"/>
      <point x="312" y="726" smooth="yes"/>
      <point x="276" y="726" type="curve" smooth="yes" name="hr01"/>
      <point x="205" y="726"/>
      <point x="132" y="693"/>
      <point x="70" y="653" type="curve"/>
      <point x="123" y="546" type="line"/>
      <point x="83" y="325" smooth="yes"/>
      <point x="60" y="196" smooth="yes"/>
      <point x="60" y="129" type="curve" smooth="yes"/>
      <point x="60" y="25" smooth="yes"/>
      <point x="92" y="-26" smooth="yes"/>
      <point x="182" y="-26" type="curve" smooth="yes"/>
      <point x="225" y="-26"/>
      <point x="265" y="-12"/>
      <point x="306" y="19" type="curve"/>
      <point x="286" y="51" smooth="yes"/>
      <point x="276" y="96" smooth="yes"/>
      <point x="276" y="164" type="curve" smooth="yes"/>
      <point x="276" y="176"/>
      <point x="278" y="195"/>
    </contour>
    <contour>
      <point x="301" y="333" type="curve"/>
      <point x="320" y="420"/>
      <point x="338" y="527"/>
      <point x="347" y="588" type="curve"/>
      <point x="363" y="593" smooth="yes"/>
      <point x="378" y="596" smooth="yes"/>
      <point x="393" y="596" type="curve" smooth="yes" name="hr02"/>
      <point x="461" y="596" smooth="yes"/>
      <point x="494" y="543" smooth="yes"/>
      <point x="494" y="486" type="curve" smooth="yes"/>
      <point x="494" y="396" smooth="yes"/>
      <point x="412" y="330" smooth="yes"/>
      <point x="330" y="330" type="curve" smooth="yes"/>
      <point x="320" y="330"/>
      <point x="310" y="331"/>
    </contour>
  </outline>
</glyph>
<glyph name="Q" format="1">
  <advance width="774"/>
  <unicode hex="0051"/>
  <outline>
    <contour>
      <point x="54" y="-85" type="curve" smooth="yes"/>
      <point x="54" y="-126" smooth="yes"/>
      <point x="82" y="-169" smooth="yes"/>
      <point x="137" y="-169" type="curve" smooth="yes"/>
      <point x="164" y="-169"/>
      <point x="219" y="-159"/>
      <point x="260" y="-104" type="curve"/>
      <point x="335" y="-147" smooth="yes"/>
      <point x="466" y="-209" smooth="yes"/>
      <point x="575" y="-209" type="curve" smooth="yes"/>
      <point x="675" y="-209" smooth="yes"/>
      <point x="720" y="-142" smooth="yes"/>
      <point x="720" y="-68" type="curve" smooth="yes"/>
      <point x="720" y="-46"/>
      <point x="717" y="-24"/>
      <point x="709" y="-2" type="curve"/>
      <point x="647" y="-25" smooth="yes"/>
      <point x="588" y="-32" smooth="yes"/>
      <point x="530" y="-32" type="curve" smooth="yes"/>
      <point x="410" y="-32" smooth="yes"/>
      <point x="285" y="14" smooth="yes"/>
      <point x="175" y="14" type="curve" smooth="yes"/>
      <point x="92" y="14" smooth="yes"/>
      <point x="54" y="-38" smooth="yes"/>
    </contour>
    <contour>
      <point x="175" y="-6" type="line"/>
      <point x="215" y="-6" type="line"/>
      <point x="215" y="41" type="line"/>
      <point x="175" y="41" type="line"/>
    </contour>
    <contour>
      <point x="415" y="-37" type="line"/>
      <point x="446" y="-37" type="line"/>
      <point x="446" y="-11" type="line" name="hr01"/>
      <point x="415" y="-11" type="line"/>
    </contour>
    <component  base="O"/>
  </outline>
</glyph>
<glyph name="R" format="1">
  <advance width="733"/>
  <unicode hex="0052"/>
  <outline>
    <contour>
      <point x="427" y="139" type="line" smooth="yes"/>
      <point x="472" y="8" smooth="yes"/>
      <point x="523" y="-25" smooth="yes"/>
      <point x="610" y="-25" type="curve" smooth="yes"/>
      <point x="656" y="-25"/>
      <point x="725" y="1"/>
      <point x="753" y="30" type="curve"/>
      <point x="696" y="61"/>
      <point x="636" y="165"/>
      <point x="592" y="290" type="curve"/>
      <point x="680" y="343" smooth="yes"/>
      <point x="722" y="431" smooth="yes"/>
      <point x="722" y="514" type="curve" smooth="yes"/>
      <point x="722" y="623" smooth="yes"/>
      <point x="651" y="725" smooth="yes"/>
      <point x="522" y="725" type="curve" smooth="yes"/>
      <point x="483" y="725"/>
      <point x="437" y="715"/>
      <point x="387" y="695" type="curve"/>
      <point x="362" y="714" smooth="yes"/>
      <point x="312" y="725" smooth="yes"/>
      <point x="276" y="725" type="curve" smooth="yes"/>
      <point x="205" y="725"/>
      <point x="132" y="693"/>
      <point x="70" y="653" type="curve"/>
      <point x="123" y="546" type="line"/>
      <point x="83" y="325" smooth="yes"/>
      <point x="60" y="196" smooth="yes"/>
      <point x="60" y="129" type="curve" smooth="yes"/>
      <point x="60" y="25" smooth="yes"/>
      <point x="92" y="-26" smooth="yes"/>
      <point x="182" y="-26" type="curve" smooth="yes" name="hr01"/>
      <point x="225" y="-26"/>
      <point x="265" y="-12"/>
      <point x="306" y="19" type="curve"/>
      <point x="286" y="51" smooth="yes"/>
      <point x="276" y="96" smooth="yes"/>
      <point x="276" y="164" type="curve" smooth="yes"/>
      <point x="276" y="182"/>
      <point x="280" y="215"/>
      <point x="287" y="256" type="curve"/>
      <point x="320" y="246"/>
      <point x="358" y="240"/>
      <point x="392" y="240" type="curve"/>
    </contour>
    <contour>
      <point x="331" y="365" type="curve" smooth="yes"/>
      <point x="322" y="365"/>
      <point x="315" y="365"/>
      <point x="308" y="366" type="curve"/>
      <point x="327" y="443"/>
      <point x="339" y="536"/>
      <point x="348" y="590" type="curve"/>
      <point x="363" y="594" smooth="yes"/>
      <point x="385" y="597" smooth="yes"/>
      <point x="400" y="597" type="curve" smooth="yes"/>
      <point x="467" y="597" smooth="yes"/>
      <point x="500" y="551" smooth="yes"/>
      <point x="500" y="500" type="curve" smooth="yes"/>
      <point x="500" y="437" smooth="yes"/>
      <point x="445" y="365" smooth="yes"/>
    </contour>
  </outline>
</glyph>
<glyph name="S" format="1">
  <advance width="688"/>
  <unicode hex="0053"/>
  <outline>
    <contour>
      <point x="414" y="725" type="curve" smooth="yes" name="hr00"/>
      <point x="296" y="725" smooth="yes"/>
      <point x="72" y="660" smooth="yes"/>
      <point x="72" y="469" type="curve" smooth="yes"/>
      <point x="72" y="340"/>
      <point x="185" y="236"/>
      <point x="412" y="206" type="curve"/>
      <point x="392" y="159" smooth="yes"/>
      <point x="345" y="138" smooth="yes"/>
      <point x="276" y="138" type="curve" smooth="yes"/>
      <point x="197" y="138"/>
      <point x="106" y="196"/>
      <point x="78" y="255" type="curve"/>
      <point x="46" y="212" smooth="yes"/>
      <point x="35" y="173" smooth="yes"/>
      <point x="35" y="133" type="curve" smooth="yes"/>
      <point x="35" y="47" smooth="yes"/>
      <point x="89" y="-25" smooth="yes"/>
      <point x="330" y="-25" type="curve" smooth="yes"/>
      <point x="510" y="-25" smooth="yes"/>
      <point x="651" y="55" smooth="yes"/>
      <point x="651" y="200" type="curve" smooth="yes"/>
      <point x="651" y="326"/>
      <point x="547" y="406"/>
      <point x="281" y="471" type="curve"/>
      <point x="294" y="525"/>
      <point x="347" y="559"/>
      <point x="394" y="559" type="curve"/>
      <point x="416" y="498" smooth="yes"/>
      <point x="480" y="462" smooth="yes"/>
      <point x="539" y="462" type="curve" smooth="yes"/>
      <point x="612" y="462" smooth="yes"/>
      <point x="678" y="506" smooth="yes"/>
      <point x="678" y="592" type="curve" smooth="yes"/>
      <point x="678" y="691" smooth="yes"/>
      <point x="583" y="725" smooth="yes"/>
    </contour>
  </outline>
</glyph>
<glyph name="T" format="1">
  <advance width="595"/>
  <unicode hex="0054"/>
  <outline>
    <contour>
      <point x="13" y="552" type="curve" smooth="yes" name="hr00"/>
      <point x="13" y="539"/>
      <point x="13" y="512"/>
      <point x="21" y="487" type="curve"/>
      <point x="69" y="499"/>
      <point x="165" y="515"/>
      <point x="211" y="521" type="curve"/>
      <point x="174" y="315" smooth="yes"/>
      <point x="153" y="193" smooth="yes"/>
      <point x="153" y="129" type="curve" smooth="yes"/>
      <point x="153" y="25" smooth="yes"/>
      <point x="185" y="-26" smooth="yes"/>
      <point x="275" y="-26" type="curve" smooth="yes"/>
      <point x="318" y="-26"/>
      <point x="358" y="-12"/>
      <point x="399" y="19" type="curve"/>
      <point x="379" y="51" smooth="yes"/>
      <point x="369" y="96" smooth="yes"/>
      <point x="369" y="164" type="curve" smooth="yes"/>
      <point x="369" y="212"/>
      <point x="401" y="366"/>
      <point x="424" y="487" type="curve"/>
      <point x="439" y="486" smooth="yes"/>
      <point x="455" y="485" smooth="yes"/>
      <point x="472" y="485" type="curve" smooth="yes"/>
      <point x="562" y="485" smooth="yes"/>
      <point x="637" y="534" smooth="yes"/>
      <point x="637" y="648" type="curve" smooth="yes"/>
      <point x="637" y="661"/>
      <point x="637" y="687"/>
      <point x="629" y="713" type="curve"/>
      <point x="583" y="699"/>
      <point x="516" y="683"/>
      <point x="467" y="674" type="curve"/>
      <point x="361" y="677" smooth="yes"/>
      <point x="264" y="715" smooth="yes"/>
      <point x="162" y="715" type="curve" smooth="yes"/>
      <point x="82" y="715" smooth="yes"/>
      <point x="13" y="666" smooth="yes"/>
    </contour>
  </outline>
</glyph>
<glyph name="U" format="1">
  <advance width="827"/>
  <unicode hex="0055"/>
  <outline>
    <contour>
      <point x="621" y="-26" type="curve" smooth="yes"/>
      <point x="664" y="-26"/>
      <point x="704" y="-12"/>
      <point x="745" y="19" type="curve"/>
      <point x="725" y="51" smooth="yes"/>
      <point x="715" y="96" smooth="yes"/>
      <point x="715" y="164" type="curve" smooth="yes"/>
      <point x="715" y="224"/>
      <point x="776" y="527"/>
      <point x="807" y="706" type="curve"/>
      <point x="779" y="721" smooth="yes"/>
      <point x="744" y="725" smooth="yes"/>
      <point x="714" y="725" type="curve" smooth="yes"/>
      <point x="567" y="725" smooth="yes"/>
      <point x="494" y="592" smooth="yes"/>
      <point x="494" y="447" type="curve" smooth="yes"/>
      <point x="494" y="405"/>
      <point x="501" y="362"/>
      <point x="515" y="321" type="curve"/>
      <point x="469" y="193" smooth="yes"/>
      <point x="388" y="130" smooth="yes"/>
      <point x="341" y="130" type="curve" smooth="yes"/>
      <point x="302" y="130" smooth="yes"/>
      <point x="287" y="159" smooth="yes"/>
      <point x="287" y="209" type="curve" smooth="yes"/>
      <point x="287" y="268" smooth="yes"/>
      <point x="354" y="581" smooth="yes"/>
      <point x="354" y="632" type="curve" smooth="yes"/>
      <point x="354" y="684" smooth="yes"/>
      <point x="340" y="725" smooth="yes"/>
      <point x="277" y="725" type="curve" smooth="yes"/>
      <point x="205" y="725"/>
      <point x="144" y="695"/>
      <point x="71" y="653" type="curve"/>
      <point x="124" y="546" type="line"/>
      <point x="98" y="394" smooth="yes"/>
      <point x="65" y="221" smooth="yes"/>
      <point x="65" y="145" type="curve" smooth="yes"/>
      <point x="65" y="38" smooth="yes"/>
      <point x="114" y="-25" smooth="yes"/>
      <point x="226" y="-25" type="curve" smooth="yes" name="hr01"/>
      <point x="338" y="-25"/>
      <point x="426" y="24"/>
      <point x="492" y="123" type="curve"/>
      <point x="502" y="120" type="line"/>
      <point x="501" y="111" smooth="yes"/>
      <point x="501" y="102" smooth="yes"/>
      <point x="501" y="94" type="curve" smooth="yes"/>
      <point x="501" y="10" smooth="yes"/>
      <point x="557" y="-26" smooth="yes"/>
    </contour>
  </outline>
</glyph>
<glyph name="V" format="1">
  <advance width="728"/>
  <unicode hex="0056"/>
  <outline>
    <contour>
      <point x="119" y="97" type="curve" smooth="yes" name="hr00"/>
      <point x="119" y="10" smooth="yes"/>
      <point x="169" y="-25" smooth="yes"/>
      <point x="304" y="-25" type="curve" smooth="yes"/>
      <point x="406" y="-25"/>
      <point x="510" y="17"/>
      <point x="567" y="63" type="curve"/>
      <point x="553" y="118" type="line"/>
      <point x="604" y="238" smooth="yes"/>
      <point x="738" y="488" smooth="yes"/>
      <point x="738" y="612" type="curve" smooth="yes"/>
      <point x="738" y="679" smooth="yes"/>
      <point x="711" y="725" smooth="yes"/>
      <point x="638" y="725" type="curve" smooth="yes"/>
      <point x="591" y="725"/>
      <point x="549" y="708"/>
      <point x="498" y="673" type="curve"/>
      <point x="504" y="659" smooth="yes"/>
      <point x="509" y="642" smooth="yes"/>
      <point x="509" y="619" type="curve" smooth="yes"/>
      <point x="509" y="515"/>
      <point x="421" y="290"/>
      <point x="359" y="158" type="curve"/>
      <point x="333" y="158" type="line"/>
      <point x="333" y="206" smooth="yes"/>
      <point x="336" y="265" smooth="yes"/>
      <point x="336" y="326" type="curve" smooth="yes"/>
      <point x="336" y="515" smooth="yes"/>
      <point x="318" y="725" smooth="yes"/>
      <point x="156" y="725" type="curve" smooth="yes"/>
      <point x="97" y="725"/>
      <point x="47" y="709"/>
      <point x="0" y="673" type="curve"/>
      <point x="107" y="600" smooth="yes"/>
      <point x="120" y="434" smooth="yes"/>
      <point x="120" y="281" type="curve" smooth="yes"/>
      <point x="120" y="231" smooth="yes"/>
      <point x="119" y="180" smooth="yes"/>
    </contour>
  </outline>
</glyph>
<glyph name="W" format="1">
  <advance width="1018"/>
  <unicode hex="0057"/>
  <outline>
    <contour>
      <point x="119" y="97" type="curve" smooth="yes" name="hr00"/>
      <point x="119" y="10" smooth="yes"/>
      <point x="169" y="-25" smooth="yes"/>
      <point x="304" y="-25" type="curve" smooth="yes"/>
      <point x="374" y="-25"/>
      <point x="431" y="-5"/>
      <point x="479" y="22" type="curve"/>
      <point x="502" y="-10" smooth="yes"/>
      <point x="549" y="-25" smooth="yes"/>
      <point x="636" y="-25" type="curve" smooth="yes"/>
      <point x="738" y="-25"/>
      <point x="805" y="10"/>
      <point x="857" y="63" type="curve"/>
      <point x="843" y="118" type="line"/>
      <point x="894" y="238" smooth="yes"/>
      <point x="1028" y="488" smooth="yes"/>
      <point x="1028" y="612" type="curve" smooth="yes"/>
      <point x="1028" y="679" smooth="yes"/>
      <point x="1001" y="725" smooth="yes"/>
      <point x="928" y="725" type="curve" smooth="yes"/>
      <point x="881" y="725"/>
      <point x="839" y="708"/>
      <point x="788" y="673" type="curve"/>
      <point x="794" y="659" smooth="yes"/>
      <point x="799" y="642" smooth="yes"/>
      <point x="799" y="619" type="curve" smooth="yes"/>
      <point x="799" y="515"/>
      <point x="711" y="290"/>
      <point x="649" y="158" type="curve"/>
      <point x="623" y="158" type="line"/>
      <point x="623" y="206"/>
      <point x="626" y="338"/>
      <point x="626" y="399" type="curve"/>
      <point x="653" y="477" smooth="yes"/>
      <point x="674" y="546" smooth="yes"/>
      <point x="674" y="598" type="curve" smooth="yes"/>
      <point x="674" y="661" smooth="yes"/>
      <point x="643" y="699" smooth="yes"/>
      <point x="554" y="699" type="curve" smooth="yes"/>
      <point x="495" y="699"/>
      <point x="458" y="681"/>
      <point x="411" y="645" type="curve"/>
      <point x="435" y="576"/>
      <point x="448" y="517"/>
      <point x="455" y="452" type="curve"/>
      <point x="432" y="351"/>
      <point x="396" y="238"/>
      <point x="359" y="158" type="curve"/>
      <point x="333" y="158" type="line"/>
      <point x="333" y="206" smooth="yes"/>
      <point x="336" y="265" smooth="yes"/>
      <point x="336" y="326" type="curve" smooth="yes"/>
      <point x="336" y="515" smooth="yes"/>
      <point x="318" y="725" smooth="yes"/>
      <point x="156" y="725" type="curve" smooth="yes"/>
      <point x="97" y="725"/>
      <point x="47" y="709"/>
      <point x="0" y="673" type="curve"/>
      <point x="107" y="600" smooth="yes"/>
      <point x="120" y="434" smooth="yes"/>
      <point x="120" y="281" type="curve" smooth="yes"/>
      <point x="120" y="231" smooth="yes"/>
      <point x="119" y="180" smooth="yes"/>
    </contour>
  </outline>
</glyph>
<glyph name="X" format="1">
  <advance width="749"/>
  <unicode hex="0058"/>
  <outline>
    <contour>
      <point x="564" y="-25" type="curve" smooth="yes" name="hr00"/>
      <point x="611" y="-25"/>
      <point x="675" y="-6"/>
      <point x="725" y="46" type="curve"/>
      <point x="662" y="67" smooth="yes"/>
      <point x="628" y="121" smooth="yes"/>
      <point x="603" y="169" type="curve" smooth="yes"/>
      <point x="516" y="331" type="line"/>
      <point x="683" y="453" smooth="yes"/>
      <point x="754" y="550" smooth="yes"/>
      <point x="754" y="631" type="curve" smooth="yes"/>
      <point x="754" y="679" smooth="yes"/>
      <point x="725" y="725" smooth="yes"/>
      <point x="650" y="725" type="curve" smooth="yes"/>
      <point x="603" y="725"/>
      <point x="553" y="708"/>
      <point x="501" y="673" type="curve"/>
      <point x="507" y="658" smooth="yes"/>
      <point x="511" y="641" smooth="yes"/>
      <point x="511" y="618" type="curve" smooth="yes"/>
      <point x="511" y="569"/>
      <point x="483" y="520"/>
      <point x="441" y="472" type="curve"/>
      <point x="400" y="550" type="line" smooth="yes"/>
      <point x="327" y="687" smooth="yes"/>
      <point x="290" y="725" smooth="yes"/>
      <point x="199" y="725" type="curve" smooth="yes"/>
      <point x="152" y="725"/>
      <point x="88" y="706"/>
      <point x="38" y="654" type="curve"/>
      <point x="101" y="633" smooth="yes"/>
      <point x="135" y="579" smooth="yes"/>
      <point x="160" y="531" type="curve" smooth="yes"/>
      <point x="249" y="363" type="line"/>
      <point x="85" y="243" smooth="yes"/>
      <point x="10" y="148" smooth="yes"/>
      <point x="10" y="69" type="curve" smooth="yes"/>
      <point x="10" y="21" smooth="yes"/>
      <point x="38" y="-25" smooth="yes"/>
      <point x="114" y="-25" type="curve" smooth="yes"/>
      <point x="161" y="-25"/>
      <point x="211" y="-8"/>
      <point x="262" y="27" type="curve"/>
      <point x="256" y="42" smooth="yes"/>
      <point x="253" y="59" smooth="yes"/>
      <point x="253" y="82" type="curve" smooth="yes"/>
      <point x="253" y="130"/>
      <point x="280" y="179"/>
      <point x="321" y="228" type="curve"/>
      <point x="363" y="150" type="line" smooth="yes"/>
      <point x="436" y="13" smooth="yes"/>
      <point x="473" y="-25" smooth="yes"/>
    </contour>
  </outline>
</glyph>
<glyph name="Y" format="1">
  <advance width="672"/>
  <unicode hex="0059"/>
  <outline>
    <contour>
      <point x="122" y="180" type="curve" smooth="yes" name="hr00"/>
      <point x="127" y="109" smooth="yes"/>
      <point x="167" y="84" smooth="yes"/>
      <point x="232" y="84" type="curve" smooth="yes"/>
      <point x="262" y="84"/>
      <point x="281" y="87"/>
      <point x="322" y="97" type="curve"/>
      <point x="299" y="33" smooth="yes"/>
      <point x="239" y="2" smooth="yes"/>
      <point x="178" y="2" type="curve" smooth="yes"/>
      <point x="125" y="2"/>
      <point x="71" y="25"/>
      <point x="41" y="69" type="curve"/>
      <point x="8" y="23" smooth="yes"/>
      <point x="-8" y="-23" smooth="yes"/>
      <point x="-8" y="-58" type="curve" smooth="yes"/>
      <point x="-8" y="-156" smooth="yes"/>
      <point x="89" y="-177" smooth="yes"/>
      <point x="154" y="-177" type="curve" smooth="yes"/>
      <point x="337" y="-177" smooth="yes"/>
      <point x="431" y="-71" smooth="yes"/>
      <point x="531" y="142" type="curve" smooth="yes"/>
      <point x="612" y="315" smooth="yes"/>
      <point x="682" y="530" smooth="yes"/>
      <point x="682" y="609" type="curve" smooth="yes"/>
      <point x="682" y="677" smooth="yes"/>
      <point x="651" y="725" smooth="yes"/>
      <point x="578" y="725" type="curve" smooth="yes"/>
      <point x="533" y="725"/>
      <point x="490" y="710"/>
      <point x="439" y="678" type="curve"/>
      <point x="447" y="662" smooth="yes"/>
      <point x="454" y="642" smooth="yes"/>
      <point x="454" y="613" type="curve" smooth="yes"/>
      <point x="454" y="513"/>
      <point x="398" y="323"/>
      <point x="350" y="209" type="curve"/>
      <point x="336" y="209" type="line"/>
      <point x="327" y="388" smooth="yes"/>
      <point x="345" y="725" smooth="yes"/>
      <point x="125" y="725" type="curve" smooth="yes"/>
      <point x="79" y="725"/>
      <point x="43" y="710"/>
      <point x="-10" y="678" type="curve"/>
      <point x="122" y="588" smooth="yes"/>
      <point x="112" y="339" smooth="yes"/>
    </contour>
  </outline>
</glyph>
<glyph name="Z" format="1">
  <advance width="674"/>
  <unicode hex="005A"/>
  <outline>
    <contour>
      <point x="-20" y="82" type="curve" smooth="yes"/>
      <point x="-20" y="19" smooth="yes"/>
      <point x="23" y="-20" smooth="yes"/>
      <point x="87" y="-20" type="curve" smooth="yes"/>
      <point x="126" y="-20"/>
      <point x="175" y="0"/>
      <point x="220" y="54" type="curve"/>
      <point x="310" y="-3" smooth="yes"/>
      <point x="397" y="-25" smooth="yes"/>
      <point x="480" y="-25" type="curve" smooth="yes" name="hr01"/>
      <point x="567" y="-25" smooth="yes"/>
      <point x="639" y="28" smooth="yes"/>
      <point x="639" y="152" type="curve" smooth="yes"/>
      <point x="639" y="178"/>
      <point x="637" y="204"/>
      <point x="631" y="231" type="curve"/>
      <point x="510" y="176" type="line"/>
      <point x="334" y="195" type="line"/>
      <point x="590" y="515" type="line"/>
      <point x="640" y="538" smooth="yes"/>
      <point x="674" y="572" smooth="yes"/>
      <point x="674" y="622" type="curve" smooth="yes"/>
      <point x="674" y="676" smooth="yes"/>
      <point x="640" y="724" smooth="yes"/>
      <point x="574" y="724" type="curve" smooth="yes"/>
      <point x="531" y="724"/>
      <point x="491" y="703"/>
      <point x="462" y="653" type="curve"/>
      <point x="401" y="653"/>
      <point x="185" y="678"/>
      <point x="79" y="721" type="curve"/>
      <point x="72" y="688" smooth="yes"/>
      <point x="69" y="658" smooth="yes"/>
      <point x="69" y="636" type="curve" smooth="yes"/>
      <point x="69" y="522"/>
      <point x="175" y="477"/>
      <point x="317" y="473" type="curve"/>
      <point x="125" y="217" type="line"/>
      <point x="28" y="217" smooth="yes"/>
      <point x="-20" y="146" smooth="yes"/>
    </contour>
  </outline>
</glyph>
<glyph name="bracketleft" format="1">
  <advance width="481"/>
  <unicode hex="005B"/>
  <outline>
    <contour>
      <point x="85" y="15" type="curve" smooth="yes" name="hr00"/>
      <point x="85" y="-157" smooth="yes"/>
      <point x="174" y="-157" smooth="yes"/>
      <point x="337" y="-157" type="curve" smooth="yes"/>
      <point x="388" y="-157" smooth="yes"/>
      <point x="405" y="-120" smooth="yes"/>
      <point x="405" y="-58" type="curve" smooth="yes"/>
      <point x="405" y="-48"/>
      <point x="402" y="-23"/>
      <point x="397" y="-6" type="curve"/>
      <point x="377" y="-15"/>
      <point x="306" y="-25"/>
      <point x="271" y="-25" type="curve"/>
      <point x="271" y="266"/>
      <point x="292" y="502"/>
      <point x="376" y="668" type="curve"/>
      <point x="411" y="668"/>
      <point x="486" y="658"/>
      <point x="506" y="649" type="curve"/>
      <point x="511" y="666" smooth="yes"/>
      <point x="511" y="691" smooth="yes"/>
      <point x="511" y="701" type="curve" smooth="yes"/>
      <point x="511" y="763" smooth="yes"/>
      <point x="497" y="800" smooth="yes"/>
      <point x="429" y="800" type="curve" smooth="yes"/>
      <point x="284" y="800" smooth="yes"/>
      <point x="207" y="782" smooth="yes"/>
      <point x="163" y="584" type="curve" smooth="yes"/>
      <point x="112" y="353" smooth="yes"/>
      <point x="85" y="187" smooth="yes"/>
    </contour>
  </outline>
</glyph>
<glyph name="backslash" format="1">
  <advance width="397"/>
  <unicode hex="005C"/>
  <outline>
    <contour>
      <point x="216" y="23" type="curve" smooth="yes" name="hr00"/>
      <point x="155" y="241" smooth="yes"/>
      <point x="123" y="383" smooth="yes"/>
      <point x="64" y="589" type="curve" smooth="yes"/>
      <point x="48" y="646"/>
      <point x="15" y="737"/>
      <point x="-20" y="789" type="curve"/>
      <point x="12" y="818" smooth="yes"/>
      <point x="51" y="836" smooth="yes"/>
      <point x="96" y="836" type="curve" smooth="yes"/>
      <point x="144" y="836" smooth="yes"/>
      <point x="166" y="809" smooth="yes"/>
      <point x="175" y="772" type="curve" smooth="yes"/>
      <point x="212" y="627" smooth="yes"/>
      <point x="262" y="384" smooth="yes"/>
      <point x="333" y="133" type="curve" smooth="yes"/>
      <point x="356" y="53"/>
      <point x="384" y="-23"/>
      <point x="417" y="-53" type="curve"/>
      <point x="385" y="-78" smooth="yes"/>
      <point x="355" y="-85" smooth="yes"/>
      <point x="327" y="-85" type="curve" smooth="yes"/>
      <point x="268" y="-85" smooth="yes"/>
      <point x="235" y="-45" smooth="yes"/>
    </contour>
  </outline>
</glyph>
<glyph name="bracketright" format="1">
  <advance width="481"/>
  <unicode hex="005D"/>
  <outline>
    <contour>
      <point x="396" y="628" type="curve" smooth="yes" name="hr00"/>
      <point x="396" y="800" smooth="yes"/>
      <point x="307" y="800" smooth="yes"/>
      <point x="144" y="800" type="curve" smooth="yes"/>
      <point x="93" y="800" smooth="yes"/>
      <point x="79" y="763" smooth="yes"/>
      <point x="79" y="701" type="curve" smooth="yes"/>
      <point x="79" y="691"/>
      <point x="79" y="666"/>
      <point x="84" y="649" type="curve"/>
      <point x="104" y="658"/>
      <point x="175" y="668"/>
      <point x="210" y="668" type="curve"/>
      <point x="210" y="377"/>
      <point x="189" y="141"/>
      <point x="105" y="-25" type="curve"/>
      <point x="70" y="-25"/>
      <point x="-5" y="-15"/>
      <point x="-25" y="-6" type="curve"/>
      <point x="-30" y="-23" smooth="yes"/>
      <point x="-30" y="-48" smooth="yes"/>
      <point x="-30" y="-58" type="curve" smooth="yes"/>
      <point x="-30" y="-120" smooth="yes"/>
      <point x="-16" y="-157" smooth="yes"/>
      <point x="52" y="-157" type="curve" smooth="yes"/>
      <point x="197" y="-157" smooth="yes"/>
      <point x="274" y="-139" smooth="yes"/>
      <point x="318" y="59" type="curve" smooth="yes"/>
      <point x="369" y="290" smooth="yes"/>
      <point x="396" y="456" smooth="yes"/>
    </contour>
  </outline>
</glyph>
<glyph name="asciicircum" format="1">
  <advance width="733"/>
  <unicode hex="005E"/>
  <outline>
    <contour>
      <point x="468" y="959" type="curve" name="hr00"/>
      <point x="399" y="959" smooth="yes"/>
      <point x="332" y="953" smooth="yes"/>
      <point x="294" y="892" type="curve" smooth="yes"/>
      <point x="240" y="808" smooth="yes"/>
      <point x="191" y="713" smooth="yes"/>
      <point x="144" y="634" type="curve" smooth="yes"/>
      <point x="124" y="601"/>
      <point x="89" y="550"/>
      <point x="58" y="528" type="curve"/>
      <point x="74" y="478" smooth="yes"/>
      <point x="136" y="407" smooth="yes"/>
      <point x="189" y="407" type="curve" smooth="yes"/>
      <point x="241" y="407"/>
      <point x="313" y="625"/>
      <point x="371" y="728" type="curve"/>
      <point x="407" y="643"/>
      <point x="465" y="521"/>
      <point x="465" y="423" type="curve"/>
      <point x="472" y="422" smooth="yes"/>
      <point x="480" y="422" smooth="yes"/>
      <point x="487" y="422" type="curve" smooth="yes"/>
      <point x="558" y="422" smooth="yes"/>
      <point x="655" y="463" smooth="yes"/>
      <point x="655" y="514" type="curve" smooth="yes"/>
      <point x="655" y="595" smooth="yes"/>
      <point x="467" y="808" smooth="yes"/>
      <point x="467" y="946" type="curve" smooth="yes"/>
      <point x="467" y="950"/>
      <point x="467" y="955"/>
    </contour>
  </outline>
</glyph>
<glyph name="underscore" format="1">
  <advance width="723"/>
  <unicode hex="005F"/>
  <outline>
    <contour>
      <point x="179" y="-25" type="curve"/>
      <point x="142" y="-25"/>
      <point x="87" y="-21"/>
      <point x="49" y="-6" type="curve" name="hr01"/>
      <point x="28" y="-38" smooth="yes"/>
      <point x="15" y="-81" smooth="yes"/>
      <point x="15" y="-124" type="curve" smooth="yes"/>
      <point x="15" y="-168" smooth="yes"/>
      <point x="35" y="-182" smooth="yes"/>
      <point x="59" y="-182" type="curve" smooth="yes"/>
      <point x="102" y="-182" smooth="yes"/>
      <point x="169" y="-177" smooth="yes"/>
      <point x="246" y="-172" type="curve" smooth="yes"/>
      <point x="347" y="-165" smooth="yes"/>
      <point x="467" y="-158" smooth="yes"/>
      <point x="565" y="-158" type="curve" smooth="yes" name="hr02"/>
      <point x="616" y="-158"/>
      <point x="660" y="-164"/>
      <point x="688" y="-176" type="curve"/>
      <point x="704" y="-149" smooth="yes"/>
      <point x="708" y="-121" smooth="yes"/>
      <point x="708" y="-95" type="curve" smooth="yes"/>
      <point x="708" y="-39" smooth="yes"/>
      <point x="677" y="-19" smooth="yes"/>
      <point x="624" y="-19" type="curve" smooth="yes"/>
      <point x="549" y="-19" smooth="yes"/>
      <point x="471" y="-20" smooth="yes"/>
      <point x="395" y="-22" type="curve" smooth="yes"/>
      <point x="321" y="-23" smooth="yes"/>
      <point x="248" y="-25" smooth="yes"/>
    </contour>
  </outline>
</glyph>
<glyph name="grave" format="1">
  <advance width="376"/>
  <unicode hex="0060"/>
  <outline>
    <contour>
      <point x="300" y="653" type="curve" name="hr00"/>
      <point x="214" y="653" smooth="yes"/>
      <point x="144" y="720" smooth="yes"/>
      <point x="53" y="720" type="curve" smooth="yes"/>
      <point x="46" y="720"/>
      <point x="37" y="719"/>
      <point x="30" y="718" type="curve"/>
      <point x="23" y="742" smooth="yes"/>
      <point x="20" y="768" smooth="yes"/>
      <point x="20" y="791" type="curve" smooth="yes"/>
      <point x="20" y="863" smooth="yes"/>
      <point x="46" y="886" smooth="yes"/>
      <point x="76" y="886" type="curve" smooth="yes"/>
      <point x="164" y="886"/>
      <point x="251" y="754"/>
      <point x="356" y="729" type="curve"/>
      <point x="352" y="673" smooth="yes"/>
      <point x="327" y="653" smooth="yes"/>
    </contour>
  </outline>
</glyph>
<glyph name="a" format="1">
  <advance width="736"/>
  <unicode hex="0061"/>
  <outline>
    <contour>
      <point x="427" y="123" type="line" name="hr00"/>
      <point x="427" y="22" smooth="yes"/>
      <point x="463" y="-25" smooth="yes"/>
      <point x="540" y="-25" type="curve" smooth="yes"/>
      <point x="581" y="-25"/>
      <point x="621" y="-9"/>
      <point x="659" y="24" type="curve"/>
      <point x="639" y="41" smooth="yes"/>
      <point x="628" y="73" smooth="yes"/>
      <point x="628" y="115" type="curve" smooth="yes"/>
      <point x="628" y="243" smooth="yes"/>
      <point x="691" y="426" smooth="yes"/>
      <point x="691" y="496" type="curve" smooth="yes"/>
      <point x="691" y="547" smooth="yes"/>
      <point x="665" y="575" smooth="yes"/>
      <point x="618" y="575" type="curve" smooth="yes"/>
      <point x="586" y="575"/>
      <point x="546" y="563"/>
      <point x="515" y="543" type="curve"/>
      <point x="514" y="558"/>
      <point x="512" y="572"/>
      <point x="508" y="592" type="curve"/>
      <point x="481" y="598" smooth="yes"/>
      <point x="461" y="600" smooth="yes"/>
      <point x="429" y="600" type="curve" smooth="yes"/>
      <point x="208" y="600" smooth="yes"/>
      <point x="40" y="432" smooth="yes"/>
      <point x="40" y="210" type="curve" smooth="yes"/>
      <point x="40" y="68" smooth="yes"/>
      <point x="114" y="-25" smooth="yes"/>
      <point x="227" y="-25" type="curve" smooth="yes"/>
      <point x="310" y="-25"/>
      <point x="381" y="32"/>
      <point x="417" y="128" type="curve"/>
    </contour>
    <contour>
      <point x="228" y="259" type="curve" smooth="yes"/>
      <point x="228" y="387"/>
      <point x="348" y="501"/>
      <point x="483" y="501" type="curve"/>
      <point x="460" y="395"/>
      <point x="451" y="340"/>
      <point x="444" y="262" type="curve"/>
      <point x="411" y="197" smooth="yes"/>
      <point x="358" y="157" smooth="yes"/>
      <point x="306" y="157" type="curve" smooth="yes"/>
      <point x="257" y="157" smooth="yes"/>
      <point x="228" y="194" smooth="yes"/>
    </contour>
  </outline>
</glyph>
<glyph name="b" format="1">
  <advance width="739"/>
  <unicode hex="0062"/>
  <outline>
    <contour>
      <point x="66" y="190" type="curve" name="hr00"/>
      <point x="66" y="41" smooth="yes"/>
      <point x="142" y="-25" smooth="yes"/>
      <point x="291" y="-25" type="curve" smooth="yes"/>
      <point x="470" y="-25" smooth="yes"/>
      <point x="694" y="106" smooth="yes"/>
      <point x="694" y="360" type="curve" smooth="yes"/>
      <point x="694" y="485" smooth="yes"/>
      <point x="636" y="591" smooth="yes"/>
      <point x="528" y="591" type="curve" smooth="yes"/>
      <point x="433" y="591"/>
      <point x="366" y="543"/>
      <point x="318" y="448" type="curve"/>
      <point x="308" y="453" type="line"/>
      <point x="327" y="544" smooth="yes"/>
      <point x="347" y="652" smooth="yes"/>
      <point x="347" y="704" type="curve" smooth="yes"/>
      <point x="347" y="754" smooth="yes"/>
      <point x="321" y="775" smooth="yes"/>
      <point x="264" y="775" type="curve" smooth="yes"/>
      <point x="203" y="775"/>
      <point x="144" y="743"/>
      <point x="75" y="702" type="curve"/>
      <point x="131" y="622" type="line"/>
      <point x="95" y="429" smooth="yes"/>
      <point x="66" y="253" smooth="yes"/>
    </contour>
    <contour>
      <point x="264" y="91" type="curve"/>
      <point x="264" y="163" smooth="yes"/>
      <point x="283" y="450" smooth="yes"/>
      <point x="433" y="450" type="curve" smooth="yes"/>
      <point x="481" y="450" smooth="yes"/>
      <point x="514" y="391" smooth="yes"/>
      <point x="514" y="337" type="curve" smooth="yes"/>
      <point x="514" y="220"/>
      <point x="420" y="91"/>
    </contour>
  </outline>
</glyph>
<glyph name="c" format="1">
  <advance width="638"/>
  <unicode hex="0063"/>
  <outline>
    <contour>
      <point x="45" y="238" type="curve" smooth="yes" name="hr00"/>
      <point x="45" y="82" smooth="yes"/>
      <point x="153" y="-25" smooth="yes"/>
      <point x="328" y="-25" type="curve" smooth="yes"/>
      <point x="487" y="-25" smooth="yes"/>
      <point x="588" y="65" smooth="yes"/>
      <point x="588" y="137" type="curve" smooth="yes"/>
      <point x="588" y="189"/>
      <point x="533" y="206"/>
      <point x="442" y="206" type="curve"/>
      <point x="442" y="128" smooth="yes"/>
      <point x="397" y="95" smooth="yes"/>
      <point x="352" y="95" type="curve" smooth="yes"/>
      <point x="286" y="95" smooth="yes"/>
      <point x="253" y="160" smooth="yes"/>
      <point x="253" y="239" type="curve" smooth="yes"/>
      <point x="253" y="326"/>
      <point x="300" y="430"/>
      <point x="389" y="467" type="curve"/>
      <point x="415" y="411" smooth="yes"/>
      <point x="465" y="385" smooth="yes"/>
      <point x="505" y="385" type="curve" smooth="yes"/>
      <point x="563" y="385" smooth="yes"/>
      <point x="618" y="419" smooth="yes"/>
      <point x="618" y="483" type="curve" smooth="yes"/>
      <point x="618" y="550" smooth="yes"/>
      <point x="550" y="600" smooth="yes"/>
      <point x="432" y="600" type="curve" smooth="yes"/>
      <point x="212" y="600" smooth="yes"/>
      <point x="45" y="454" smooth="yes"/>
    </contour>
  </outline>
</glyph>
<glyph name="d" format="1">
  <advance width="748"/>
  <unicode hex="0064"/>
  <outline>
    <contour>
      <point x="432" y="73" type="line" name="hr00"/>
      <point x="432" y="33" smooth="yes"/>
      <point x="461" y="-25" smooth="yes"/>
      <point x="546" y="-25" type="curve" smooth="yes"/>
      <point x="587" y="-25"/>
      <point x="627" y="-9"/>
      <point x="665" y="24" type="curve"/>
      <point x="644" y="43" smooth="yes"/>
      <point x="634" y="79" smooth="yes"/>
      <point x="634" y="142" type="curve" smooth="yes"/>
      <point x="634" y="304" smooth="yes"/>
      <point x="723" y="587" smooth="yes"/>
      <point x="723" y="704" type="curve" smooth="yes"/>
      <point x="723" y="754" smooth="yes"/>
      <point x="704" y="775" smooth="yes"/>
      <point x="648" y="775" type="curve" smooth="yes"/>
      <point x="584" y="775"/>
      <point x="521" y="743"/>
      <point x="451" y="702" type="curve"/>
      <point x="507" y="622" type="line"/>
      <point x="505" y="613"/>
      <point x="499" y="580"/>
      <point x="498" y="571" type="curve"/>
      <point x="475" y="573" smooth="yes"/>
      <point x="455" y="575" smooth="yes"/>
      <point x="434" y="575" type="curve" smooth="yes"/>
      <point x="168" y="575" smooth="yes"/>
      <point x="45" y="376" smooth="yes"/>
      <point x="45" y="210" type="curve" smooth="yes"/>
      <point x="45" y="60" smooth="yes"/>
      <point x="134" y="-25" smooth="yes"/>
      <point x="236" y="-25" type="curve" smooth="yes"/>
      <point x="300" y="-25"/>
      <point x="368" y="7"/>
      <point x="422" y="78" type="curve"/>
    </contour>
    <contour>
      <point x="233" y="248" type="curve" smooth="yes"/>
      <point x="233" y="358"/>
      <point x="321" y="487"/>
      <point x="485" y="487" type="curve"/>
      <point x="463" y="387"/>
      <point x="449" y="277"/>
      <point x="440" y="179" type="curve"/>
      <point x="408" y="142" smooth="yes"/>
      <point x="370" y="125" smooth="yes"/>
      <point x="336" y="125" type="curve" smooth="yes"/>
      <point x="280" y="125" smooth="yes"/>
      <point x="233" y="169" smooth="yes"/>
    </contour>
  </outline>
</glyph>
<glyph name="e" format="1">
  <advance width="657"/>
  <unicode hex="0065"/>
  <outline>
    <contour>
      <point x="331" y="-25" type="curve" smooth="yes"/>
      <point x="491" y="-25" smooth="yes"/>
      <point x="588" y="65" smooth="yes"/>
      <point x="588" y="137" type="curve" smooth="yes"/>
      <point x="588" y="189"/>
      <point x="533" y="206"/>
      <point x="442" y="206" type="curve"/>
      <point x="442" y="119" smooth="yes"/>
      <point x="388" y="95" smooth="yes"/>
      <point x="348" y="95" type="curve" smooth="yes"/>
      <point x="294" y="95"/>
      <point x="256" y="146"/>
      <point x="252" y="232" type="curve"/>
      <point x="521" y="233" smooth="yes"/>
      <point x="622" y="336" smooth="yes"/>
      <point x="622" y="449" type="curve" smooth="yes" name="hr01"/>
      <point x="622" y="536" smooth="yes"/>
      <point x="562" y="600" smooth="yes"/>
      <point x="433" y="600" type="curve" smooth="yes"/>
      <point x="214" y="600" smooth="yes"/>
      <point x="45" y="455" smooth="yes"/>
      <point x="45" y="238" type="curve" smooth="yes"/>
      <point x="45" y="81" smooth="yes"/>
      <point x="144" y="-25" smooth="yes"/>
    </contour>
    <contour>
      <point x="416" y="483" type="curve" smooth="yes"/>
      <point x="445" y="483" smooth="yes"/>
      <point x="462" y="463" smooth="yes"/>
      <point x="462" y="437" type="curve" smooth="yes"/>
      <point x="462" y="390"/>
      <point x="407" y="323"/>
      <point x="261" y="312" type="curve"/>
      <point x="284" y="396" smooth="yes"/>
      <point x="344" y="483" smooth="yes"/>
    </contour>
  </outline>
</glyph>
<glyph name="f" format="1">
  <advance width="432"/>
  <unicode hex="0066"/>
  <outline>
    <contour>
      <point x="55" y="317" type="curve" name="hr00"/>
      <point x="78" y="324"/>
      <point x="101" y="329"/>
      <point x="125" y="334" type="curve"/>
      <point x="88" y="143" smooth="yes"/>
      <point x="63" y="-12" smooth="yes"/>
      <point x="63" y="-62" type="curve" smooth="yes"/>
      <point x="63" y="-142" smooth="yes"/>
      <point x="93" y="-210" smooth="yes"/>
      <point x="175" y="-210" type="curve" smooth="yes"/>
      <point x="215" y="-210"/>
      <point x="256" y="-194"/>
      <point x="305" y="-161" type="curve"/>
      <point x="284" y="-143" smooth="yes"/>
      <point x="274" y="-110" smooth="yes"/>
      <point x="274" y="-70" type="curve" smooth="yes"/>
      <point x="274" y="32"/>
      <point x="315" y="244"/>
      <point x="338" y="350" type="curve"/>
      <point x="387" y="361" smooth="yes"/>
      <point x="410" y="403" smooth="yes"/>
      <point x="410" y="451" type="curve" smooth="yes"/>
      <point x="410" y="466"/>
      <point x="408" y="482"/>
      <point x="403" y="498" type="curve"/>
      <point x="367" y="485"/>
      <point x="332" y="476"/>
      <point x="297" y="471" type="curve"/>
      <point x="262" y="590" type="line"/>
      <point x="276" y="601" type="line"/>
      <point x="302" y="585" smooth="yes"/>
      <point x="331" y="577" smooth="yes"/>
      <point x="359" y="577" type="curve" smooth="yes"/>
      <point x="438" y="577" smooth="yes"/>
      <point x="477" y="630" smooth="yes"/>
      <point x="477" y="685" type="curve" smooth="yes"/>
      <point x="477" y="741" smooth="yes"/>
      <point x="435" y="798" smooth="yes"/>
      <point x="355" y="798" type="curve" smooth="yes"/>
      <point x="209" y="798" smooth="yes"/>
      <point x="137" y="665" smooth="yes"/>
      <point x="137" y="529" type="curve" smooth="yes"/>
      <point x="137" y="506"/>
      <point x="139" y="483"/>
      <point x="144" y="461" type="curve"/>
      <point x="92" y="460" smooth="yes"/>
      <point x="48" y="430" smooth="yes"/>
      <point x="48" y="362" type="curve" smooth="yes"/>
      <point x="48" y="352"/>
      <point x="50" y="333"/>
    </contour>
  </outline>
</glyph>
<glyph name="g" format="1">
  <advance width="729"/>
  <unicode hex="0067"/>
  <outline>
    <contour>
      <point x="239" y="280" type="curve" smooth="yes" name="hr00"/>
      <point x="239" y="396"/>
      <point x="329" y="501"/>
      <point x="484" y="501" type="curve"/>
      <point x="471" y="410"/>
      <point x="456" y="306"/>
      <point x="440" y="220" type="curve"/>
      <point x="409" y="183" smooth="yes"/>
      <point x="371" y="166" smooth="yes"/>
      <point x="338" y="166" type="curve" smooth="yes"/>
      <point x="284" y="166" smooth="yes"/>
      <point x="239" y="210" smooth="yes"/>
    </contour>
    <contour>
      <point x="230" y="-235" type="curve" smooth="yes"/>
      <point x="585" y="-235" smooth="yes"/>
      <point x="679" y="251" smooth="yes"/>
      <point x="679" y="500" type="curve" smooth="yes"/>
      <point x="679" y="550" smooth="yes"/>
      <point x="659" y="575" smooth="yes"/>
      <point x="610" y="575" type="curve" smooth="yes"/>
      <point x="580" y="575"/>
      <point x="547" y="565"/>
      <point x="515" y="543" type="curve"/>
      <point x="514" y="562"/>
      <point x="511" y="578"/>
      <point x="508" y="592" type="curve"/>
      <point x="478" y="598" smooth="yes"/>
      <point x="455" y="600" smooth="yes"/>
      <point x="429" y="600" type="curve" smooth="yes"/>
      <point x="163" y="600" smooth="yes"/>
      <point x="50" y="410" smooth="yes"/>
      <point x="50" y="252" type="curve" smooth="yes"/>
      <point x="50" y="110" smooth="yes"/>
      <point x="117" y="14" smooth="yes"/>
      <point x="230" y="14" type="curve" smooth="yes"/>
      <point x="293" y="14"/>
      <point x="362" y="45"/>
      <point x="412" y="118" type="curve"/>
      <point x="422" y="113" type="line"/>
      <point x="398" y="-29" smooth="yes"/>
      <point x="314" y="-89" smooth="yes"/>
      <point x="242" y="-89" type="curve" smooth="yes"/>
      <point x="178" y="-89"/>
      <point x="134" y="-65"/>
      <point x="104" y="-21" type="curve"/>
      <point x="75" y="-60" smooth="yes"/>
      <point x="63" y="-95" smooth="yes"/>
      <point x="63" y="-124" type="curve" smooth="yes"/>
      <point x="63" y="-195" smooth="yes"/>
      <point x="137" y="-235" smooth="yes"/>
    </contour>
  </outline>
</glyph>
<glyph name="h" format="1">
  <advance width="773"/>
  <unicode hex="0068"/>
  <outline>
    <contour>
      <point x="607" y="600" type="curve"/>
      <point x="509" y="600"/>
      <point x="413" y="551"/>
      <point x="335" y="417" type="curve"/>
      <point x="325" y="422" type="line"/>
      <point x="336" y="459" smooth="yes"/>
      <point x="365" y="595" smooth="yes"/>
      <point x="365" y="704" type="curve" smooth="yes"/>
      <point x="365" y="754" smooth="yes"/>
      <point x="346" y="775" smooth="yes"/>
      <point x="290" y="775" type="curve" smooth="yes"/>
      <point x="226" y="775"/>
      <point x="163" y="743"/>
      <point x="93" y="702" type="curve"/>
      <point x="149" y="622" type="line"/>
      <point x="123" y="475" smooth="yes"/>
      <point x="70" y="199" smooth="yes"/>
      <point x="70" y="99" type="curve" smooth="yes"/>
      <point x="70" y="19" smooth="yes"/>
      <point x="103" y="-25" smooth="yes"/>
      <point x="187" y="-25" type="curve" smooth="yes"/>
      <point x="224" y="-25"/>
      <point x="261" y="-9"/>
      <point x="297" y="24" type="curve"/>
      <point x="284" y="42" smooth="yes"/>
      <point x="276" y="75" smooth="yes"/>
      <point x="276" y="115" type="curve" smooth="yes"/>
      <point x="276" y="309" smooth="yes"/>
      <point x="417" y="443" smooth="yes"/>
      <point x="489" y="443" type="curve" smooth="yes"/>
      <point x="514" y="443" smooth="yes"/>
      <point x="523" y="426" smooth="yes"/>
      <point x="523" y="398" type="curve" smooth="yes"/>
      <point x="523" y="327" smooth="yes"/>
      <point x="463" y="187" smooth="yes"/>
      <point x="463" y="99" type="curve" smooth="yes" name="hr01"/>
      <point x="463" y="19" smooth="yes"/>
      <point x="496" y="-25" smooth="yes"/>
      <point x="580" y="-25" type="curve" smooth="yes"/>
      <point x="617" y="-25"/>
      <point x="654" y="-9"/>
      <point x="690" y="24" type="curve"/>
      <point x="677" y="42" smooth="yes"/>
      <point x="669" y="75" smooth="yes"/>
      <point x="669" y="115" type="curve" smooth="yes"/>
      <point x="669" y="239" smooth="yes"/>
      <point x="728" y="371" smooth="yes"/>
      <point x="728" y="479" type="curve" smooth="yes" name="hr02"/>
      <point x="728" y="562" smooth="yes"/>
      <point x="688" y="600" smooth="yes"/>
    </contour>
  </outline>
</glyph>
<glyph name="i" format="1">
  <advance width="388"/>
  <unicode hex="0069"/>
  <outline>
    <contour>
      <point x="243" y="665" type="curve"/>
      <point x="314" y="665" smooth="yes"/>
      <point x="378" y="704" smooth="yes"/>
      <point x="378" y="763" type="curve" smooth="yes"/>
      <point x="378" y="809" smooth="yes"/>
      <point x="333" y="837" smooth="yes"/>
      <point x="272" y="837" type="curve" smooth="yes"/>
      <point x="215" y="837" smooth="yes"/>
      <point x="137" y="805" smooth="yes"/>
      <point x="137" y="739" type="curve" smooth="yes"/>
      <point x="137" y="693" smooth="yes"/>
      <point x="182" y="665" smooth="yes"/>
    </contour>
    <contour>
      <point x="65" y="99" type="curve" name="hr01"/>
      <point x="65" y="19" smooth="yes"/>
      <point x="98" y="-25" smooth="yes"/>
      <point x="183" y="-25" type="curve" smooth="yes"/>
      <point x="223" y="-25"/>
      <point x="264" y="-9"/>
      <point x="302" y="24" type="curve"/>
      <point x="281" y="42" smooth="yes"/>
      <point x="271" y="75" smooth="yes"/>
      <point x="271" y="115" type="curve" smooth="yes"/>
      <point x="271" y="243" smooth="yes"/>
      <point x="345" y="476" smooth="yes"/>
      <point x="345" y="526" type="curve" smooth="yes" name="hr02"/>
      <point x="345" y="577" smooth="yes"/>
      <point x="326" y="600" smooth="yes"/>
      <point x="270" y="600" type="curve" smooth="yes"/>
      <point x="206" y="600"/>
      <point x="143" y="567"/>
      <point x="73" y="525" type="curve"/>
      <point x="129" y="441" type="line"/>
      <point x="102" y="324" smooth="yes"/>
      <point x="65" y="158" smooth="yes"/>
    </contour>
  </outline>
</glyph>
<glyph name="j" format="1">
  <advance width="392"/>
  <unicode hex="006A"/>
  <outline>
    <contour>
      <point x="240" y="665" type="curve" smooth="yes" name="hr00"/>
      <point x="311" y="665" smooth="yes"/>
      <point x="375" y="704" smooth="yes"/>
      <point x="375" y="763" type="curve" smooth="yes"/>
      <point x="375" y="809" smooth="yes"/>
      <point x="330" y="837" smooth="yes"/>
      <point x="269" y="837" type="curve" smooth="yes"/>
      <point x="212" y="837" smooth="yes"/>
      <point x="134" y="805" smooth="yes"/>
      <point x="134" y="739" type="curve" smooth="yes"/>
      <point x="134" y="693" smooth="yes"/>
      <point x="179" y="665" smooth="yes"/>
    </contour>
    <contour>
      <point x="342" y="526" type="curve" smooth="yes"/>
      <point x="342" y="577" smooth="yes"/>
      <point x="323" y="600" smooth="yes"/>
      <point x="267" y="600" type="curve" smooth="yes"/>
      <point x="203" y="600"/>
      <point x="140" y="567"/>
      <point x="70" y="525" type="curve"/>
      <point x="126" y="441" type="line"/>
      <point x="103" y="316" smooth="yes"/>
      <point x="70" y="134" smooth="yes"/>
      <point x="70" y="105" type="curve" smooth="yes"/>
      <point x="70" y="50"/>
      <point x="82" y="25"/>
      <point x="139" y="-34" type="curve"/>
      <point x="129" y="-48" type="line"/>
      <point x="107" y="-33" smooth="yes"/>
      <point x="81" y="-15" smooth="yes"/>
      <point x="43" y="-15" type="curve" smooth="yes"/>
      <point x="-24" y="-15" smooth="yes"/>
      <point x="-68" y="-52" smooth="yes"/>
      <point x="-68" y="-113" type="curve" smooth="yes"/>
      <point x="-68" y="-165" smooth="yes"/>
      <point x="-32" y="-210" smooth="yes"/>
      <point x="51" y="-210" type="curve" smooth="yes"/>
      <point x="170" y="-210" smooth="yes"/>
      <point x="235" y="-87" smooth="yes"/>
      <point x="260" y="37" type="curve" smooth="yes"/>
      <point x="295" y="210" smooth="yes"/>
      <point x="342" y="465" smooth="yes"/>
    </contour>
  </outline>
</glyph>
<glyph name="k" format="1">
  <advance width="724"/>
  <unicode hex="006B"/>
  <outline>
    <contour>
      <point x="65" y="129" type="curve" smooth="yes" name="hr00"/>
      <point x="65" y="25" smooth="yes"/>
      <point x="97" y="-25" smooth="yes"/>
      <point x="178" y="-25" type="curve" smooth="yes"/>
      <point x="216" y="-25"/>
      <point x="255" y="-9"/>
      <point x="302" y="24" type="curve"/>
      <point x="281" y="48" smooth="yes"/>
      <point x="271" y="90" smooth="yes"/>
      <point x="271" y="142" type="curve" smooth="yes"/>
      <point x="271" y="152"/>
      <point x="271" y="164"/>
      <point x="272" y="175" type="curve"/>
      <point x="375" y="226" type="line"/>
      <point x="400" y="155" type="line" smooth="yes"/>
      <point x="444" y="27" smooth="yes"/>
      <point x="497" y="-25" smooth="yes"/>
      <point x="580" y="-25" type="curve" smooth="yes"/>
      <point x="623" y="-25"/>
      <point x="677" y="-12"/>
      <point x="704" y="16" type="curve"/>
      <point x="661" y="38"/>
      <point x="585" y="167"/>
      <point x="542" y="308" type="curve"/>
      <point x="618" y="351" smooth="yes"/>
      <point x="700" y="421" smooth="yes"/>
      <point x="700" y="504" type="curve" smooth="yes"/>
      <point x="700" y="561" smooth="yes"/>
      <point x="664" y="600" smooth="yes"/>
      <point x="608" y="600" type="curve" smooth="yes"/>
      <point x="566" y="600"/>
      <point x="522" y="586"/>
      <point x="474" y="557" type="curve"/>
      <point x="479" y="544" smooth="yes"/>
      <point x="482" y="530" smooth="yes"/>
      <point x="482" y="511" type="curve" smooth="yes"/>
      <point x="482" y="446" smooth="yes"/>
      <point x="419" y="401" smooth="yes"/>
      <point x="348" y="338" type="curve" smooth="yes"/>
      <point x="285" y="282" type="line"/>
      <point x="310" y="435" smooth="yes"/>
      <point x="360" y="616" smooth="yes"/>
      <point x="360" y="704" type="curve" smooth="yes"/>
      <point x="360" y="754" smooth="yes"/>
      <point x="341" y="775" smooth="yes"/>
      <point x="285" y="775" type="curve" smooth="yes"/>
      <point x="221" y="775"/>
      <point x="158" y="743"/>
      <point x="88" y="702" type="curve"/>
      <point x="144" y="622" type="line"/>
      <point x="118" y="475" smooth="yes"/>
      <point x="65" y="203" smooth="yes"/>
    </contour>
  </outline>
</glyph>
<glyph name="l" format="1">
  <advance width="385"/>
  <unicode hex="006C"/>
  <outline>
    <contour>
      <point x="70" y="129" type="curve" name="hr00"/>
      <point x="70" y="25" smooth="yes"/>
      <point x="102" y="-25" smooth="yes"/>
      <point x="183" y="-25" type="curve" smooth="yes"/>
      <point x="221" y="-25"/>
      <point x="260" y="-9"/>
      <point x="307" y="24" type="curve"/>
      <point x="286" y="48" smooth="yes"/>
      <point x="276" y="90" smooth="yes"/>
      <point x="276" y="142" type="curve" smooth="yes"/>
      <point x="276" y="304" smooth="yes"/>
      <point x="365" y="587" smooth="yes"/>
      <point x="365" y="704" type="curve" smooth="yes"/>
      <point x="365" y="754" smooth="yes"/>
      <point x="346" y="775" smooth="yes"/>
      <point x="290" y="775" type="curve" smooth="yes"/>
      <point x="226" y="775"/>
      <point x="163" y="743"/>
      <point x="93" y="702" type="curve"/>
      <point x="149" y="622" type="line"/>
      <point x="123" y="475" smooth="yes"/>
      <point x="70" y="203" smooth="yes"/>
    </contour>
  </outline>
</glyph>
<glyph name="m" format="1">
  <advance width="1131"/>
  <unicode hex="006D"/>
  <outline>
    <contour>
      <point x="693" y="422" type="line"/>
      <point x="700" y="447" smooth="yes"/>
      <point x="703" y="469" smooth="yes"/>
      <point x="703" y="488" type="curve" smooth="yes"/>
      <point x="703" y="566" smooth="yes"/>
      <point x="653" y="600" smooth="yes"/>
      <point x="582" y="600" type="curve" smooth="yes"/>
      <point x="484" y="600"/>
      <point x="398" y="551"/>
      <point x="320" y="417" type="curve"/>
      <point x="310" y="422" type="line"/>
      <point x="322" y="449" smooth="yes"/>
      <point x="333" y="489" smooth="yes"/>
      <point x="333" y="524" type="curve" smooth="yes"/>
      <point x="333" y="571" smooth="yes"/>
      <point x="307" y="600" smooth="yes"/>
      <point x="251" y="600" type="curve" smooth="yes"/>
      <point x="185" y="600"/>
      <point x="121" y="575"/>
      <point x="66" y="544" type="curve"/>
      <point x="118" y="464" type="line"/>
      <point x="92" y="351" smooth="yes"/>
      <point x="55" y="156" smooth="yes"/>
      <point x="55" y="99" type="curve" smooth="yes"/>
      <point x="55" y="19" smooth="yes"/>
      <point x="88" y="-25" smooth="yes"/>
      <point x="172" y="-25" type="curve" smooth="yes"/>
      <point x="209" y="-25"/>
      <point x="246" y="-9"/>
      <point x="282" y="24" type="curve"/>
      <point x="269" y="42" smooth="yes"/>
      <point x="261" y="75" smooth="yes"/>
      <point x="261" y="115" type="curve" smooth="yes"/>
      <point x="261" y="309" smooth="yes"/>
      <point x="392" y="443" smooth="yes"/>
      <point x="464" y="443" type="curve" smooth="yes"/>
      <point x="489" y="443" smooth="yes"/>
      <point x="498" y="426" smooth="yes"/>
      <point x="498" y="398" type="curve" smooth="yes"/>
      <point x="498" y="327" smooth="yes"/>
      <point x="438" y="187" smooth="yes"/>
      <point x="438" y="99" type="curve" smooth="yes" name="hr01"/>
      <point x="438" y="19" smooth="yes"/>
      <point x="471" y="-25" smooth="yes"/>
      <point x="555" y="-25" type="curve" smooth="yes"/>
      <point x="592" y="-25"/>
      <point x="629" y="-9"/>
      <point x="665" y="24" type="curve"/>
      <point x="652" y="42" smooth="yes"/>
      <point x="644" y="75" smooth="yes"/>
      <point x="644" y="115" type="curve" smooth="yes"/>
      <point x="644" y="309" smooth="yes"/>
      <point x="775" y="443" smooth="yes"/>
      <point x="847" y="443" type="curve" smooth="yes"/>
      <point x="872" y="443" smooth="yes"/>
      <point x="881" y="426" smooth="yes"/>
      <point x="881" y="398" type="curve" smooth="yes"/>
      <point x="881" y="327" smooth="yes"/>
      <point x="821" y="187" smooth="yes"/>
      <point x="821" y="99" type="curve" smooth="yes" name="hr02"/>
      <point x="821" y="19" smooth="yes"/>
      <point x="854" y="-25" smooth="yes"/>
      <point x="938" y="-25" type="curve" smooth="yes"/>
      <point x="975" y="-25"/>
      <point x="1012" y="-9"/>
      <point x="1048" y="24" type="curve"/>
      <point x="1035" y="42" smooth="yes"/>
      <point x="1027" y="75" smooth="yes"/>
      <point x="1027" y="115" type="curve" smooth="yes"/>
      <point x="1027" y="239" smooth="yes"/>
      <point x="1086" y="371" smooth="yes"/>
      <point x="1086" y="479" type="curve" smooth="yes" name="hr03"/>
      <point x="1086" y="562" smooth="yes"/>
      <point x="1046" y="600" smooth="yes"/>
      <point x="965" y="600" type="curve" smooth="yes"/>
      <point x="867" y="600"/>
      <point x="781" y="551"/>
      <point x="703" y="417" type="curve"/>
    </contour>
  </outline>
</glyph>
<glyph name="n" format="1">
  <advance width="758"/>
  <unicode hex="006E"/>
  <outline>
    <contour>
      <point x="55" y="99" type="curve" smooth="yes"/>
      <point x="55" y="19" smooth="yes"/>
      <point x="88" y="-25" smooth="yes"/>
      <point x="172" y="-25" type="curve" smooth="yes"/>
      <point x="209" y="-25"/>
      <point x="246" y="-9"/>
      <point x="282" y="24" type="curve"/>
      <point x="269" y="42" smooth="yes"/>
      <point x="261" y="75" smooth="yes"/>
      <point x="261" y="115" type="curve" smooth="yes"/>
      <point x="261" y="309" smooth="yes"/>
      <point x="402" y="443" smooth="yes"/>
      <point x="474" y="443" type="curve" smooth="yes"/>
      <point x="499" y="443" smooth="yes"/>
      <point x="508" y="426" smooth="yes"/>
      <point x="508" y="398" type="curve" smooth="yes"/>
      <point x="508" y="327" smooth="yes"/>
      <point x="448" y="187" smooth="yes"/>
      <point x="448" y="99" type="curve" smooth="yes" name="hr01"/>
      <point x="448" y="19" smooth="yes"/>
      <point x="481" y="-25" smooth="yes"/>
      <point x="565" y="-25" type="curve" smooth="yes"/>
      <point x="602" y="-25"/>
      <point x="639" y="-9"/>
      <point x="675" y="24" type="curve"/>
      <point x="662" y="42" smooth="yes"/>
      <point x="654" y="75" smooth="yes"/>
      <point x="654" y="115" type="curve" smooth="yes"/>
      <point x="654" y="239" smooth="yes"/>
      <point x="713" y="371" smooth="yes"/>
      <point x="713" y="479" type="curve" smooth="yes" name="hr02"/>
      <point x="713" y="562" smooth="yes"/>
      <point x="673" y="600" smooth="yes"/>
      <point x="592" y="600" type="curve" smooth="yes"/>
      <point x="494" y="600"/>
      <point x="398" y="551"/>
      <point x="320" y="417" type="curve"/>
      <point x="310" y="422" type="line"/>
      <point x="322" y="449" smooth="yes"/>
      <point x="333" y="489" smooth="yes"/>
      <point x="333" y="524" type="curve" smooth="yes"/>
      <point x="333" y="571" smooth="yes"/>
      <point x="307" y="600" smooth="yes"/>
      <point x="251" y="600" type="curve" smooth="yes"/>
      <point x="185" y="600"/>
      <point x="121" y="575"/>
      <point x="66" y="544" type="curve"/>
      <point x="118" y="464" type="line"/>
      <point x="92" y="351" smooth="yes"/>
      <point x="55" y="156" smooth="yes"/>
    </contour>
  </outline>
</glyph>
<glyph name="o" format="1">
  <advance width="715"/>
  <unicode hex="006F"/>
  <outline>
    <contour>
      <point x="538" y="524" type="curve" smooth="yes" name="hr00"/>
      <point x="522" y="524"/>
      <point x="508" y="521"/>
      <point x="496" y="517" type="curve"/>
      <point x="495" y="546"/>
      <point x="490" y="573"/>
      <point x="484" y="592" type="curve"/>
      <point x="457" y="598" smooth="yes"/>
      <point x="434" y="600" smooth="yes"/>
      <point x="412" y="600" type="curve" smooth="yes"/>
      <point x="200" y="600" smooth="yes"/>
      <point x="45" y="454" smooth="yes"/>
      <point x="45" y="238" type="curve" smooth="yes"/>
      <point x="45" y="82" smooth="yes"/>
      <point x="151" y="-25" smooth="yes"/>
      <point x="328" y="-25" type="curve" smooth="yes"/>
      <point x="500" y="-25" smooth="yes"/>
      <point x="675" y="111" smooth="yes"/>
      <point x="675" y="349" type="curve" smooth="yes"/>
      <point x="675" y="469" smooth="yes"/>
      <point x="607" y="524" smooth="yes"/>
    </contour>
    <contour>
      <point x="415" y="385" type="curve" smooth="yes"/>
      <point x="415" y="321"/>
      <point x="438" y="267"/>
      <point x="496" y="231" type="curve"/>
      <point x="463" y="125" smooth="yes"/>
      <point x="404" y="98" smooth="yes"/>
      <point x="359" y="98" type="curve" smooth="yes"/>
      <point x="286" y="98" smooth="yes"/>
      <point x="247" y="168" smooth="yes"/>
      <point x="247" y="249" type="curve" smooth="yes"/>
      <point x="247" y="343"/>
      <point x="289" y="466"/>
      <point x="472" y="504" type="curve"/>
      <point x="427" y="473" smooth="yes"/>
      <point x="415" y="413" smooth="yes"/>
    </contour>
  </outline>
</glyph>
<glyph name="p" format="1">
  <advance width="766"/>
  <unicode hex="0070"/>
  <outline>
    <contour>
      <point x="55" y="-75" type="curve" smooth="yes" name="hr00"/>
      <point x="55" y="-155" smooth="yes"/>
      <point x="80" y="-199" smooth="yes"/>
      <point x="165" y="-199" type="curve" smooth="yes"/>
      <point x="205" y="-199"/>
      <point x="246" y="-183"/>
      <point x="284" y="-150" type="curve"/>
      <point x="263" y="-132" smooth="yes"/>
      <point x="253" y="-99" smooth="yes"/>
      <point x="253" y="-59" type="curve" smooth="yes"/>
      <point x="253" y="-39"/>
      <point x="254" y="-17"/>
      <point x="256" y="6" type="curve"/>
      <point x="284" y="3" smooth="yes"/>
      <point x="307" y="1" smooth="yes"/>
      <point x="332" y="1" type="curve" smooth="yes"/>
      <point x="598" y="1" smooth="yes"/>
      <point x="721" y="200" smooth="yes"/>
      <point x="721" y="366" type="curve" smooth="yes"/>
      <point x="721" y="493" smooth="yes"/>
      <point x="663" y="601" smooth="yes"/>
      <point x="555" y="601" type="curve" smooth="yes"/>
      <point x="460" y="601"/>
      <point x="383" y="544"/>
      <point x="345" y="448" type="curve"/>
      <point x="335" y="453" type="line"/>
      <point x="337" y="473" smooth="yes"/>
      <point x="339" y="491" smooth="yes"/>
      <point x="339" y="506" type="curve" smooth="yes"/>
      <point x="339" y="556" smooth="yes"/>
      <point x="323" y="601" smooth="yes"/>
      <point x="267" y="601" type="curve" smooth="yes"/>
      <point x="203" y="601"/>
      <point x="141" y="569"/>
      <point x="71" y="528" type="curve"/>
      <point x="127" y="448" type="line"/>
      <point x="100" y="301" smooth="yes"/>
      <point x="55" y="-1" smooth="yes"/>
    </contour>
    <contour>
      <point x="297" y="215" type="line" smooth="yes"/>
      <point x="332" y="390" smooth="yes"/>
      <point x="394" y="450" smooth="yes"/>
      <point x="468" y="450" type="curve" smooth="yes"/>
      <point x="516" y="450" smooth="yes"/>
      <point x="540" y="407" smooth="yes"/>
      <point x="540" y="346" type="curve" smooth="yes"/>
      <point x="540" y="236"/>
      <point x="447" y="103"/>
      <point x="274" y="99" type="curve"/>
    </contour>
  </outline>
</glyph>
<glyph name="q" format="1">
  <advance width="737"/>
  <unicode hex="0071"/>
  <outline>
    <contour>
      <point x="387" y="-128" type="curve" smooth="yes" name="hr00"/>
      <point x="387" y="-178" smooth="yes"/>
      <point x="413" y="-199" smooth="yes"/>
      <point x="474" y="-199" type="curve" smooth="yes"/>
      <point x="540" y="-199"/>
      <point x="604" y="-167"/>
      <point x="659" y="-126" type="curve"/>
      <point x="609" y="-46" type="line"/>
      <point x="609" y="165" smooth="yes"/>
      <point x="691" y="427" smooth="yes"/>
      <point x="691" y="477" type="curve" smooth="yes"/>
      <point x="691" y="528" smooth="yes"/>
      <point x="672" y="575" smooth="yes"/>
      <point x="601" y="575" type="curve" smooth="yes"/>
      <point x="575" y="575"/>
      <point x="550" y="572"/>
      <point x="525" y="566" type="curve"/>
      <point x="484" y="588" smooth="yes"/>
      <point x="440" y="600" smooth="yes"/>
      <point x="395" y="600" type="curve" smooth="yes"/>
      <point x="152" y="600" smooth="yes"/>
      <point x="40" y="400" smooth="yes"/>
      <point x="40" y="210" type="curve" smooth="yes"/>
      <point x="40" y="49" smooth="yes"/>
      <point x="126" y="-25" smooth="yes"/>
      <point x="221" y="-25" type="curve" smooth="yes"/>
      <point x="287" y="-25"/>
      <point x="358" y="11"/>
      <point x="408" y="77" type="curve"/>
      <point x="418" y="72" type="line"/>
      <point x="408" y="0" smooth="yes"/>
      <point x="387" y="-88" smooth="yes"/>
    </contour>
    <contour>
      <point x="323" y="125" type="curve" smooth="yes"/>
      <point x="262" y="125" smooth="yes"/>
      <point x="229" y="192" smooth="yes"/>
      <point x="229" y="270" type="curve" smooth="yes"/>
      <point x="229" y="378" smooth="yes"/>
      <point x="293" y="506" smooth="yes"/>
      <point x="435" y="506" type="curve" smooth="yes"/>
      <point x="449" y="506"/>
      <point x="466" y="504"/>
      <point x="484" y="500" type="curve"/>
      <point x="464" y="382"/>
      <point x="448" y="282"/>
      <point x="434" y="191" type="curve"/>
      <point x="396" y="137" smooth="yes"/>
      <point x="348" y="125" smooth="yes"/>
    </contour>
  </outline>
</glyph>
<glyph name="r" format="1">
  <advance width="529"/>
  <unicode hex="0072"/>
  <outline>
    <contour>
      <point x="55" y="99" type="curve" name="hr00"/>
      <point x="55" y="19" smooth="yes"/>
      <point x="87" y="-25" smooth="yes"/>
      <point x="168" y="-25" type="curve" smooth="yes"/>
      <point x="204" y="-25"/>
      <point x="240" y="-9"/>
      <point x="282" y="24" type="curve"/>
      <point x="269" y="42" smooth="yes"/>
      <point x="261" y="75" smooth="yes"/>
      <point x="261" y="115" type="curve" smooth="yes"/>
      <point x="261" y="328" smooth="yes"/>
      <point x="324" y="370" smooth="yes"/>
      <point x="385" y="370" type="curve" smooth="yes"/>
      <point x="503" y="370" smooth="yes"/>
      <point x="549" y="437" smooth="yes"/>
      <point x="549" y="503" type="curve" smooth="yes"/>
      <point x="549" y="545" smooth="yes"/>
      <point x="519" y="600" smooth="yes"/>
      <point x="448" y="600" type="curve" smooth="yes"/>
      <point x="374" y="600"/>
      <point x="315" y="522"/>
      <point x="269" y="385" type="curve"/>
      <point x="259" y="390" type="line"/>
      <point x="273" y="437" smooth="yes"/>
      <point x="292" y="493" smooth="yes"/>
      <point x="292" y="536" type="curve" smooth="yes"/>
      <point x="292" y="573" smooth="yes"/>
      <point x="277" y="600" smooth="yes"/>
      <point x="242" y="600" type="curve" smooth="yes"/>
      <point x="195" y="600"/>
      <point x="135" y="575"/>
      <point x="66" y="544" type="curve"/>
      <point x="118" y="464" type="line"/>
      <point x="92" y="351" smooth="yes"/>
      <point x="55" y="156" smooth="yes"/>
    </contour>
  </outline>
</glyph>
<glyph name="s" format="1">
  <advance width="643"/>
  <unicode hex="0073"/>
  <outline>
    <contour>
      <point x="374" y="467" type="curve" name="hr00"/>
      <point x="400" y="411" smooth="yes"/>
      <point x="450" y="385" smooth="yes"/>
      <point x="490" y="385" type="curve" smooth="yes"/>
      <point x="548" y="385" smooth="yes"/>
      <point x="603" y="419" smooth="yes"/>
      <point x="603" y="483" type="curve" smooth="yes"/>
      <point x="603" y="550" smooth="yes"/>
      <point x="518" y="600" smooth="yes"/>
      <point x="400" y="600" type="curve" smooth="yes"/>
      <point x="232" y="600" smooth="yes"/>
      <point x="75" y="543" smooth="yes"/>
      <point x="75" y="391" type="curve" smooth="yes"/>
      <point x="75" y="271"/>
      <point x="158" y="206"/>
      <point x="363" y="182" type="curve"/>
      <point x="351" y="129" smooth="yes"/>
      <point x="310" y="109" smooth="yes"/>
      <point x="263" y="109" type="curve" smooth="yes"/>
      <point x="199" y="109"/>
      <point x="122" y="147"/>
      <point x="89" y="194" type="curve"/>
      <point x="57" y="158" smooth="yes"/>
      <point x="40" y="114" smooth="yes"/>
      <point x="40" y="84" type="curve" smooth="yes"/>
      <point x="40" y="23" smooth="yes"/>
      <point x="105" y="-25" smooth="yes"/>
      <point x="293" y="-25" type="curve" smooth="yes"/>
      <point x="390" y="-25" smooth="yes"/>
      <point x="583" y="16" smooth="yes"/>
      <point x="583" y="171" type="curve" smooth="yes"/>
      <point x="583" y="286"/>
      <point x="503" y="343"/>
      <point x="276" y="377" type="curve"/>
      <point x="298" y="428"/>
      <point x="324" y="452"/>
    </contour>
  </outline>
</glyph>
<glyph name="t" format="1">
  <advance width="476"/>
  <unicode hex="0074"/>
  <outline>
    <contour>
      <point x="67" y="361" type="curve" name="hr00"/>
      <point x="90" y="369"/>
      <point x="116" y="376"/>
      <point x="144" y="381" type="curve"/>
      <point x="127" y="282" smooth="yes"/>
      <point x="109" y="172" smooth="yes"/>
      <point x="109" y="129" type="curve" smooth="yes"/>
      <point x="109" y="25" smooth="yes"/>
      <point x="142" y="-25" smooth="yes"/>
      <point x="227" y="-25" type="curve" smooth="yes"/>
      <point x="267" y="-25"/>
      <point x="308" y="-9"/>
      <point x="346" y="24" type="curve"/>
      <point x="325" y="48" smooth="yes"/>
      <point x="315" y="90" smooth="yes"/>
      <point x="315" y="142" type="curve" smooth="yes"/>
      <point x="315" y="219"/>
      <point x="332" y="312"/>
      <point x="351" y="398" type="curve"/>
      <point x="366" y="398" type="line" smooth="yes"/>
      <point x="434" y="398" smooth="yes"/>
      <point x="466" y="444" smooth="yes"/>
      <point x="466" y="497" type="curve" smooth="yes"/>
      <point x="466" y="511"/>
      <point x="464" y="527"/>
      <point x="459" y="542" type="curve"/>
      <point x="434" y="535"/>
      <point x="407" y="529"/>
      <point x="378" y="525" type="curve"/>
      <point x="386" y="566" smooth="yes"/>
      <point x="392" y="601" smooth="yes"/>
      <point x="392" y="627" type="curve" smooth="yes"/>
      <point x="392" y="677" smooth="yes"/>
      <point x="372" y="698" smooth="yes"/>
      <point x="314" y="698" type="curve" smooth="yes"/>
      <point x="246" y="698"/>
      <point x="193" y="666"/>
      <point x="137" y="625" type="curve"/>
      <point x="157" y="580"/>
      <point x="164" y="543"/>
      <point x="164" y="512" type="curve"/>
      <point x="107" y="512" smooth="yes"/>
      <point x="60" y="482" smooth="yes"/>
      <point x="60" y="413" type="curve" smooth="yes"/>
      <point x="60" y="404"/>
      <point x="62" y="381"/>
    </contour>
  </outline>
</glyph>
<glyph name="u" format="1">
  <advance width="764"/>
  <unicode hex="0075"/>
  <outline>
    <contour>
      <point x="223" y="-25" type="curve" smooth="yes"/>
      <point x="311" y="-25"/>
      <point x="396" y="13"/>
      <point x="440" y="78" type="curve"/>
      <point x="450" y="73" type="line"/>
      <point x="450" y="20" smooth="yes"/>
      <point x="479" y="-25" smooth="yes"/>
      <point x="564" y="-25" type="curve" smooth="yes"/>
      <point x="604" y="-25"/>
      <point x="645" y="-9"/>
      <point x="683" y="24" type="curve"/>
      <point x="662" y="42" smooth="yes"/>
      <point x="652" y="75" smooth="yes"/>
      <point x="652" y="115" type="curve" smooth="yes"/>
      <point x="652" y="239" smooth="yes"/>
      <point x="725" y="458" smooth="yes"/>
      <point x="725" y="529" type="curve" smooth="yes"/>
      <point x="725" y="579" smooth="yes"/>
      <point x="701" y="600" smooth="yes"/>
      <point x="641" y="600" type="curve" smooth="yes"/>
      <point x="573" y="600"/>
      <point x="506" y="568"/>
      <point x="449" y="527" type="curve"/>
      <point x="509" y="447" type="line"/>
      <point x="494" y="383"/>
      <point x="464" y="249"/>
      <point x="454" y="191" type="curve"/>
      <point x="423" y="129" smooth="yes"/>
      <point x="371" y="97" smooth="yes"/>
      <point x="329" y="97" type="curve" smooth="yes"/>
      <point x="292" y="97" smooth="yes"/>
      <point x="262" y="122" smooth="yes"/>
      <point x="262" y="172" type="curve" smooth="yes"/>
      <point x="262" y="237" smooth="yes"/>
      <point x="323" y="459" smooth="yes"/>
      <point x="323" y="529" type="curve" smooth="yes" name="hr01"/>
      <point x="323" y="579" smooth="yes"/>
      <point x="300" y="600" smooth="yes"/>
      <point x="245" y="600" type="curve" smooth="yes"/>
      <point x="209" y="600"/>
      <point x="143" y="580"/>
      <point x="88" y="551" type="curve"/>
      <point x="101" y="533" smooth="yes"/>
      <point x="109" y="500" smooth="yes"/>
      <point x="109" y="460" type="curve" smooth="yes"/>
      <point x="109" y="375" smooth="yes"/>
      <point x="65" y="242" smooth="yes"/>
      <point x="65" y="137" type="curve" smooth="yes" name="hr02"/>
      <point x="65" y="45" smooth="yes"/>
      <point x="98" y="-25" smooth="yes"/>
    </contour>
  </outline>
</glyph>
<glyph name="v" format="1">
  <advance width="703"/>
  <unicode hex="0076"/>
  <outline>
    <contour>
      <point x="95" y="110" type="curve" name="hr00"/>
      <point x="95" y="14" smooth="yes"/>
      <point x="149" y="-25" smooth="yes"/>
      <point x="282" y="-25" type="curve" smooth="yes"/>
      <point x="383" y="-25"/>
      <point x="500" y="20"/>
      <point x="554" y="69" type="curve"/>
      <point x="541" y="127" type="line"/>
      <point x="579" y="219" smooth="yes"/>
      <point x="678" y="411" smooth="yes"/>
      <point x="678" y="506" type="curve" smooth="yes"/>
      <point x="678" y="562" smooth="yes"/>
      <point x="657" y="600" smooth="yes"/>
      <point x="600" y="600" type="curve" smooth="yes"/>
      <point x="564" y="600"/>
      <point x="516" y="586"/>
      <point x="466" y="557" type="curve"/>
      <point x="471" y="545" smooth="yes"/>
      <point x="475" y="531" smooth="yes"/>
      <point x="475" y="512" type="curve" smooth="yes"/>
      <point x="475" y="418"/>
      <point x="382" y="221"/>
      <point x="323" y="97" type="curve"/>
      <point x="289" y="97" type="line"/>
      <point x="292" y="168" smooth="yes"/>
      <point x="294" y="280" smooth="yes"/>
      <point x="294" y="354" type="curve" smooth="yes"/>
      <point x="294" y="492" smooth="yes"/>
      <point x="271" y="600" smooth="yes"/>
      <point x="159" y="600" type="curve" smooth="yes"/>
      <point x="118" y="600"/>
      <point x="80" y="586"/>
      <point x="45" y="557" type="curve"/>
      <point x="75" y="526" smooth="yes"/>
      <point x="99" y="476" smooth="yes"/>
      <point x="99" y="385" type="curve" smooth="yes"/>
      <point x="99" y="307" smooth="yes"/>
      <point x="95" y="198" smooth="yes"/>
    </contour>
  </outline>
</glyph>
<glyph name="w" format="1">
  <advance width="966"/>
  <unicode hex="0077"/>
  <outline>
    <contour>
      <point x="96" y="89" type="curve" smooth="yes" name="hr00"/>
      <point x="96" y="0" smooth="yes"/>
      <point x="167" y="-25" smooth="yes"/>
      <point x="233" y="-25" type="curve" smooth="yes"/>
      <point x="313" y="-25"/>
      <point x="373" y="9"/>
      <point x="432" y="66" type="curve"/>
      <point x="448" y="-2" smooth="yes"/>
      <point x="498" y="-25" smooth="yes"/>
      <point x="557" y="-25" type="curve" smooth="yes"/>
      <point x="654" y="-25"/>
      <point x="777" y="37"/>
      <point x="818" y="69" type="curve"/>
      <point x="804" y="127" type="line"/>
      <point x="842" y="219" smooth="yes"/>
      <point x="941" y="411" smooth="yes"/>
      <point x="941" y="506" type="curve" smooth="yes"/>
      <point x="941" y="562" smooth="yes"/>
      <point x="918" y="600" smooth="yes"/>
      <point x="859" y="600" type="curve" smooth="yes"/>
      <point x="821" y="600"/>
      <point x="774" y="586"/>
      <point x="728" y="557" type="curve"/>
      <point x="733" y="545" smooth="yes"/>
      <point x="737" y="531" smooth="yes"/>
      <point x="737" y="512" type="curve" smooth="yes"/>
      <point x="737" y="418"/>
      <point x="645" y="213"/>
      <point x="585" y="97" type="curve"/>
      <point x="551" y="97" type="line"/>
      <point x="555" y="337" type="line"/>
      <point x="576" y="401" smooth="yes"/>
      <point x="597" y="444" smooth="yes"/>
      <point x="597" y="485" type="curve" smooth="yes"/>
      <point x="597" y="550" smooth="yes"/>
      <point x="540" y="576" smooth="yes"/>
      <point x="489" y="576" type="curve" smooth="yes"/>
      <point x="445" y="576"/>
      <point x="399" y="558"/>
      <point x="379" y="532" type="curve"/>
      <point x="401" y="495"/>
      <point x="422" y="388"/>
      <point x="423" y="321" type="curve"/>
      <point x="408" y="250"/>
      <point x="370" y="178"/>
      <point x="323" y="97" type="curve"/>
      <point x="289" y="97" type="line"/>
      <point x="292" y="168" smooth="yes"/>
      <point x="294" y="280" smooth="yes"/>
      <point x="294" y="354" type="curve" smooth="yes"/>
      <point x="294" y="492" smooth="yes"/>
      <point x="270" y="600" smooth="yes"/>
      <point x="159" y="600" type="curve" smooth="yes"/>
      <point x="118" y="600"/>
      <point x="80" y="586"/>
      <point x="45" y="557" type="curve"/>
      <point x="75" y="526" smooth="yes"/>
      <point x="99" y="476" smooth="yes"/>
      <point x="99" y="385" type="curve" smooth="yes"/>
      <point x="99" y="307" smooth="yes"/>
      <point x="96" y="89" smooth="yes"/>
    </contour>
  </outline>
</glyph>
<glyph name="x" format="1">
  <advance width="689"/>
  <unicode hex="0078"/>
  <outline>
    <contour>
      <point x="337" y="89" type="line" smooth="yes" name="hr00"/>
      <point x="385" y="1" smooth="yes"/>
      <point x="418" y="-25" smooth="yes"/>
      <point x="479" y="-25" type="curve" smooth="yes"/>
      <point x="547" y="-25"/>
      <point x="600" y="6"/>
      <point x="642" y="69" type="curve"/>
      <point x="575" y="90" smooth="yes"/>
      <point x="546" y="129" smooth="yes"/>
      <point x="526" y="167" type="curve" smooth="yes"/>
      <point x="463" y="281" type="line"/>
      <point x="485" y="292" type="line" smooth="yes"/>
      <point x="567" y="332" smooth="yes"/>
      <point x="674" y="409" smooth="yes"/>
      <point x="674" y="504" type="curve" smooth="yes"/>
      <point x="674" y="561" smooth="yes"/>
      <point x="638" y="600" smooth="yes"/>
      <point x="582" y="600" type="curve" smooth="yes"/>
      <point x="540" y="600"/>
      <point x="496" y="586"/>
      <point x="448" y="557" type="curve"/>
      <point x="453" y="544" smooth="yes"/>
      <point x="456" y="530" smooth="yes"/>
      <point x="456" y="511" type="curve" smooth="yes"/>
      <point x="456" y="470"/>
      <point x="432" y="438"/>
      <point x="396" y="404" type="curve"/>
      <point x="352" y="485" type="line" smooth="yes"/>
      <point x="304" y="573" smooth="yes"/>
      <point x="269" y="600" smooth="yes"/>
      <point x="209" y="600" type="curve" smooth="yes"/>
      <point x="141" y="600"/>
      <point x="89" y="569"/>
      <point x="47" y="505" type="curve"/>
      <point x="109" y="484" smooth="yes"/>
      <point x="142" y="446" smooth="yes"/>
      <point x="163" y="407" type="curve" smooth="yes"/>
      <point x="223" y="297" type="line"/>
      <point x="194" y="283" type="line" smooth="yes"/>
      <point x="112" y="243" smooth="yes"/>
      <point x="5" y="166" smooth="yes"/>
      <point x="5" y="71" type="curve" smooth="yes"/>
      <point x="5" y="14" smooth="yes"/>
      <point x="41" y="-25" smooth="yes"/>
      <point x="97" y="-25" type="curve" smooth="yes"/>
      <point x="139" y="-25"/>
      <point x="183" y="-11"/>
      <point x="231" y="18" type="curve"/>
      <point x="226" y="31" smooth="yes"/>
      <point x="223" y="45" smooth="yes"/>
      <point x="223" y="64" type="curve" smooth="yes"/>
      <point x="223" y="106"/>
      <point x="250" y="141"/>
      <point x="289" y="177" type="curve"/>
    </contour>
  </outline>
</glyph>
<glyph name="y" format="1">
  <advance width="695"/>
  <unicode hex="0079"/>
  <outline>
    <contour>
      <point x="332" y="20" type="curve" name="hr00"/>
      <point x="299" y="8" smooth="yes"/>
      <point x="269" y="3" smooth="yes"/>
      <point x="243" y="3" type="curve" smooth="yes"/>
      <point x="174" y="3" smooth="yes"/>
      <point x="129" y="41" smooth="yes"/>
      <point x="122" y="110" type="curve" smooth="yes"/>
      <point x="113" y="198" smooth="yes"/>
      <point x="113" y="298" smooth="yes"/>
      <point x="105" y="376" type="curve" smooth="yes"/>
      <point x="96" y="467"/>
      <point x="64" y="526"/>
      <point x="25" y="557" type="curve"/>
      <point x="57" y="586" smooth="yes"/>
      <point x="88" y="600" smooth="yes"/>
      <point x="143" y="600" type="curve" smooth="yes"/>
      <point x="277" y="600" smooth="yes"/>
      <point x="303" y="428" smooth="yes"/>
      <point x="303" y="201" type="curve" smooth="yes"/>
      <point x="303" y="185"/>
      <point x="302" y="147"/>
      <point x="300" y="114" type="curve"/>
      <point x="358" y="114" type="line"/>
      <point x="401" y="230" smooth="yes"/>
      <point x="461" y="393" smooth="yes"/>
      <point x="461" y="493" type="curve" smooth="yes"/>
      <point x="461" y="522"/>
      <point x="454" y="541"/>
      <point x="446" y="557" type="curve"/>
      <point x="493" y="586" smooth="yes"/>
      <point x="540" y="600" smooth="yes"/>
      <point x="576" y="600" type="curve" smooth="yes"/>
      <point x="637" y="600" smooth="yes"/>
      <point x="665" y="554" smooth="yes"/>
      <point x="665" y="488" type="curve" smooth="yes"/>
      <point x="665" y="389" smooth="yes"/>
      <point x="596" y="212" smooth="yes"/>
      <point x="566" y="127" type="curve" smooth="yes"/>
      <point x="469" y="-150" smooth="yes"/>
      <point x="335" y="-235" smooth="yes"/>
      <point x="205" y="-235" type="curve" smooth="yes"/>
      <point x="113" y="-235" smooth="yes"/>
      <point x="42" y="-193" smooth="yes"/>
      <point x="42" y="-121" type="curve" smooth="yes"/>
      <point x="42" y="-92"/>
      <point x="53" y="-59"/>
      <point x="79" y="-21" type="curve"/>
      <point x="110" y="-65" smooth="yes"/>
      <point x="155" y="-89" smooth="yes"/>
      <point x="199" y="-89" type="curve" smooth="yes"/>
      <point x="251" y="-89"/>
      <point x="303" y="-56"/>
    </contour>
  </outline>
</glyph>
<glyph name="z" format="1">
  <advance width="624"/>
  <unicode hex="007A"/>
  <outline>
    <contour>
      <point x="109" y="-18" type="curve" smooth="yes"/>
      <point x="148" y="-18"/>
      <point x="180" y="-6"/>
      <point x="220" y="25" type="curve"/>
      <point x="290" y="-2" smooth="yes"/>
      <point x="351" y="-25" smooth="yes"/>
      <point x="427" y="-25" type="curve" smooth="yes" name="hr01"/>
      <point x="512" y="-25" smooth="yes"/>
      <point x="584" y="26" smooth="yes"/>
      <point x="584" y="97" type="curve" smooth="yes"/>
      <point x="584" y="133"/>
      <point x="575" y="165"/>
      <point x="563" y="196" type="curve"/>
      <point x="427" y="143" type="line"/>
      <point x="395" y="144"/>
      <point x="360" y="153"/>
      <point x="324" y="164" type="curve"/>
      <point x="531" y="401" type="line"/>
      <point x="576" y="421" smooth="yes"/>
      <point x="604" y="453" smooth="yes"/>
      <point x="604" y="506" type="curve" smooth="yes"/>
      <point x="604" y="560" smooth="yes"/>
      <point x="570" y="600" smooth="yes"/>
      <point x="499" y="600" type="curve" smooth="yes"/>
      <point x="450" y="600"/>
      <point x="405" y="570"/>
      <point x="384" y="530" type="curve"/>
      <point x="317" y="533"/>
      <point x="180" y="568"/>
      <point x="91" y="605" type="curve" name="hr02"/>
      <point x="84" y="564" smooth="yes"/>
      <point x="80" y="539" smooth="yes"/>
      <point x="80" y="514" type="curve" smooth="yes"/>
      <point x="80" y="428"/>
      <point x="126" y="382"/>
      <point x="298" y="376" type="curve"/>
      <point x="134" y="202" type="line"/>
      <point x="53" y="192" smooth="yes"/>
      <point x="15" y="133" smooth="yes"/>
      <point x="15" y="78" type="curve" smooth="yes"/>
      <point x="15" y="28" smooth="yes"/>
      <point x="47" y="-18" smooth="yes"/>
    </contour>
  </outline>
</glyph>
<glyph name="braceleft" format="1">
  <advance width="486"/>
  <unicode hex="007B"/>
  <outline>
    <contour>
      <point x="143" y="295" type="curve" smooth="yes" name="hr00"/>
      <point x="154" y="295"/>
      <point x="165" y="297"/>
      <point x="175" y="301" type="curve"/>
      <point x="117" y="196" smooth="yes"/>
      <point x="90" y="81" smooth="yes"/>
      <point x="90" y="15" type="curve" smooth="yes"/>
      <point x="90" y="-116" smooth="yes"/>
      <point x="169" y="-157" smooth="yes"/>
      <point x="332" y="-157" type="curve" smooth="yes"/>
      <point x="383" y="-157" smooth="yes"/>
      <point x="409" y="-120" smooth="yes"/>
      <point x="409" y="-58" type="curve" smooth="yes"/>
      <point x="409" y="-48"/>
      <point x="407" y="-23"/>
      <point x="402" y="-6" type="curve"/>
      <point x="382" y="-15"/>
      <point x="311" y="-25"/>
      <point x="276" y="-25" type="curve"/>
      <point x="293" y="143" smooth="yes"/>
      <point x="293" y="153" smooth="yes"/>
      <point x="293" y="163" type="curve" smooth="yes"/>
      <point x="293" y="234"/>
      <point x="269" y="304"/>
      <point x="227" y="351" type="curve"/>
      <point x="297" y="398"/>
      <point x="337" y="454"/>
      <point x="381" y="668" type="curve"/>
      <point x="416" y="668"/>
      <point x="491" y="658"/>
      <point x="511" y="649" type="curve"/>
      <point x="516" y="666" smooth="yes"/>
      <point x="516" y="691" smooth="yes"/>
      <point x="516" y="701" type="curve" smooth="yes"/>
      <point x="516" y="763" smooth="yes"/>
      <point x="492" y="800" smooth="yes"/>
      <point x="424" y="800" type="curve" smooth="yes"/>
      <point x="301" y="800" smooth="yes"/>
      <point x="173" y="790" smooth="yes"/>
      <point x="173" y="581" type="curve" smooth="yes"/>
      <point x="173" y="539"/>
      <point x="180" y="451"/>
      <point x="194" y="401" type="curve"/>
      <point x="181" y="413" smooth="yes"/>
      <point x="163" y="420" smooth="yes"/>
      <point x="143" y="420" type="curve" smooth="yes"/>
      <point x="105" y="420" smooth="yes"/>
      <point x="73" y="392" smooth="yes"/>
      <point x="73" y="357" type="curve" smooth="yes"/>
      <point x="73" y="322" smooth="yes"/>
      <point x="105" y="295" smooth="yes"/>
    </contour>
  </outline>
</glyph>
<glyph name="bar" format="1">
  <advance width="479"/>
  <unicode hex="007C"/>
  <outline>
    <contour>
      <point x="147" y="49" type="curve"/>
      <point x="144" y="-13"/>
      <point x="134" y="-111"/>
      <point x="110" y="-168" type="curve"/>
      <point x="138" y="-199" smooth="yes"/>
      <point x="192" y="-219" smooth="yes"/>
      <point x="250" y="-219" type="curve" smooth="yes"/>
      <point x="313" y="-219" smooth="yes"/>
      <point x="331" y="-188" smooth="yes"/>
      <point x="331" y="-150" type="curve" smooth="yes"/>
      <point x="331" y="30" smooth="yes"/>
      <point x="319" y="168" smooth="yes"/>
      <point x="319" y="379" type="curve" smooth="yes" name="hr01"/>
      <point x="319" y="548"/>
      <point x="325" y="769"/>
      <point x="364" y="840" type="curve"/>
      <point x="337" y="866" smooth="yes"/>
      <point x="303" y="874" smooth="yes"/>
      <point x="268" y="874" type="curve" smooth="yes"/>
      <point x="196" y="874" smooth="yes"/>
      <point x="169" y="832" smooth="yes"/>
      <point x="166" y="758" type="curve" smooth="yes"/>
      <point x="156" y="522" smooth="yes"/>
      <point x="156" y="272" smooth="yes"/>
    </contour>
  </outline>
</glyph>
<glyph name="braceright" format="1">
  <advance width="486"/>
  <unicode hex="007D"/>
  <outline>
    <contour>
      <point x="343" y="348" type="curve" smooth="yes" name="hr00"/>
      <point x="331" y="348"/>
      <point x="320" y="346"/>
      <point x="310" y="341" type="curve"/>
      <point x="369" y="446" smooth="yes"/>
      <point x="396" y="562" smooth="yes"/>
      <point x="396" y="628" type="curve" smooth="yes"/>
      <point x="396" y="759" smooth="yes"/>
      <point x="317" y="800" smooth="yes"/>
      <point x="154" y="800" type="curve" smooth="yes"/>
      <point x="103" y="800" smooth="yes"/>
      <point x="77" y="763" smooth="yes"/>
      <point x="77" y="701" type="curve" smooth="yes"/>
      <point x="77" y="691"/>
      <point x="79" y="666"/>
      <point x="84" y="649" type="curve"/>
      <point x="104" y="658"/>
      <point x="175" y="668"/>
      <point x="210" y="668" type="curve"/>
      <point x="193" y="500" smooth="yes"/>
      <point x="193" y="490" smooth="yes"/>
      <point x="193" y="480" type="curve" smooth="yes"/>
      <point x="193" y="409"/>
      <point x="217" y="339"/>
      <point x="259" y="292" type="curve"/>
      <point x="189" y="245"/>
      <point x="149" y="189"/>
      <point x="105" y="-25" type="curve"/>
      <point x="70" y="-25"/>
      <point x="-5" y="-15"/>
      <point x="-25" y="-6" type="curve"/>
      <point x="-30" y="-23" smooth="yes"/>
      <point x="-30" y="-48" smooth="yes"/>
      <point x="-30" y="-58" type="curve" smooth="yes"/>
      <point x="-30" y="-120" smooth="yes"/>
      <point x="-6" y="-157" smooth="yes"/>
      <point x="62" y="-157" type="curve" smooth="yes"/>
      <point x="185" y="-157" smooth="yes"/>
      <point x="313" y="-147" smooth="yes"/>
      <point x="313" y="62" type="curve" smooth="yes"/>
      <point x="313" y="103"/>
      <point x="306" y="191"/>
      <point x="291" y="242" type="curve"/>
      <point x="304" y="230" smooth="yes"/>
      <point x="323" y="223" smooth="yes"/>
      <point x="343" y="223" type="curve" smooth="yes"/>
      <point x="381" y="223" smooth="yes"/>
      <point x="413" y="251" smooth="yes"/>
      <point x="413" y="286" type="curve" smooth="yes"/>
      <point x="413" y="321" smooth="yes"/>
      <point x="381" y="348" smooth="yes"/>
    </contour>
  </outline>
</glyph>
<glyph name="asciitilde" format="1">
  <advance width="733"/>
  <unicode hex="007E"/>
  <outline>
    <contour>
      <point x="485" y="354" type="curve" smooth="yes" name="hr00"/>
      <point x="369" y="354" smooth="yes"/>
      <point x="270" y="270" smooth="yes"/>
      <point x="157" y="270" type="curve" smooth="yes"/>
      <point x="121" y="270" smooth="yes"/>
      <point x="97" y="287" smooth="yes"/>
      <point x="97" y="340" type="curve" smooth="yes"/>
      <point x="97" y="372"/>
      <point x="112" y="415"/>
      <point x="136" y="450" type="curve"/>
      <point x="172" y="436" smooth="yes"/>
      <point x="211" y="431" smooth="yes"/>
      <point x="247" y="431" type="curve" smooth="yes"/>
      <point x="354" y="431" smooth="yes"/>
      <point x="441" y="508" smooth="yes"/>
      <point x="544" y="508" type="curve" smooth="yes"/>
      <point x="596" y="508" smooth="yes"/>
      <point x="636" y="486" smooth="yes"/>
      <point x="636" y="429" type="curve" smooth="yes"/>
      <point x="636" y="399"/>
      <point x="623" y="361"/>
      <point x="598" y="328" type="curve"/>
      <point x="561" y="347" smooth="yes"/>
      <point x="521" y="354" smooth="yes"/>
    </contour>
  </outline>
</glyph>
<glyph name="exclamdown" format="1">
  <advance width="458"/>
  <unicode hex="00A1"/>
  <outline>
    <contour>
      <point x="251" y="287" type="curve" smooth="yes" name="hr00"/>
      <point x="223" y="287"/>
      <point x="178" y="274"/>
      <point x="149" y="249" type="curve"/>
      <point x="119" y="170" smooth="yes"/>
      <point x="45" y="-4" smooth="yes"/>
      <point x="45" y="-106" type="curve" smooth="yes"/>
      <point x="45" y="-166" smooth="yes"/>
      <point x="74" y="-209" smooth="yes"/>
      <point x="153" y="-209" type="curve" smooth="yes"/>
      <point x="221" y="-209"/>
      <point x="283" y="-187"/>
      <point x="327" y="-142" type="curve"/>
      <point x="308" y="-124" smooth="yes"/>
      <point x="302" y="-90" smooth="yes"/>
      <point x="302" y="-65" type="curve" smooth="yes"/>
      <point x="302" y="0" smooth="yes"/>
      <point x="321" y="155" smooth="yes"/>
      <point x="321" y="202" type="curve" smooth="yes"/>
      <point x="321" y="252" smooth="yes"/>
      <point x="306" y="287" smooth="yes"/>
    </contour>
    <component  base="period" xOffset="115" yOffset="393"/>
  </outline>
</glyph>
<glyph name="cent" format="1">
  <advance width="663"/>
  <unicode hex="00A2"/>
  <outline>
    <contour>
      <point x="246" y="-81" type="curve" smooth="yes"/>
      <point x="246" y="-117" smooth="yes"/>
      <point x="256" y="-135" smooth="yes"/>
      <point x="278" y="-135" type="curve" smooth="yes"/>
      <point x="300" y="-135"/>
      <point x="329" y="-118"/>
      <point x="362" y="-83" type="curve"/>
      <point x="359" y="-72" smooth="yes"/>
      <point x="358" y="-57" smooth="yes"/>
      <point x="358" y="-43" type="curve" smooth="yes"/>
      <point x="358" y="-11"/>
      <point x="363" y="23"/>
      <point x="371" y="60" type="curve"/>
      <point x="512" y="75" smooth="yes"/>
      <point x="599" y="169" smooth="yes"/>
      <point x="599" y="246" type="curve" smooth="yes"/>
      <point x="599" y="283"/>
      <point x="542" y="297"/>
      <point x="448" y="299" type="curve"/>
      <point x="445" y="221" smooth="yes"/>
      <point x="402" y="184" smooth="yes"/>
      <point x="360" y="184" type="curve" smooth="yes"/>
      <point x="306" y="184" smooth="yes"/>
      <point x="281" y="237" smooth="yes"/>
      <point x="281" y="296" type="curve" smooth="yes" name="hr01"/>
      <point x="281" y="352"/>
      <point x="303" y="419"/>
      <point x="339" y="450" type="curve"/>
      <point x="364" y="454" smooth="yes"/>
      <point x="388" y="455" smooth="yes"/>
      <point x="409" y="455" type="curve" smooth="yes"/>
      <point x="479" y="455"/>
      <point x="531" y="440"/>
      <point x="569" y="416" type="curve"/>
      <point x="586" y="453" smooth="yes"/>
      <point x="594" y="488" smooth="yes"/>
      <point x="594" y="515" type="curve" smooth="yes"/>
      <point x="594" y="579"/>
      <point x="545" y="614"/>
      <point x="454" y="620" type="curve"/>
      <point x="469" y="667" smooth="yes"/>
      <point x="479" y="712" smooth="yes"/>
      <point x="479" y="749" type="curve" smooth="yes"/>
      <point x="479" y="779" smooth="yes"/>
      <point x="470" y="794" smooth="yes"/>
      <point x="450" y="794" type="curve" smooth="yes"/>
      <point x="428" y="794"/>
      <point x="400" y="776"/>
      <point x="364" y="740" type="curve"/>
      <point x="365" y="732" smooth="yes"/>
      <point x="366" y="721" smooth="yes"/>
      <point x="366" y="709" type="curve" smooth="yes"/>
      <point x="366" y="679"/>
      <point x="361" y="647"/>
      <point x="354" y="615" type="curve"/>
      <point x="185" y="587" smooth="yes"/>
      <point x="64" y="464" smooth="yes"/>
      <point x="64" y="293" type="curve" smooth="yes"/>
      <point x="64" y="171"/>
      <point x="142" y="82"/>
      <point x="273" y="62" type="curve"/>
      <point x="257" y="11" smooth="yes"/>
      <point x="246" y="-38" smooth="yes"/>
    </contour>
  </outline>
</glyph>
<glyph name="sterling" format="1">
  <advance width="664"/>
  <unicode hex="00A3"/>
  <outline>
    <contour>
      <point x="64" y="267" type="curve" smooth="yes"/>
      <point x="79" y="267"/>
      <point x="95" y="269"/>
      <point x="112" y="272" type="curve"/>
      <point x="110" y="211" type="line"/>
      <point x="47" y="190" smooth="yes"/>
      <point x="17" y="138" smooth="yes"/>
      <point x="17" y="87" type="curve" smooth="yes"/>
      <point x="17" y="29" smooth="yes"/>
      <point x="51" y="-19" smooth="yes"/>
      <point x="117" y="-19" type="curve" smooth="yes"/>
      <point x="150" y="-19"/>
      <point x="193" y="-6"/>
      <point x="235" y="27" type="curve"/>
      <point x="318" y="-3" smooth="yes"/>
      <point x="384" y="-25" smooth="yes"/>
      <point x="465" y="-25" type="curve" smooth="yes" name="hr01"/>
      <point x="548" y="-25" smooth="yes"/>
      <point x="618" y="22" smooth="yes"/>
      <point x="618" y="132" type="curve" smooth="yes"/>
      <point x="618" y="161"/>
      <point x="613" y="197"/>
      <point x="606" y="222" type="curve"/>
      <point x="491" y="176" type="line"/>
      <point x="415" y="177"/>
      <point x="354" y="195"/>
      <point x="291" y="208" type="curve"/>
      <point x="302" y="235"/>
      <point x="312" y="266"/>
      <point x="321" y="297" type="curve"/>
      <point x="357" y="305" smooth="yes"/>
      <point x="391" y="311" smooth="yes"/>
      <point x="421" y="311" type="curve" smooth="yes"/>
      <point x="436" y="311"/>
      <point x="446" y="310"/>
      <point x="456" y="307" type="curve"/>
      <point x="488" y="336" smooth="yes"/>
      <point x="503" y="361" smooth="yes"/>
      <point x="503" y="382" type="curve" smooth="yes"/>
      <point x="503" y="400" smooth="yes"/>
      <point x="487" y="409" smooth="yes"/>
      <point x="456" y="409" type="curve" smooth="yes"/>
      <point x="422" y="409"/>
      <point x="385" y="401"/>
      <point x="345" y="390" type="curve"/>
      <point x="357" y="444"/>
      <point x="364" y="489"/>
      <point x="364" y="509" type="curve"/>
      <point x="447" y="509"/>
      <point x="531" y="493"/>
      <point x="582" y="462" type="curve"/>
      <point x="600" y="492" smooth="yes"/>
      <point x="609" y="539" smooth="yes"/>
      <point x="609" y="574" type="curve" smooth="yes"/>
      <point x="609" y="695" smooth="yes"/>
      <point x="479" y="705" smooth="yes"/>
      <point x="397" y="705" type="curve" smooth="yes"/>
      <point x="267" y="705" smooth="yes"/>
      <point x="158" y="633" smooth="yes"/>
      <point x="134" y="496" type="curve" smooth="yes"/>
      <point x="126" y="453"/>
      <point x="121" y="408"/>
      <point x="118" y="365" type="curve"/>
      <point x="88" y="365"/>
      <point x="81" y="365"/>
      <point x="73" y="367" type="curve"/>
      <point x="39" y="334" smooth="yes"/>
      <point x="25" y="311" smooth="yes"/>
      <point x="25" y="291" type="curve" smooth="yes"/>
      <point x="25" y="274" smooth="yes"/>
      <point x="38" y="267" smooth="yes"/>
    </contour>
  </outline>
</glyph>
<glyph name="currency" format="1">
  <advance width="636"/>
  <unicode hex="00A4"/>
  <outline>
    <contour>
      <point x="172" y="249" type="line" name="hr00"/>
      <point x="166" y="240" type="line" smooth="yes"/>
      <point x="137" y="198"/>
      <point x="101" y="154"/>
      <point x="65" y="117" type="curve"/>
      <point x="65" y="84" smooth="yes"/>
      <point x="78" y="24" smooth="yes"/>
      <point x="111" y="24" type="curve" smooth="yes"/>
      <point x="132" y="24" smooth="yes"/>
      <point x="155" y="44" smooth="yes"/>
      <point x="177" y="75" type="curve" smooth="yes"/>
      <point x="209" y="120"/>
      <point x="233" y="166"/>
      <point x="256" y="213" type="curve"/>
    </contour>
    <contour>
      <point x="442" y="402" type="line"/>
      <point x="463" y="433" type="line" smooth="yes"/>
      <point x="493" y="477"/>
      <point x="530" y="521"/>
      <point x="571" y="558" type="curve"/>
      <point x="571" y="594" smooth="yes"/>
      <point x="556" y="645" smooth="yes"/>
      <point x="530" y="645" type="curve" smooth="yes"/>
      <point x="502" y="645" smooth="yes"/>
      <point x="466" y="609" smooth="yes"/>
      <point x="431" y="559" type="curve" smooth="yes"/>
      <point x="409" y="527"/>
      <point x="390" y="494"/>
      <point x="373" y="461" type="curve"/>
    </contour>
    <contour>
      <point x="77" y="323" type="curve" smooth="yes"/>
      <point x="77" y="217" smooth="yes"/>
      <point x="156" y="143" smooth="yes"/>
      <point x="293" y="143" type="curve" smooth="yes"/>
      <point x="434" y="143" smooth="yes"/>
      <point x="559" y="234" smooth="yes"/>
      <point x="559" y="370" type="curve" smooth="yes"/>
      <point x="559" y="443"/>
      <point x="524" y="499"/>
      <point x="441" y="515" type="curve"/>
      <point x="440" y="528"/>
      <point x="438" y="537"/>
      <point x="433" y="542" type="curve"/>
      <point x="419" y="547" smooth="yes"/>
      <point x="391" y="550" smooth="yes"/>
      <point x="373" y="550" type="curve" smooth="yes"/>
      <point x="198" y="550" smooth="yes"/>
      <point x="77" y="459" smooth="yes"/>
    </contour>
    <contour>
      <point x="298" y="257" type="curve" smooth="yes"/>
      <point x="266" y="257" smooth="yes"/>
      <point x="249" y="283" smooth="yes"/>
      <point x="249" y="317" type="curve" smooth="yes"/>
      <point x="249" y="346"/>
      <point x="262" y="382"/>
      <point x="292" y="410" type="curve"/>
      <point x="302" y="411" smooth="yes"/>
      <point x="310" y="412" smooth="yes"/>
      <point x="318" y="412" type="curve" smooth="yes"/>
      <point x="369" y="412" smooth="yes"/>
      <point x="381" y="389" smooth="yes"/>
      <point x="381" y="361" type="curve" smooth="yes"/>
      <point x="381" y="309" smooth="yes"/>
      <point x="341" y="257" smooth="yes"/>
    </contour>
    <contour>
      <point x="342" y="230" type="line"/>
      <point x="367" y="177" smooth="yes"/>
      <point x="394" y="125" smooth="yes"/>
      <point x="429" y="75" type="curve" smooth="yes"/>
      <point x="451" y="44" smooth="yes"/>
      <point x="474" y="24" smooth="yes"/>
      <point x="495" y="24" type="curve" smooth="yes"/>
      <point x="528" y="24"/>
      <point x="541" y="84"/>
      <point x="541" y="117" type="curve"/>
      <point x="505" y="154" smooth="yes"/>
      <point x="469" y="198" smooth="yes"/>
      <point x="440" y="240" type="curve" smooth="yes"/>
      <point x="430" y="255"/>
      <point x="420" y="270"/>
      <point x="411" y="285" type="curve"/>
    </contour>
    <contour>
      <point x="291" y="464" type="line"/>
      <point x="274" y="496" smooth="yes"/>
      <point x="257" y="528" smooth="yes"/>
      <point x="235" y="559" type="curve" smooth="yes"/>
      <point x="200" y="609" smooth="yes"/>
      <point x="164" y="645" smooth="yes"/>
      <point x="136" y="645" type="curve" smooth="yes"/>
      <point x="110" y="645"/>
      <point x="95" y="594"/>
      <point x="95" y="558" type="curve"/>
      <point x="136" y="521" smooth="yes"/>
      <point x="173" y="477" smooth="yes"/>
      <point x="203" y="433" type="curve" smooth="yes"/>
      <point x="224" y="402" type="line"/>
    </contour>
  </outline>
</glyph>
<glyph name="yen" format="1">
  <advance width="728"/>
  <unicode hex="00A5"/>
  <outline>
    <contour>
      <point x="140" y="288" type="curve" smooth="yes"/>
      <point x="153" y="288"/>
      <point x="168" y="289"/>
      <point x="184" y="292" type="curve"/>
      <point x="196" y="232" type="line"/>
      <point x="174" y="227" smooth="yes"/>
      <point x="153" y="224" smooth="yes"/>
      <point x="135" y="224" type="curve" smooth="yes"/>
      <point x="128" y="224"/>
      <point x="118" y="224"/>
      <point x="109" y="226" type="curve"/>
      <point x="78" y="197" smooth="yes"/>
      <point x="65" y="175" smooth="yes"/>
      <point x="65" y="159" type="curve" smooth="yes"/>
      <point x="65" y="145" smooth="yes"/>
      <point x="78" y="138" smooth="yes"/>
      <point x="104" y="138" type="curve" smooth="yes"/>
      <point x="132" y="138"/>
      <point x="165" y="145"/>
      <point x="200" y="155" type="curve"/>
      <point x="199" y="145" smooth="yes"/>
      <point x="199" y="135" smooth="yes"/>
      <point x="199" y="125" type="curve" smooth="yes"/>
      <point x="199" y="36" smooth="yes"/>
      <point x="232" y="-25" smooth="yes"/>
      <point x="321" y="-25" type="curve" smooth="yes"/>
      <point x="363" y="-25"/>
      <point x="408" y="-13"/>
      <point x="455" y="12" type="curve"/>
      <point x="440" y="39" smooth="yes"/>
      <point x="432" y="75" smooth="yes"/>
      <point x="432" y="114" type="curve" smooth="yes"/>
      <point x="432" y="134"/>
      <point x="433" y="156"/>
      <point x="437" y="179" type="curve"/>
      <point x="472" y="188" smooth="yes"/>
      <point x="506" y="194" smooth="yes"/>
      <point x="533" y="194" type="curve" smooth="yes"/>
      <point x="545" y="194"/>
      <point x="556" y="193"/>
      <point x="566" y="190" type="curve"/>
      <point x="595" y="218" smooth="yes"/>
      <point x="609" y="240" smooth="yes"/>
      <point x="609" y="256" type="curve" smooth="yes"/>
      <point x="609" y="272" smooth="yes"/>
      <point x="593" y="280" smooth="yes"/>
      <point x="563" y="280" type="curve" smooth="yes"/>
      <point x="540" y="280"/>
      <point x="517" y="276"/>
      <point x="493" y="271" type="curve"/>
      <point x="542" y="340" type="line"/>
      <point x="558" y="342" smooth="yes"/>
      <point x="575" y="344" smooth="yes"/>
      <point x="589" y="344" type="curve" smooth="yes"/>
      <point x="601" y="344"/>
      <point x="612" y="343"/>
      <point x="622" y="340" type="curve"/>
      <point x="651" y="368" smooth="yes"/>
      <point x="665" y="390" smooth="yes"/>
      <point x="665" y="406" type="curve" smooth="yes"/>
      <point x="665" y="422" smooth="yes"/>
      <point x="649" y="430" smooth="yes"/>
      <point x="619" y="430" type="curve" smooth="yes"/>
      <point x="614" y="430"/>
      <point x="608" y="430"/>
      <point x="603" y="429" type="curve"/>
      <point x="659" y="514" smooth="yes"/>
      <point x="707" y="600" smooth="yes"/>
      <point x="707" y="636" type="curve" smooth="yes" name="hr01"/>
      <point x="707" y="673" smooth="yes"/>
      <point x="680" y="700" smooth="yes"/>
      <point x="604" y="700" type="curve" smooth="yes"/>
      <point x="556" y="700"/>
      <point x="503" y="691"/>
      <point x="452" y="666" type="curve"/>
      <point x="456" y="654" smooth="yes"/>
      <point x="457" y="641" smooth="yes"/>
      <point x="457" y="625" type="curve" smooth="yes"/>
      <point x="457" y="530"/>
      <point x="398" y="402"/>
      <point x="366" y="350" type="curve"/>
      <point x="326" y="350" type="line"/>
      <point x="336" y="400" smooth="yes"/>
      <point x="348" y="467" smooth="yes"/>
      <point x="348" y="528" type="curve" smooth="yes"/>
      <point x="348" y="619" smooth="yes"/>
      <point x="320" y="700" smooth="yes"/>
      <point x="209" y="700" type="curve" smooth="yes"/>
      <point x="165" y="700"/>
      <point x="101" y="688"/>
      <point x="45" y="656" type="curve"/>
      <point x="92" y="612"/>
      <point x="128" y="523"/>
      <point x="165" y="374" type="curve"/>
      <point x="159" y="374"/>
      <point x="152" y="374"/>
      <point x="145" y="376" type="curve"/>
      <point x="114" y="347" smooth="yes"/>
      <point x="101" y="325" smooth="yes"/>
      <point x="101" y="309" type="curve" smooth="yes"/>
      <point x="101" y="295" smooth="yes"/>
      <point x="114" y="288" smooth="yes"/>
    </contour>
  </outline>
</glyph>
<glyph name="brokenbar" format="1">
  <advance width="435"/>
  <unicode hex="00A6"/>
  <outline>
    <contour>
      <point x="110" y="443" type="curve" name="hr00"/>
      <point x="143" y="413" smooth="yes"/>
      <point x="187" y="400" smooth="yes"/>
      <point x="234" y="400" type="curve" smooth="yes"/>
      <point x="291" y="400" smooth="yes"/>
      <point x="307" y="426" smooth="yes"/>
      <point x="307" y="460" type="curve" smooth="yes"/>
      <point x="307" y="524" smooth="yes"/>
      <point x="297" y="544" smooth="yes"/>
      <point x="297" y="667" type="curve" smooth="yes"/>
      <point x="297" y="738"/>
      <point x="303" y="803"/>
      <point x="320" y="840" type="curve"/>
      <point x="292" y="866" smooth="yes"/>
      <point x="265" y="874" smooth="yes"/>
      <point x="229" y="874" type="curve" smooth="yes"/>
      <point x="152" y="874" smooth="yes"/>
      <point x="134" y="831" smooth="yes"/>
      <point x="134" y="747" type="curve" smooth="yes"/>
      <point x="134" y="584"/>
      <point x="131" y="515"/>
    </contour>
    <contour>
      <point x="110" y="-176" type="curve"/>
      <point x="143" y="-206" smooth="yes"/>
      <point x="187" y="-219" smooth="yes"/>
      <point x="234" y="-219" type="curve" smooth="yes"/>
      <point x="291" y="-219" smooth="yes"/>
      <point x="307" y="-193" smooth="yes"/>
      <point x="307" y="-159" type="curve" smooth="yes"/>
      <point x="307" y="-95" smooth="yes"/>
      <point x="297" y="-75" smooth="yes"/>
      <point x="297" y="48" type="curve" smooth="yes"/>
      <point x="297" y="119"/>
      <point x="303" y="184"/>
      <point x="320" y="221" type="curve"/>
      <point x="292" y="247" smooth="yes"/>
      <point x="265" y="255" smooth="yes"/>
      <point x="229" y="255" type="curve" smooth="yes"/>
      <point x="152" y="255" smooth="yes"/>
      <point x="134" y="212" smooth="yes"/>
      <point x="134" y="128" type="curve" smooth="yes"/>
      <point x="134" y="-35"/>
      <point x="131" y="-104"/>
    </contour>
  </outline>
</glyph>
<glyph name="section" format="1">
  <advance width="743"/>
  <unicode hex="00A7"/>
  <outline>
    <contour>
      <point x="90" y="534" type="curve" smooth="yes" name="hr00"/>
      <point x="90" y="258"/>
      <point x="498" y="389"/>
      <point x="640" y="247" type="curve"/>
      <point x="634" y="359"/>
      <point x="566" y="441"/>
      <point x="300" y="508" type="curve"/>
      <point x="320" y="568" smooth="yes"/>
      <point x="359" y="599" smooth="yes"/>
      <point x="427" y="599" type="curve" smooth="yes"/>
      <point x="525" y="599"/>
      <point x="622" y="549"/>
      <point x="677" y="483" type="curve"/>
      <point x="700" y="528" smooth="yes"/>
      <point x="713" y="583" smooth="yes"/>
      <point x="713" y="624" type="curve" smooth="yes"/>
      <point x="713" y="709" smooth="yes"/>
      <point x="643" y="774" smooth="yes"/>
      <point x="420" y="774" type="curve" smooth="yes"/>
      <point x="249" y="774" smooth="yes"/>
      <point x="90" y="698" smooth="yes"/>
    </contour>
    <contour>
      <point x="17" y="-37" type="curve" smooth="yes"/>
      <point x="17" y="-122" smooth="yes"/>
      <point x="87" y="-187" smooth="yes"/>
      <point x="311" y="-187" type="curve" smooth="yes"/>
      <point x="481" y="-187" smooth="yes"/>
      <point x="640" y="-111" smooth="yes"/>
      <point x="640" y="53" type="curve" smooth="yes"/>
      <point x="640" y="329"/>
      <point x="224" y="198"/>
      <point x="89" y="341" type="curve"/>
      <point x="95" y="218"/>
      <point x="160" y="146"/>
      <point x="430" y="78" type="curve"/>
      <point x="411" y="19" smooth="yes"/>
      <point x="371" y="-12" smooth="yes"/>
      <point x="304" y="-12" type="curve" smooth="yes"/>
      <point x="206" y="-12"/>
      <point x="108" y="38"/>
      <point x="54" y="104" type="curve"/>
      <point x="30" y="59" smooth="yes"/>
      <point x="17" y="4" smooth="yes"/>
    </contour>
  </outline>
</glyph>
<glyph name="dieresis" format="1">
  <advance width="632"/>
  <unicode hex="00A8"/>
  <outline>
    <contour>
      <point x="481" y="666" type="curve" smooth="yes" name="hr00"/>
      <point x="427" y="666" smooth="yes"/>
      <point x="387" y="694" smooth="yes"/>
      <point x="387" y="741" type="curve" smooth="yes"/>
      <point x="387" y="815" smooth="yes"/>
      <point x="459" y="849" smooth="yes"/>
      <point x="512" y="849" type="curve" smooth="yes"/>
      <point x="566" y="849" smooth="yes"/>
      <point x="606" y="820" smooth="yes"/>
      <point x="606" y="773" type="curve" smooth="yes"/>
      <point x="606" y="708" smooth="yes"/>
      <point x="547" y="666" smooth="yes"/>
    </contour>
    <contour>
      <point x="180" y="666" type="curve" smooth="yes"/>
      <point x="126" y="666" smooth="yes"/>
      <point x="86" y="694" smooth="yes"/>
      <point x="86" y="741" type="curve" smooth="yes"/>
      <point x="86" y="815" smooth="yes"/>
      <point x="158" y="849" smooth="yes"/>
      <point x="211" y="849" type="curve" smooth="yes"/>
      <point x="265" y="849" smooth="yes"/>
      <point x="305" y="820" smooth="yes"/>
      <point x="305" y="773" type="curve" smooth="yes"/>
      <point x="305" y="708" smooth="yes"/>
      <point x="246" y="666" smooth="yes"/>
    </contour>
  </outline>
</glyph>
<glyph name="copyright" format="1">
  <advance width="896"/>
  <unicode hex="00A9"/>
  <outline>
    <contour>
      <point x="423" y="213" type="curve" name="hr00"/>
      <point x="281" y="213" smooth="yes"/>
      <point x="154" y="301" smooth="yes"/>
      <point x="154" y="494" type="curve" smooth="yes"/>
      <point x="154" y="706" smooth="yes"/>
      <point x="298" y="815" smooth="yes"/>
      <point x="480" y="815" type="curve" smooth="yes"/>
      <point x="667" y="815" smooth="yes"/>
      <point x="756" y="668" smooth="yes"/>
      <point x="756" y="543" type="curve" smooth="yes"/>
      <point x="756" y="379" smooth="yes"/>
      <point x="631" y="213" smooth="yes"/>
    </contour>
    <contour>
      <point x="424" y="150" type="curve"/>
      <point x="613" y="150" smooth="yes"/>
      <point x="811" y="285" smooth="yes"/>
      <point x="811" y="546" type="curve" smooth="yes"/>
      <point x="811" y="653"/>
      <point x="760" y="758"/>
      <point x="650" y="818" type="curve"/>
      <point x="645" y="870" smooth="yes"/>
      <point x="630" y="896" smooth="yes"/>
      <point x="537" y="896" type="curve" smooth="yes"/>
      <point x="265" y="896" smooth="yes"/>
      <point x="85" y="735" smooth="yes"/>
      <point x="85" y="493" type="curve" smooth="yes"/>
      <point x="85" y="263" smooth="yes"/>
      <point x="251" y="150" smooth="yes"/>
    </contour>
    <component  base="C" xScale="0.53" yScale="0.53" xOffset="259" yOffset="334"/>
  </outline>
</glyph>
